<?xml version="1.0" encoding="UTF-8"?>
<svg xmlns="http://www.w3.org/2000/svg" id="Layer_1" data-name="Layer 1" viewBox="0 0 64 64" width="512" height="512"><path d="M4,58H5.0542a1.97635,1.97635,0,0,0,.28174.74219L6.832,60.98682A.99432.99432,0,0,1,7,61.541v1.22949H9V61.541A2.98885,2.98885,0,0,0,8.49609,59.877L7,57.63281V47.541a2.002,2.002,0,0,1,2-2V50h2V44.541a1.0013,1.0013,0,0,1,1-1h1V48h2V42.541a1.0013,1.0013,0,0,1,1-1h1V46h2V33.77051a1,1,0,0,1,2,0V55h2V48.541a1.0013,1.0013,0,0,1,1,1v7.81543l-2.707,2.707a1.00012,1.00012,0,0,0-.293.707V63h2V61.18457l2.41406-2.41406A1.98325,1.98325,0,0,0,25.88574,58H36a3.00328,3.00328,0,0,0,3-3V48H37v3H26V49.541a3.00328,3.00328,0,0,0-3-3V37.44745l.0249.07843a8.70354,8.70354,0,0,0,1.583-.67529l1.04883,1.04882a.99963.99963,0,0,0,1.41406,0l2.82861-2.82861a.99962.99962,0,0,0,0-1.41406l-1.02587-1.061A8.64854,8.64854,0,0,0,29.51758,31H31a1,1,0,0,0,1-1V26a1,1,0,0,0-1-1l-1.47412-.0249a8.70354,8.70354,0,0,0-.67529-1.583l1.04882-1.04883a.99962.99962,0,0,0,0-1.41406L27.0708,18.10059a.99962.99962,0,0,0-1.41406,0l-1.061,1.02587A8.64854,8.64854,0,0,0,23,18.48242V17a1,1,0,0,0-1-1H18a1,1,0,0,0-1,1l-.0249,1.47412a8.70354,8.70354,0,0,0-1.583.67529l-1.04883-1.04882a.99962.99962,0,0,0-1.41406,0L10.10059,20.9292a.99962.99962,0,0,0,0,1.41406l1.02587,1.061A8.64854,8.64854,0,0,0,10.48242,25H9a1,1,0,0,0-1,1v4a1,1,0,0,0,1,1l1.47412.0249a8.70354,8.70354,0,0,0,.67529,1.583l-1.04882,1.04883a.99962.99962,0,0,0,0,1.41406l2.82861,2.82861a.99962.99962,0,0,0,1.41406,0l1.061-1.02587a9.91984,9.91984,0,0,0,1.5708.65234L17,37.44745V39.541H16a3.00507,3.00507,0,0,0-2.82861,2H12a3.00507,3.00507,0,0,0-2.82861,2H9a4.00458,4.00458,0,0,0-4,4V51H3V8H37V24h2V4a3.00328,3.00328,0,0,0-3-3H4A3.00328,3.00328,0,0,0,1,4V55A3.00328,3.00328,0,0,0,4,58Zm33-5v2a1.0013,1.0013,0,0,1-1,1H26V53ZM20,30.77051a2.9722,2.9722,0,0,0-1.93018.72265,4,4,0,1,1,3.86036,0A2.9722,2.9722,0,0,0,20,30.77051Zm-3.67285,4.32861a1.99838,1.99838,0,0,0-2.34912.3374l-.3418.3418-1.41455-1.41455.3418-.3418a2.00021,2.00021,0,0,0,.3374-2.34912,7.91508,7.91508,0,0,1-.52051-1.25342A2.00064,2.00064,0,0,0,10.48242,29H10V27h.48242a2.00064,2.00064,0,0,0,1.89795-1.41943,7.91508,7.91508,0,0,1,.52051-1.25342,2.00021,2.00021,0,0,0-.3374-2.34912l-.3418-.3418,1.41455-1.41455.3418.3418a1.9983,1.9983,0,0,0,2.34912.3374,7.91508,7.91508,0,0,1,1.25342-.52051A2.00064,2.00064,0,0,0,19,18.48242V18h2v.48242a2.00064,2.00064,0,0,0,1.41943,1.89795,7.91508,7.91508,0,0,1,1.25342.52051,1.99957,1.99957,0,0,0,2.34912-.3374l.3418-.3418,1.41455,1.41455-.3418.3418a2.00021,2.00021,0,0,0-.3374,2.34912,7.91508,7.91508,0,0,1,.52051,1.25342A2.00064,2.00064,0,0,0,29.51758,27H30v2h-.48242a2.00064,2.00064,0,0,0-1.89795,1.41943,7.91508,7.91508,0,0,1-.52051,1.25342,2.00021,2.00021,0,0,0,.3374,2.34912l.3418.3418-1.41455,1.41455-.3418-.3418a2.00063,2.00063,0,0,0-2.34912-.3374c-.21844.11359-.44391.215-.67285.30811V33.77051a2.989,2.989,0,0,0-.05627-.5567,6,6,0,1,0-5.88746,0A2.989,2.989,0,0,0,17,33.77051v1.63672C16.77106,35.31415,16.54559,35.21271,16.32715,35.09912ZM5,53v3H4a1.0013,1.0013,0,0,1-1-1V53ZM4,3H36a1.0013,1.0013,0,0,1,1,1V6H3V4A1.0013,1.0013,0,0,1,4,3Z"/><path d="M35,29h4.30469l6.29052,16.94873A2.99671,2.99671,0,0,0,48.44141,48H58V46H48.44141a1.0115,1.0115,0,0,1-.96-.71582L47.00482,44H58a1.00079,1.00079,0,0,0,.93994-.6582l4-11A1.0004,1.0004,0,0,0,62,31H42.18011L40.9375,27.65186A1.00045,1.00045,0,0,0,40,27H35Zm25.57227,4L57.2998,42H46.26257l-3.34021-9Z"/><rect x="47" y="49" width="3" height="3" rx="1.5"/><rect x="55" y="49" width="3" height="3" rx="1.5"/><rect x="36" y="43" width="7" height="2"/><rect x="33" y="37" width="7" height="2"/></svg>
