<svg id="Layer_1" enable-background="new 0 0 512 512" height="512" viewBox="0 0 512 512" width="512" xmlns="http://www.w3.org/2000/svg"><path d="m479.33 84.19h-446.66c-18.015 0-32.67 13.984-32.67 31.172v281.277c0 17.188 14.655 31.171 32.67 31.171h446.66c18.015 0 32.67-13.983 32.67-31.171v-281.277c0-17.188-14.655-31.172-32.67-31.172zm8.67 312.449c0 3.887-3.971 7.171-8.67 7.171h-446.66c-4.699 0-8.67-3.284-8.67-7.171v-281.277c0-3.887 3.971-7.171 8.67-7.171h446.66c4.699 0 8.67 3.284 8.67 7.171zm-240.2-91.588c-3.444-28.605-27.532-34.683-45.12-39.12-7.541-1.902-14.664-3.699-20.564-6.727-3.68-1.888-8.075-1.749-11.628.372s-5.763 5.922-5.848 10.059c-.245 11.966-3.76 24.184-10.475 36.479-6.716-12.295-10.229-24.513-10.477-36.479-.085-4.137-2.295-7.938-5.848-10.058-3.553-2.121-7.945-2.26-11.628-.372-5.899 3.027-13.021 4.824-20.563 6.727-17.589 4.438-41.677 10.515-45.12 39.12-.051.422-.079.847-.085 1.271l-.511 37.626c-.043 3.211 1.201 6.305 3.456 8.591 2.255 2.285 5.332 3.572 8.543 3.572h164.463c3.211 0 6.288-1.287 8.543-3.572 2.255-2.286 3.5-5.38 3.456-8.591l-.511-37.625c-.004-.427-.032-.85-.083-1.273zm-163.702 27.06.336-24.77c1.517-10.75 8.388-13.422 27.088-18.141 3.302-.833 6.648-1.677 9.993-2.647 3.079 15.309 10.008 30.564 20.709 45.558zm82.008 0c10.701-14.994 17.63-30.25 20.708-45.558 3.346.971 6.691 1.814 9.994 2.647 18.699 4.719 25.571 7.391 27.088 18.141l.336 24.77zm-11.941-78.248c27.012 0 48.987-21.976 48.987-48.987s-21.976-48.987-48.987-48.987-48.987 21.976-48.987 48.987 21.975 48.987 48.987 48.987zm0-73.974c13.778 0 24.987 11.209 24.987 24.987s-11.209 24.987-24.987 24.987-24.987-11.209-24.987-24.987 11.209-24.987 24.987-24.987zm124.503 15.601c0-6.627 5.372-12 12-12h74.699c6.628 0 12 5.373 12 12s-5.372 12-12 12h-74.699c-6.628 0-12-5.372-12-12zm0 60.51c0-6.627 5.373-12 12-12h122.999c6.628 0 12 5.373 12 12s-5.372 12-12 12h-122.999c-6.627 0-12-5.373-12-12zm173.398 60.51c0 6.628-5.373 12-12 12h-149.398c-6.627 0-12-5.372-12-12s5.373-12 12-12h149.398c6.627 0 12 5.372 12 12z"/></svg>