<svg clip-rule="evenodd" fill-rule="evenodd" height="512" stroke-linejoin="round" stroke-miterlimit="2" viewBox="0 0 32 32" width="512" xmlns="http://www.w3.org/2000/svg"><g transform="translate(-37 -37)"><g id="Line"><path d="m58 63v-2h6c.796 0 1.559-.316 2.121-.879.563-.562.879-1.325.879-2.121v-14c0-.796-.316-1.559-.879-2.121-.562-.563-1.325-.879-2.121-.879h-22c-.796 0-1.559.316-2.121.879-.563.562-.879 1.325-.879 2.121v14c0 .796.316 1.559.879 2.121.562.563 1.325.879 2.121.879h6v2h-1c-.552 0-1 .448-1 1s.448 1 1 1h12c.552 0 1-.448 1-1s-.448-1-1-1zm-2-2h-6v2h6zm9-17v14c0 .265-.105.52-.293.707-.187.188-.442.293-.707.293h-22c-.265 0-.52-.105-.707-.293-.188-.187-.293-.442-.293-.707v-14c0-.265.105-.52.293-.707.187-.188.442-.293.707-.293h22c.265 0 .52.105.707.293.188.187.293.442.293.707zm-2 12c.552 0 1 .448 1 1s-.448 1-1 1-1-.448-1-1 .448-1 1-1z"/></g></g></svg>