<svg id="Layer_6" height="512" viewBox="0 0 32 32" width="512" xmlns="http://www.w3.org/2000/svg" data-name="Layer 6"><path d="m19.2 32h-10.67a5.34 5.34 0 0 1 -5.33-5.33v-21.34a5.34 5.34 0 0 1 5.33-5.33 1.07 1.07 0 1 1 0 2.13 3.2 3.2 0 0 0 -3.2 3.2v21.34a3.2 3.2 0 0 0 3.2 3.2h10.67a1.07 1.07 0 1 1 0 2.13z"/><path d="m23.47 32a1.07 1.07 0 1 1 0-2.13 3.2 3.2 0 0 0 3.2-3.2v-21.34a3.2 3.2 0 0 0 -3.2-3.2h-10.67a1.07 1.07 0 1 1 0-2.13h10.67a5.34 5.34 0 0 1 5.33 5.33v21.34a5.34 5.34 0 0 1 -5.33 5.33z"/><path d="m20.26 21.33h-8.53a1.07 1.07 0 1 1 0-2.13h8.53a1.07 1.07 0 1 1 0 2.13z"/><path d="m19.2 25.6h-6.4a1.07 1.07 0 1 1 0-2.13h6.4a1.07 1.07 0 1 1 0 2.13z"/><path d="m15.57 13.36a1.07 1.07 0 0 1 -1.07-1.07v-.58a1.92 1.92 0 0 1 1.92-1.92.64.64 0 0 0 .65-.63v-1.32a.64.64 0 0 0 -.63-.63h-.86a.63.63 0 0 0 -.63.63 1.07 1.07 0 0 1 -1.08 1.06 1.07 1.07 0 0 1 -1.07-1.06 2.77 2.77 0 0 1 2.77-2.77h.86a2.77 2.77 0 0 1 2.77 2.77v1.32a2.77 2.77 0 0 1 -2.57 2.76v.37a1.07 1.07 0 0 1 -1.06 1.07z"/><path d="m15.57 16.56a1.07 1.07 0 1 1 1.07-1.07 1.07 1.07 0 0 1 -1.07 1.07z"/></svg>