<svg id="Layer_2" height="512" viewBox="0 0 24 24" width="512" xmlns="http://www.w3.org/2000/svg"><path d="m5.4521 22h9.0957c1.7485 0 3.1822-1.3118 3.4064-3h.5936c1.9034 0 3.4522-1.5488 3.4522-3.4521v-10.0958c0-1.9033-1.5488-3.4521-3.4521-3.4521h-9.0958c-1.9033 0-3.4521 1.5488-3.4521 3.4521v.5479h-.5479c-1.9033 0-3.4521 1.5488-3.4521 3.4521v9.0957c0 1.9034 1.5488 3.4522 3.4521 3.4522zm2.5479-16.5479c0-.8007.6514-1.4521 1.4521-1.4521h9.0957c.8008 0 1.4522.6514 1.4522 1.4521v10.0957c0 .8008-.6514 1.4522-1.4521 1.4522h-.5479v-7.5479c0-1.9033-1.5488-3.4521-3.4521-3.4521h-6.5479zm-4 4c0-.8007.6514-1.4521 1.4521-1.4521h9.0957c.8008 0 1.4522.6514 1.4522 1.4521v9.0957c0 .8008-.6514 1.4522-1.4521 1.4522h-9.0958c-.8007 0-1.4521-.6514-1.4521-1.4521z" fill="rgb(0,0,0)"/></svg>