<svg height="512" viewBox="0 0 64 64" width="512" xmlns="http://www.w3.org/2000/svg"><g id="Layer_9" data-name="Layer 9"><path d="m61.06 14.49a41.14 41.14 0 0 0 -58.12 0 1.49 1.49 0 0 0 0 2.12l3.94 3.94a1.49 1.49 0 0 0 2.12 0 32.42 32.42 0 0 1 20-9.36 7.06 7.06 0 0 0 -4.1 6.49 30.29 30.29 0 0 0 -14.44 8.08 1.5 1.5 0 0 0 0 2.12l3.94 3.94a1.5 1.5 0 0 0 2.12 0 21.78 21.78 0 0 1 9-5.42l.48 7.13a19.9 19.9 0 0 0 -8.1 4.9 1.5 1.5 0 0 0 0 2.12l3.94 4a1.5 1.5 0 0 0 1.06.44 1.5 1.5 0 0 0 1.1-.49 11.6 11.6 0 0 1 2.79-2 5.42 5.42 0 0 0 10.5 0 11.6 11.6 0 0 1 2.79 2 1.5 1.5 0 0 0 1.06.44 1.5 1.5 0 0 0 1.06-.44l3.94-4a1.5 1.5 0 0 0 0-2.12 19.9 19.9 0 0 0 -8.1-4.9l.52-7.13a21.78 21.78 0 0 1 9 5.42 1.5 1.5 0 0 0 2.12 0l3.94-3.94a1.49 1.49 0 0 0 0-2.12 30.29 30.29 0 0 0 -14.44-8.08 7.06 7.06 0 0 0 -4.18-6.44 32.42 32.42 0 0 1 20 9.36 1.46 1.46 0 0 0 1.06.44 1.47 1.47 0 0 0 1.06-.44l3.94-3.94a1.49 1.49 0 0 0 0-2.12zm-45.61 14.18-1.82-1.82a27.15 27.15 0 0 1 11.43-6.14l.19 2.63a24.79 24.79 0 0 0 -9.8 5.33zm7.55 12.7-1.83-1.83a16.94 16.94 0 0 1 5.1-2.92l.2 2.68a14.18 14.18 0 0 0 -3.47 2.07zm19.91-1.83-1.91 1.83a14.18 14.18 0 0 0 -3.47-2.07l.2-2.68a16.94 16.94 0 0 1 5.14 2.92zm5.68-10.87a24.79 24.79 0 0 0 -9.8-5.33l.19-2.63a27.15 27.15 0 0 1 11.43 6.14zm-12.45-10.67-1.72 23.29a2.43 2.43 0 0 1 -4.84 0l-1.72-23.29a4.13 4.13 0 0 1 1.14-3.17 4.14 4.14 0 0 1 6.08 0 4.13 4.13 0 0 1 1.06 3.17zm19.86-.6a35.55 35.55 0 0 0 -48 0l-1.86-1.83a38.16 38.16 0 0 1 51.72 0z"/><path d="m27.35 50.26a6.58 6.58 0 1 0 9.3 0 6.58 6.58 0 0 0 -9.3 0zm7.18 7.19a3.58 3.58 0 1 1 0-5.06 3.57 3.57 0 0 1 0 5.06z"/></g></svg>