<svg clip-rule="evenodd" fill-rule="evenodd" height="512" image-rendering="optimizeQuality" shape-rendering="geometricPrecision" text-rendering="geometricPrecision" viewBox="0 0 3000 3000" width="512" xmlns="http://www.w3.org/2000/svg" xmlns:xlink="http://www.w3.org/1999/xlink"><linearGradient id="id0" gradientUnits="userSpaceOnUse" x1="1343.12" x2="1656.88" y1="3007.3" y2="-7.299"><stop offset="0" stop-color="#1e8ac6"/><stop offset=".301961" stop-color="#834fbc"/><stop offset="1" stop-color="#e813b1"/></linearGradient><g id="Layer_x0020_1"><circle cx="1500" cy="1500" fill="url(#id0)" r="1500"/><g fill="#fff" fill-rule="nonzero"><path d="m658 1767c0 27 40 27 40 0v-864c0-190 232-290 369-153 39 39 63 93 63 153v1430c0 27 40 27 40 0v-1430c0-226-274-343-436-181-47 46-76 110-76 181z"/><path d="m914 647c-26 0-26 40 0 40h1290c53 0 98 44 98 98v1528h-1150c-26 0-26 40 0 40h1170c11 0 20-9 20-20v-1548c0-76-62-138-138-138z"/><path d="m1264 1371c-27 0-27 40 0 40h927c27 0 27-40 0-40z"/><path d="m1264 1552c-27 0-27 40 0 40h927c27 0 27-40 0-40z"/><path d="m1264 1733c-27 0-27 40 0 40h927c27 0 27-40 0-40z"/><path d="m1264 1913c-27 0-27 40 0 40h927c27 0 27-40 0-40z"/><path d="m1264 2094c-27 0-27 40 0 40h927c27 0 27-40 0-40z"/><path d="m1463 737c40 0 74-7 98 18 39 39 12 105-43 105-89 0-75 14-75-103 0-11 9-20 20-20zm55 40h-35v43c22 0 57 6 57-22 0-6-3-11-7-15l14-14-14 14c-4-4-9-6-15-6z"/><path d="m1483 904c22 0 57 6 57-22 0-6-3-12-7-16-9-9-31-6-50-6zm35 40c-89 0-75 14-75-104 0-11 9-20 20-20 39 0 74-6 98 18l-14 14 14-14c40 39 11 106-43 106z"/><path d="m1483 757c0-27-40-27-40 0v167c0 26 40 26 40 0z"/><path d="m1660 757c0-27-40-27-40 0v167c0 26 40 26 40 0z"/><path d="m1740 757c0-27-40-27-40 0v167c0 11 9 20 20 20h104c27 0 27-40 0-40h-84z"/><path d="m1925 757c0-27-40-27-40 0v167c0 11 8 20 20 20h104c26 0 26-40 0-40h-84z"/><path d="m1775 1102c0 26 40 26 40 0 0-21-8-40-22-54-48-48-131-14-131 54 0 58 34 67 69 76 19 5 39 10 39 37 0 10-4 20-11 26l14 14-14-14c-14 15-38 14-52 0l-14 14 14-14c-16-16-4-46-30-46-31 0-23 49 2 74 30 30 79 30 108 0 14-14 23-33 23-54 0-57-34-67-69-76l-5 20 5-20c-20-5-39-10-39-37 0-32 39-49 62-26l15-14-15 14c7 7 11 16 11 26z"/><path d="m1756 1012c0-26-40-26-40 0 0 22-6 53 20 53 25 0 20-31 20-53z"/><path d="m1756 1274c0-27-40-27-40 0 0 21-6 52 20 52 25 0 20-31 20-52z"/></g></g></svg>