<?xml version="1.0" encoding="UTF-8" standalone="no"?>
<!-- Created with Inkscape (http://www.inkscape.org/) -->

<svg
   version="1.1"
   id="svg3078"
   xml:space="preserve"
   width="682.66669"
   height="682.66669"
   viewBox="0 0 682.66669 682.66669"
   xmlns="http://www.w3.org/2000/svg"
   xmlns:svg="http://www.w3.org/2000/svg"><defs
     id="defs3082"><clipPath
       clipPathUnits="userSpaceOnUse"
       id="clipPath3092"><path
         d="M 0,512 H 512 V 0 H 0 Z"
         id="path3090" /></clipPath></defs><g
     id="g3084"
     transform="matrix(1.3333333,0,0,-1.3333333,0,682.66667)"><g
       id="g3086"><g
         id="g3088"
         clip-path="url(#clipPath3092)"><g
           id="g3094"
           transform="translate(372.7695,386.5791)"><path
             d="m 0,0 -311.77,-180 -46,77.942 312.77,180 z"
             style="fill:none;stroke:#000000;stroke-width:30;stroke-linecap:round;stroke-linejoin:round;stroke-miterlimit:10;stroke-dasharray:none;stroke-opacity:1"
             id="path3096" /></g><g
           id="g3098"
           transform="translate(171.8848,374.5215)"><path
             d="m 0,0 -63.612,39.647 c 0,0 6.062,-3.778 0,0 -13.653,8.51 -31.434,9.401 -46.34,0.795 -21.524,-12.426 -28.898,-39.948 -16.471,-61.471 12.426,-21.523 39.947,-28.898 61.471,-16.471"
             style="fill:none;stroke:#000000;stroke-width:30;stroke-linecap:round;stroke-linejoin:round;stroke-miterlimit:10;stroke-dasharray:none;stroke-opacity:1"
             id="path3100" /></g><g
           id="g3102"
           transform="translate(171.8848,374.5215)"><path
             d="m 0,0 -2.529,75.913 c 0,0 0.24,-7.14 0,0 -0.545,16.078 7.575,31.923 22.481,40.529 21.523,12.427 49.044,5.052 61.471,-16.471 C 93.85,78.448 86.475,49.926 64.952,37.5"
             style="fill:none;stroke:#000000;stroke-width:30;stroke-linecap:round;stroke-linejoin:round;stroke-miterlimit:10;stroke-dasharray:none;stroke-opacity:1"
             id="path3104" /></g><g
           id="g3106"
           transform="translate(146.5996,256)"><path
             d="m 0,0 h 259.4 v -241 h -300 v 217.56"
             style="fill:none;stroke:#000000;stroke-width:30;stroke-linecap:round;stroke-linejoin:round;stroke-miterlimit:10;stroke-dasharray:none;stroke-opacity:1"
             id="path3108" /></g><g
           id="g3110"
           transform="translate(286,256)"><path
             d="m 0,0 v -150 l -30,30 -30,-30 V 0"
             style="fill:none;stroke:#000000;stroke-width:30;stroke-linecap:round;stroke-linejoin:round;stroke-miterlimit:10;stroke-dasharray:none;stroke-opacity:1"
             id="path3112" /></g><g
           id="g3114"
           transform="translate(467,346)"><path
             d="M 0,0 V -60"
             style="fill:none;stroke:#000000;stroke-width:30;stroke-linecap:round;stroke-linejoin:round;stroke-miterlimit:10;stroke-dasharray:none;stroke-opacity:1"
             id="path3116" /></g><g
           id="g3118"
           transform="translate(437,316)"><path
             d="M 0,0 H 60"
             style="fill:none;stroke:#000000;stroke-width:30;stroke-linecap:round;stroke-linejoin:round;stroke-miterlimit:10;stroke-dasharray:none;stroke-opacity:1"
             id="path3120" /></g><g
           id="g3122"
           transform="translate(436,391)"><path
             d="m 0,0 c -8.284,0 -15,6.716 -15,15 0,8.284 6.716,15 15,15 C 8.284,30 15,23.284 15,15 15,6.716 8.284,0 0,0"
             style="fill:#000000;fill-opacity:1;fill-rule:nonzero;stroke:none"
             id="path3124" /></g><g
           id="g3126"
           transform="translate(376,301)"><path
             d="m 0,0 c -8.284,0 -15,6.716 -15,15 0,8.284 6.716,15 15,15 C 8.284,30 15,23.284 15,15 15,6.716 8.284,0 0,0"
             style="fill:#000000;fill-opacity:1;fill-rule:nonzero;stroke:none"
             id="path3128" /></g></g></g></g></svg>
