<?xml version="1.0" encoding="iso-8859-1"?>
<!-- Generator: Adobe Illustrator 19.0.0, SVG Export Plug-In . SVG Version: 6.00 Build 0)  -->
<svg version="1.1" id="Capa_1" xmlns="http://www.w3.org/2000/svg" xmlns:xlink="http://www.w3.org/1999/xlink" x="0px" y="0px"
	 viewBox="0 0 512.001 512.001" style="enable-background:new 0 0 512.001 512.001;" xml:space="preserve">
<g>
	<g>
		<path d="M457.849,54.288H201.916c-29.858,0-54.151,24.291-54.151,54.151v64.982H54.151C24.291,173.419,0,197.711,0,227.57v112.328
			c0,24.588,16.47,45.401,38.96,51.983v50.642c0,5.933,3.455,11.325,8.847,13.802c2.028,0.933,4.192,1.388,6.34,1.388
			c3.563,0,7.087-1.253,9.895-3.663l69.916-60.001h128.166c29.858,0,54.15-24.292,54.15-54.151v-33.065h48.813l75.906,70.298
			c2.865,2.653,6.568,4.046,10.324,4.046c2.053,0,4.123-0.416,6.078-1.271c5.533-2.417,9.109-7.882,9.109-13.92v-59.844
			c25.76-4.155,45.496-26.546,45.496-53.46V108.439C512,78.58,487.708,54.288,457.849,54.288z M285.894,339.898
			c0,13.106-10.663,23.77-23.769,23.77h-133.79c-3.63,0-7.138,1.299-9.893,3.663l-49.101,42.138v-30.611
			c0-8.389-6.801-15.19-15.19-15.19c-13.107,0-23.77-10.663-23.77-23.77V227.57c0-13.106,10.663-23.77,23.77-23.77h93.614v48.883
			c0,29.858,24.292,54.151,54.151,54.151h83.978V339.898z M481.619,252.683c0,13.106-10.663,23.77-23.77,23.77h-6.536
			c-8.389,0-15.19,6.801-15.19,15.19v39.571l-54.761-50.717c-2.808-2.601-6.494-4.046-10.321-4.046H201.916
			c-13.106,0-23.77-10.663-23.77-23.77V108.439c0-13.106,10.663-23.77,23.77-23.77h255.933c13.106,0,23.77,10.663,23.77,23.77
			V252.683z"/>
	</g>
</g>
<g>
	<g>
		<path d="M418.031,137.515H241.734c-8.389,0-15.19,6.801-15.19,15.19s6.801,15.19,15.19,15.19h176.297
			c8.389,0,15.19-6.801,15.19-15.19S426.42,137.515,418.031,137.515z"/>
	</g>
</g>
<g>
	<g>
		<path d="M418.031,200.302H241.734c-8.389,0-15.19,6.801-15.19,15.19s6.801,15.19,15.19,15.19h176.297
			c8.389,0,15.19-6.801,15.19-15.19S426.42,200.302,418.031,200.302z"/>
	</g>
</g>
<g>
</g>
<g>
</g>
<g>
</g>
<g>
</g>
<g>
</g>
<g>
</g>
<g>
</g>
<g>
</g>
<g>
</g>
<g>
</g>
<g>
</g>
<g>
</g>
<g>
</g>
<g>
</g>
<g>
</g>
</svg>
