<svg id="Layer_1" data-name="Layer 1" xmlns="http://www.w3.org/2000/svg" viewBox="0 0 442.56 368.7"><defs><style>.cls-1,.cls-2{stroke:#000;stroke-miterlimit:10;stroke-width:10px;}.cls-2{fill-rule:evenodd;}</style></defs><g id="Page-1"><g id="_005---Cake-Stand" data-name="005---Cake-Stand"><path class="cls-1" d="M318.07,420.42l-.35-.3c-.88-.77-1.75-1.54-2.61-2.33-.67-.67-1.33-1.36-2-2h0c-.48-.51-.94-1-1.4-1.53l-.42-.46h0c-1.06-1.2-2.1-2.42-3.1-3.65-14.93,5.13-36.75,9.2-64,9.2-53.66,0-86.51-15.83-86.51-24.46V384.6C176.66,397.11,211.3,403,244.27,403c18.91,0,38.35-1.95,55.07-6h0q-.76-1.33-1.47-2.7h0q-1.42-2.73-2.69-5.56h0c-.41-.94-.82-1.89-1.21-2.85h0l-.06-.14c-.52-1.3-1-2.6-1.49-3.93h0a226.26,226.26,0,0,1-48.15,4.83c-53.66,0-86.51-15.83-86.51-24.45,0-6.17,19.27-18.44,57.68-22.83v14.67a8.73,8.73,0,0,0,2.11,5.77,35.68,35.68,0,0,0,26.72,10.54A35.69,35.69,0,0,0,271,359.86a8.73,8.73,0,0,0,2.11-5.77V339.42c4.95.57,9.55,1.27,13.86,2.07h0a75.7,75.7,0,0,1,1-8h0c.37-2.05.81-4.07,1.35-6.06l.09-.32c.15-.53.29-1.07.45-1.59-5.49-1-11.1-1.85-16.72-2.46V288.16c12.95-.64,25.82-1.73,38.42-3.22h0c.57-.6,1.15-1.2,1.74-1.79h0l.15-.15h0c.64-.64,1.3-1.28,2-1.91h0c.37-.39.74-.76,1.11-1.14h0a72.6,72.6,0,0,1,20.38-15A517,517,0,0,1,266,272.18h-.16q-10.56.39-21.54.39t-21.53-.38h-.17c-107.22-3.87-180.16-35.91-180.16-64.84V189.28C75.83,222.39,162.09,240,244.27,240s168.45-17.57,201.87-50.68v18.07c0,15.9-22.05,32.73-59.69,45.32h0a90.85,90.85,0,0,1,11.51.92H398c.78.11,1.56.23,2.33.36h0c2.33.4,4.64.89,6.91,1.46h0c.76.19,1.51.39,2.26.6h0c1.5.42,3,.87,4.46,1.36h0c.73.24,1.47.49,2.2.76,27.17-13,44.33-30,44.33-50.8V158.44c0-52.95-111.44-81.53-216.29-81.53S28,105.49,28,158.44v48.91c0,48.1,92,76.09,187.45,80.81V323c-36.05,3.91-72.1,16-72.1,39.21v32.6c0,26.77,50.78,40.77,100.93,40.77,28.3,0,56.76-4.47,76.22-13.16-.81-.67-1.62-1.35-2.42-2ZM229.85,288.68c4.81.11,9.63.19,14.42.19s9.61-.08,14.42-.19V350a27.57,27.57,0,0,1-28.84,0ZM244.27,93.22c119,0,201.87,34.37,201.87,65.22s-82.91,65.22-201.87,65.22S42.41,189.29,42.41,158.44,125.32,93.22,244.27,93.22Z" transform="translate(-22.99 -71.91)"/></g></g><path class="cls-2" d="M385.05,290.77a58.35,58.35,0,1,0,58.36,58.35A58.34,58.34,0,0,0,385.05,290.77Zm-72.94,58.35a72.94,72.94,0,1,1,72.94,72.94A72.94,72.94,0,0,1,312.11,349.12Zm72.94-36.47a7.29,7.29,0,0,1,7.3,7.29v21.89h21.88a7.29,7.29,0,0,1,0,14.58H392.35V378.3a7.3,7.3,0,0,1-14.59,0V356.41H355.87a7.29,7.29,0,0,1,0-14.58h21.89V319.94A7.29,7.29,0,0,1,385.05,312.65Z" transform="translate(-22.99 -71.91)"/></svg>