<svg clip-rule="evenodd" fill-rule="evenodd" height="512" image-rendering="optimizeQuality" shape-rendering="geometricPrecision" text-rendering="geometricPrecision" viewBox="0 0 43.3492 43.3492" width="512" xmlns="http://www.w3.org/2000/svg"><g id="Layer_x0020_1"><g id="_215497384"><path id="_219524408" d="m1.533 21.491h7.324v21.858h-7.324z"/><path id="_219524048" d="m12.52 12.451h7.324v30.899h-7.324z"/><path id="_219523808" d="m23.506 21.491h7.324v21.858h-7.324z"/><path id="_219523904" d="m34.492 12.107h7.324v31.242h-7.324z"/><ellipse id="_219524504" cx="5.195" cy="12.915" rx="3.548" ry="3.548"/><ellipse id="_214079552" cx="16.182" cy="3.843" rx="3.548" ry="3.548"/><ellipse id="_215504560" cx="27.168" cy="12.941" rx="3.548" ry="3.548"/><ellipse id="_215497264" cx="38.154" cy="3.548" rx="3.548" ry="3.548"/><g fill-rule="nonzero"><path id="_215497000" d="m6.289 9.8073 6.9009-5.1665 1.1515 1.5353-6.9009 5.1665z"/><path id="_215496928" d="m19.5268 4.3141 6.1126 6.111-1.3547 1.3622-6.1125-6.111z"/><path id="_215496880" d="m28.9645 10.7843 6.2033-6.2033 1.3622 1.3622-6.2033 6.2033z"/></g></g></g></svg>