<svg id="Layer_1" data-name="Layer 1" xmlns="http://www.w3.org/2000/svg" viewBox="0 0 502.63 371.26"><defs><style>.cls-1{stroke:#000;stroke-miterlimit:10;stroke-width:10px;}</style></defs><g id="Page-1"><g id="_005---Cake-Stand" data-name="005---Cake-Stand"><path id="Shape" class="cls-1" d="M256,85.36c-119.4,0-246.31,28.77-246.31,82.1v49.26c0,48.45,104.75,76.63,213.47,81.39v35.13c-41,3.93-82.11,16.08-82.11,39.48v32.84c0,27,57.83,41.06,115,41.06s115-14.1,115-41.06V372.72c0-23.4-41.1-35.55-82.11-39.48V298.11c108.72-4.76,213.47-32.94,213.47-81.39V167.46C502.31,114.13,375.4,85.36,256,85.36Zm0,16.42c135.47,0,229.89,34.61,229.89,65.68S391.47,233.14,256,233.14,26.11,198.53,26.11,167.46,120.53,101.78,256,101.78Zm0,328.42c-61.12,0-98.53-15.95-98.53-24.64V395.24c21.52,12.6,61,18.54,98.53,18.54s77-5.94,98.53-18.54v10.32C354.53,414.25,317.12,430.2,256,430.2Zm98.53-57.48c0,8.69-37.41,24.63-98.53,24.63s-98.53-15.94-98.53-24.63c0-6.2,21.95-18.56,65.69-23v14.78a8.21,8.21,0,0,0,2.4,5.81A43.64,43.64,0,0,0,256,380.93a43.64,43.64,0,0,0,30.44-10.61,8.21,8.21,0,0,0,2.4-5.81V349.73C332.58,354.16,354.53,366.52,354.53,372.72Zm-82.11-12.31a34.91,34.91,0,0,1-32.84,0V298.63c5.48.12,11,.2,16.42.2s10.94-.08,16.42-.2Zm8.29-78.4h-.19q-12,.4-24.52.4T231.48,282h-.19c-122.12-3.89-205.18-36.16-205.18-65.3v-18.2c38.05,33.35,136.29,51,229.89,51s191.84-17.7,229.89-51v18.2c0,29.14-83.06,61.41-205.18,65.29Z" transform="translate(-4.69 -80.36)"/></g></g></svg>