<?xml version="1.0" encoding="UTF-8" standalone="no"?>
<!-- Created with Inkscape (http://www.inkscape.org/) -->

<svg
   version="1.1"
   id="svg2985"
   xml:space="preserve"
   width="682.66669"
   height="682.66669"
   viewBox="0 0 682.66669 682.66669"
   xmlns="http://www.w3.org/2000/svg"
   xmlns:svg="http://www.w3.org/2000/svg"><defs
     id="defs2989"><clipPath
       clipPathUnits="userSpaceOnUse"
       id="clipPath2999"><path
         d="M 0,512 H 512 V 0 H 0 Z"
         id="path2997" /></clipPath></defs><g
     id="g2991"
     transform="matrix(1.3333333,0,0,-1.3333333,0,682.66667)"><g
       id="g2993"><g
         id="g2995"
         clip-path="url(#clipPath2999)"><g
           id="g3001"
           transform="translate(247.0884,396.9453)"><path
             d="m 0,0 c -0.689,3.245 -1.088,6.599 -1.088,10.055 0,27.614 22.385,50 50,50 3.747,0 7.368,-0.484 10.88,-1.266 4.146,23.433 24.498,41.266 49.12,41.266 25.737,0 46.685,-19.52 49.447,-44.521 6.284,2.846 13.206,4.521 20.553,4.521 27.614,0 50,-22.386 50,-50 0,-24.646 -17.869,-45.008 -41.333,-49.127 12.871,-9.046 21.333,-23.947 21.333,-40.873 0,-10.019 -3.016,-19.305 -8.09,-27.127"
             style="fill:none;stroke:#000000;stroke-width:30;stroke-linecap:round;stroke-linejoin:round;stroke-miterlimit:10;stroke-dasharray:none;stroke-opacity:1"
             id="path3003" /></g><g
           id="g3005"
           transform="translate(366,407)"><path
             d="M 0,0 C 0,0 -4.758,-55.961 -42.767,-110.562"
             style="fill:none;stroke:#000000;stroke-width:30;stroke-linecap:round;stroke-linejoin:round;stroke-miterlimit:10;stroke-dasharray:none;stroke-opacity:1"
             id="path3007" /></g><g
           id="g3009"
           transform="translate(172.9717,393.6885)"><path
             d="M 0,0 -66.962,-4.019"
             style="fill:none;stroke:#000000;stroke-width:30;stroke-linecap:round;stroke-linejoin:round;stroke-miterlimit:10;stroke-dasharray:none;stroke-opacity:1"
             id="path3011" /></g><g
           id="g3013"
           transform="translate(202.9717,341.7275)"><path
             d="M 0,0 -66.962,-4.02"
             style="fill:none;stroke:#000000;stroke-width:30;stroke-linecap:round;stroke-linejoin:round;stroke-miterlimit:10;stroke-dasharray:none;stroke-opacity:1"
             id="path3015" /></g><g
           id="g3017"
           transform="translate(300.0698,258.1377)"><path
             d="m 0,0 c 15.923,14.604 25.93,35.544 25.93,58.862 0,44.183 -35.817,80 -80,80 -23.676,0 -44.883,-10.344 -59.531,-26.69"
             style="fill:none;stroke:#000000;stroke-width:30;stroke-linecap:round;stroke-linejoin:round;stroke-miterlimit:10;stroke-dasharray:none;stroke-opacity:1"
             id="path3019" /></g><g
           id="g3021"
           transform="translate(251.1953,257.2295)"><path
             d="m 0,0 c -0.945,2.219 -1.987,4.415 -3.224,6.556 l -100,173.205 c -16.568,28.697 -53.263,38.529 -81.961,21.962 h -0.001 c -28.697,-16.57 -38.529,-53.265 -21.96,-81.962 l 52.979,-91.763"
             style="fill:none;stroke:#000000;stroke-width:30;stroke-linecap:round;stroke-linejoin:round;stroke-miterlimit:10;stroke-dasharray:none;stroke-opacity:1"
             id="path3023" /></g><path
           d="M 366,100 H 166 v 80 h 200 z"
           style="fill:none;stroke:#000000;stroke-width:30;stroke-linecap:round;stroke-linejoin:round;stroke-miterlimit:10;stroke-dasharray:none;stroke-opacity:1"
           id="path3025" /><g
           id="g3027"
           transform="translate(466,297)"><path
             d="m 0,0 c -40.221,-16.759 -110.239,-40 -200,-40 -43.573,0 -117.144,5.477 -200,40 9.044,-84.413 18.088,-170.463 27.133,-255.188 1.628,-15.25 14.494,-26.812 29.83,-26.812 h 286.059 c 15.34,0 28.209,11.572 29.832,26.826 z"
             style="fill:none;stroke:#000000;stroke-width:30;stroke-linecap:round;stroke-linejoin:round;stroke-miterlimit:10;stroke-dasharray:none;stroke-opacity:1"
             id="path3029" /></g></g></g></g></svg>
