<svg width="28" height="28" viewBox="0 0 28 28" fill="none" xmlns="http://www.w3.org/2000/svg">
<g clip-path="url(#clip0_339_4819)">
<path fill-rule="evenodd" clip-rule="evenodd" d="M27.174 5.20275C27.4176 5.29998 27.6265 5.46799 27.7738 5.68509C27.921 5.90219 27.9998 6.15843 28 6.42075V21.5792C27.9998 21.8416 27.921 22.0978 27.7738 22.3149C27.6265 22.532 27.4176 22.7 27.174 22.7972L14.4865 27.8722C14.1736 27.9974 13.8246 27.9974 13.5118 27.8722L0.82425 22.7972C0.580946 22.6997 0.372409 22.5316 0.225506 22.3145C0.0786023 22.0975 6.10049e-05 21.8414 0 21.5792L0 6.42075C6.10049e-05 6.15863 0.0786023 5.90254 0.225506 5.68546C0.372409 5.46838 0.580946 5.30026 0.82425 5.20275L13.0252 0.321999L13.0323 0.320249L13.5118 0.127749C13.8251 0.0021559 14.1749 0.0021559 14.4883 0.127749L14.9678 0.320249L14.9748 0.321999L27.174 5.20275ZM24.7695 6.125L14 10.4335L3.2305 6.125L1.75 6.71825V7.41825L13.125 11.9682V25.8317L14 26.1817L14.875 25.8317V11.97L26.25 7.42V6.72L24.7695 6.125Z" fill="#58647A"/>
</g>
<defs>
<clipPath id="clip0_339_4819">
<rect width="28" height="28" fill="white"/>
</clipPath>
</defs>
</svg>
