<svg width="18" height="18" viewBox="0 0 18 18" fill="none" xmlns="http://www.w3.org/2000/svg">
<path d="M10.6875 14.625C10.6875 15.0726 10.5097 15.5018 10.1932 15.8182C9.87678 16.1347 9.44755 16.3125 9 16.3125C8.55245 16.3125 8.12322 16.1347 7.80676 15.8182C7.49029 15.5018 7.3125 15.0726 7.3125 14.625C7.3125 14.1774 7.49029 13.7482 7.80676 13.4318C8.12322 13.1153 8.55245 12.9375 9 12.9375C9.44755 12.9375 9.87678 13.1153 10.1932 13.4318C10.5097 13.7482 10.6875 14.1774 10.6875 14.625ZM10.6875 9C10.6875 9.44755 10.5097 9.87678 10.1932 10.1932C9.87678 10.5097 9.44755 10.6875 9 10.6875C8.55245 10.6875 8.12322 10.5097 7.80676 10.1932C7.49029 9.87678 7.3125 9.44755 7.3125 9C7.3125 8.55245 7.49029 8.12322 7.80676 7.80676C8.12322 7.49029 8.55245 7.3125 9 7.3125C9.44755 7.3125 9.87678 7.49029 10.1932 7.80676C10.5097 8.12322 10.6875 8.55245 10.6875 9ZM10.6875 3.375C10.6875 3.82255 10.5097 4.25178 10.1932 4.56824C9.87678 4.88471 9.44755 5.0625 9 5.0625C8.55245 5.0625 8.12322 4.88471 7.80676 4.56824C7.49029 4.25178 7.3125 3.82255 7.3125 3.375C7.3125 2.92745 7.49029 2.49822 7.80676 2.18176C8.12322 1.86529 8.55245 1.6875 9 1.6875C9.44755 1.6875 9.87678 1.86529 10.1932 2.18176C10.5097 2.49822 10.6875 2.92745 10.6875 3.375Z" fill="#004671"/>
</svg>
