<svg width="28" height="28" viewBox="0 0 28 28" fill="none" xmlns="http://www.w3.org/2000/svg">
<path d="M23.3332 14C23.3332 12.7132 22.2867 11.6667 20.9998 11.6667H19.8332V8.16667C19.8332 4.95017 17.2163 2.33333 13.9998 2.33333C10.7833 2.33333 8.1665 4.95017 8.1665 8.16667V11.6667H6.99984C5.713 11.6667 4.6665 12.7132 4.6665 14V23.3333C4.6665 24.6202 5.713 25.6667 6.99984 25.6667H20.9998C22.2867 25.6667 23.3332 24.6202 23.3332 23.3333V14ZM10.4998 8.16667C10.4998 6.237 12.0702 4.66667 13.9998 4.66667C15.9295 4.66667 17.4998 6.237 17.4998 8.16667V11.6667H10.4998V8.16667Z" fill="#58647A"/>
</svg>
