<svg width="64" height="96" viewBox="0 0 64 96" fill="none" xmlns="http://www.w3.org/2000/svg">
<path d="M22.2202 54.22C22.0932 54.347 22.016 54.5153 22.0026 54.6944C21.9892 54.8736 22.0405 55.0515 22.1472 55.196L22.2202 55.28L26.2542 59.315C24.2873 60.6936 22.8831 62.735 22.2992 65.065C22.2542 65.2568 22.2865 65.4586 22.389 65.6268C22.4916 65.795 22.6562 65.9161 22.8474 65.964C23.0385 66.0118 23.2407 65.9825 23.4104 65.8824C23.5801 65.7823 23.7036 65.6194 23.7542 65.429C24.2731 63.361 25.5511 61.5639 27.3342 60.395L29.1442 62.205C28.4212 62.9605 28.0228 63.9691 28.0343 65.0147C28.0459 66.0604 28.4664 67.0599 29.2059 67.7993C29.9454 68.5386 30.945 68.959 31.9907 68.9704C33.0363 68.9817 34.0449 68.5831 34.8002 67.86L40.7192 73.78C40.853 73.9142 41.0327 73.9927 41.2221 73.9999C41.4115 74.007 41.5965 73.9421 41.7401 73.8184C41.8836 73.6946 41.9749 73.5211 41.9957 73.3327C42.0166 73.1444 41.9653 72.9551 41.8522 72.803L41.7792 72.719L35.6662 66.605L35.6672 66.603L28.7172 59.657L28.7192 59.655L27.5862 58.525L23.2802 54.22C23.1396 54.0795 22.949 54.0007 22.7502 54.0007C22.5515 54.0007 22.3608 54.0795 22.2202 54.22ZM32.0002 57.5C31.0002 57.5 30.0302 57.648 29.1112 57.925L30.3482 59.161C32.4878 58.7374 34.7083 59.1521 36.5507 60.3194C38.3931 61.4868 39.7165 63.3175 40.2472 65.433C40.299 65.6219 40.4227 65.7831 40.5918 65.882C40.7609 65.9809 40.962 66.0098 41.1521 65.9623C41.3421 65.9149 41.5061 65.795 41.6089 65.6283C41.7117 65.4615 41.7452 65.2611 41.7022 65.07C41.1599 62.9075 39.9108 60.9881 38.153 59.6166C36.3953 58.2451 34.2297 57.5001 32.0002 57.5ZM32.1952 61.01L35.9962 64.81C35.9471 63.8179 35.5308 62.8795 34.8283 62.1772C34.1258 61.4749 33.1873 61.0589 32.1952 61.01Z" fill="#58647A"/>
<path d="M32.0002 29.005C33.0611 29.005 34.0785 29.4264 34.8286 30.1766C35.5788 30.9267 36.0002 31.9441 36.0002 33.005C36.0002 34.0659 35.5788 35.0833 34.8286 35.8334C34.0785 36.5836 33.0611 37.005 32.0002 37.005C30.9393 37.005 29.9219 36.5836 29.1718 35.8334C28.4216 35.0833 28.0002 34.0659 28.0002 33.005C28.0002 31.9441 28.4216 30.9267 29.1718 30.1766C29.9219 29.4264 30.9393 29.005 32.0002 29.005ZM32.0002 25.5C36.6132 25.5 40.5962 28.65 41.7012 33.064C41.7496 33.2569 41.7194 33.4612 41.6172 33.6319C41.5149 33.8025 41.3491 33.9256 41.1562 33.974C40.9632 34.0224 40.759 33.9922 40.5883 33.89C40.4177 33.7878 40.2946 33.6219 40.2462 33.429C39.7832 31.5925 38.7204 29.9631 37.2262 28.7991C35.7321 27.6352 33.8921 27.0034 31.9981 27.0038C30.1041 27.0043 28.2645 27.637 26.7709 28.8017C25.2773 29.9663 24.2153 31.5962 23.7532 33.433C23.7294 33.5286 23.6869 33.6186 23.6283 33.6978C23.5697 33.777 23.4961 33.8439 23.4116 33.8946C23.3272 33.9454 23.2335 33.979 23.1361 33.9935C23.0386 34.0081 22.9393 34.0033 22.8437 33.9795C22.7481 33.9557 22.6581 33.9132 22.5789 33.8546C22.4997 33.796 22.4328 33.7224 22.3821 33.6379C22.3313 33.5535 22.2977 33.4599 22.2831 33.3624C22.2686 33.265 22.2734 33.1656 22.2972 33.07C22.8395 30.9073 24.0888 28.9878 25.8468 27.6163C27.6047 26.2448 29.7705 25.4999 32.0002 25.5Z" fill="#58647A"/>
<rect x="0.5" y="0.5" width="63" height="95" rx="4.5" stroke="#9747FF" stroke-dasharray="10 5"/>
</svg>
