<svg width="28" height="28" viewBox="0 0 28 28" fill="none" xmlns="http://www.w3.org/2000/svg">
<path d="M25.7585 2.8H2.2399C1.7751 2.8 1.3999 3.1738 1.3999 3.64V7H26.5999V3.64C26.5999 3.52957 26.5781 3.42022 26.5358 3.31822C26.4935 3.21621 26.4315 3.12355 26.3534 3.04553C26.2752 2.96751 26.1825 2.90567 26.0804 2.86354C25.9783 2.8214 25.8689 2.79981 25.7585 2.8ZM2.7999 23.24C2.7999 24.318 3.6805 25.2 4.7585 25.2H23.2385C24.3165 25.2 25.1985 24.3166 25.1985 23.24V8.4H2.7999V23.24ZM9.7999 11.2H18.1999V14H9.7999V11.2Z" fill="#58647A"/>
</svg>
