<svg width="28" height="28" viewBox="0 0 28 28" fill="none" xmlns="http://www.w3.org/2000/svg">
<path d="M17.4997 18.6667H10.4997C10.1903 18.6667 9.89351 18.7896 9.67472 19.0084C9.45592 19.2272 9.33301 19.5239 9.33301 19.8333C9.33301 20.1428 9.45592 20.4395 9.67472 20.6583C9.89351 20.8771 10.1903 21 10.4997 21H17.4997C17.8091 21 18.1058 20.8771 18.3246 20.6583C18.5434 20.4395 18.6663 20.1428 18.6663 19.8333C18.6663 19.5239 18.5434 19.2272 18.3246 19.0084C18.1058 18.7896 17.8091 18.6667 17.4997 18.6667ZM10.4997 16.3333H13.9997C14.3091 16.3333 14.6058 16.2104 14.8246 15.9916C15.0434 15.7728 15.1663 15.4761 15.1663 15.1667C15.1663 14.8572 15.0434 14.5605 14.8246 14.3417C14.6058 14.1229 14.3091 14 13.9997 14H10.4997C10.1903 14 9.89351 14.1229 9.67472 14.3417C9.45592 14.5605 9.33301 14.8572 9.33301 15.1667C9.33301 15.4761 9.45592 15.7728 9.67472 15.9916C9.89351 16.2104 10.1903 16.3333 10.4997 16.3333Z" fill="#58647A"/>
<path d="M23.0298 9.71833L16.6832 2.71833C16.5741 2.59747 16.4409 2.50078 16.2922 2.43448C16.1436 2.36817 15.9826 2.33372 15.8198 2.33333H7.65317C7.26554 2.32871 6.88081 2.40049 6.52092 2.54456C6.16104 2.68864 5.83306 2.9022 5.55572 3.17305C5.27837 3.44389 5.0571 3.76671 4.90453 4.12308C4.75195 4.47944 4.67107 4.86237 4.6665 5.25V22.75C4.67107 23.1376 4.75195 23.5206 4.90453 23.8769C5.0571 24.2333 5.27837 24.5561 5.55572 24.827C5.83306 25.0978 6.16104 25.3114 6.52092 25.4554C6.88081 25.5995 7.26554 25.6713 7.65317 25.6667H20.3465C20.7341 25.6713 21.1189 25.5995 21.4788 25.4554C21.8386 25.3114 22.1666 25.0978 22.444 24.827C22.7213 24.5561 22.9426 24.2333 23.0952 23.8769C23.2477 23.5206 23.3286 23.1376 23.3332 22.75V10.5C23.3324 10.2109 23.2243 9.9323 23.0298 9.71833ZM16.3332 5.83333L19.5298 9.33333H17.1965C17.0743 9.32596 16.9549 9.29432 16.845 9.24027C16.7352 9.18622 16.6373 9.11084 16.5569 9.01852C16.4765 8.92621 16.4154 8.81881 16.3769 8.7026C16.3385 8.58639 16.3237 8.46369 16.3332 8.34167V5.83333ZM20.3465 23.3333H7.65317C7.57194 23.3381 7.49058 23.3267 7.41374 23.2999C7.33691 23.2732 7.26611 23.2315 7.20542 23.1773C7.14472 23.1231 7.09532 23.0575 7.06004 22.9841C7.02477 22.9108 7.00431 22.8312 6.99984 22.75V5.25C7.00431 5.16875 7.02477 5.08919 7.06004 5.01587C7.09532 4.94255 7.14472 4.87691 7.20542 4.82272C7.26611 4.76852 7.33691 4.72684 7.41374 4.70007C7.49058 4.67329 7.57194 4.66194 7.65317 4.66667H13.9998V8.34167C13.981 9.20106 14.3029 10.033 14.8952 10.6559C15.4876 11.2789 16.3023 11.6422 17.1615 11.6667H20.9998V22.75C20.9954 22.8312 20.9749 22.9108 20.9396 22.9841C20.9044 23.0575 20.855 23.1231 20.7943 23.1773C20.7336 23.2315 20.6628 23.2732 20.5859 23.2999C20.5091 23.3267 20.4277 23.3381 20.3465 23.3333Z" fill="#58647A"/>
</svg>
