<svg width="28" height="28" viewBox="0 0 28 28" fill="none" xmlns="http://www.w3.org/2000/svg">
<path d="M21 4.66667H19.8333V3.5C19.8333 3.19058 19.7104 2.89384 19.4916 2.67504C19.2728 2.45625 18.9761 2.33334 18.6667 2.33334C18.3572 2.33334 18.0605 2.45625 17.8417 2.67504C17.6229 2.89384 17.5 3.19058 17.5 3.5V4.66667H10.5V3.5C10.5 3.19058 10.3771 2.89384 10.1583 2.67504C9.9395 2.45625 9.64275 2.33334 9.33333 2.33334C9.02391 2.33334 8.72717 2.45625 8.50838 2.67504C8.28958 2.89384 8.16667 3.19058 8.16667 3.5V4.66667H7C6.07174 4.66667 5.1815 5.03542 4.52513 5.6918C3.86875 6.34817 3.5 7.23841 3.5 8.16667V22.1667C3.5 23.0949 3.86875 23.9852 4.52513 24.6415C5.1815 25.2979 6.07174 25.6667 7 25.6667H21C21.9283 25.6667 22.8185 25.2979 23.4749 24.6415C24.1313 23.9852 24.5 23.0949 24.5 22.1667V8.16667C24.5 7.23841 24.1313 6.34817 23.4749 5.6918C22.8185 5.03542 21.9283 4.66667 21 4.66667ZM9.33333 19.8333C9.10259 19.8333 8.87703 19.7649 8.68517 19.6367C8.49331 19.5085 8.34378 19.3263 8.25547 19.1131C8.16717 18.9 8.14407 18.6654 8.18908 18.4391C8.2341 18.2128 8.34521 18.0049 8.50838 17.8417C8.67154 17.6785 8.87942 17.5674 9.10573 17.5224C9.33204 17.4774 9.56662 17.5005 9.7798 17.5888C9.99298 17.6771 10.1752 17.8266 10.3034 18.0185C10.4316 18.2104 10.5 18.4359 10.5 18.6667C10.5 18.9761 10.3771 19.2728 10.1583 19.4916C9.9395 19.7104 9.64275 19.8333 9.33333 19.8333ZM18.6667 19.8333H14C13.6906 19.8333 13.3938 19.7104 13.175 19.4916C12.9562 19.2728 12.8333 18.9761 12.8333 18.6667C12.8333 18.3573 12.9562 18.0605 13.175 17.8417C13.3938 17.6229 13.6906 17.5 14 17.5H18.6667C18.9761 17.5 19.2728 17.6229 19.4916 17.8417C19.7104 18.0605 19.8333 18.3573 19.8333 18.6667C19.8333 18.9761 19.7104 19.2728 19.4916 19.4916C19.2728 19.7104 18.9761 19.8333 18.6667 19.8333ZM22.1667 12.8333H5.83333V8.16667C5.83333 7.85725 5.95625 7.5605 6.17504 7.34171C6.39383 7.12292 6.69058 7 7 7H8.16667V8.16667C8.16667 8.47609 8.28958 8.77283 8.50838 8.99163C8.72717 9.21042 9.02391 9.33334 9.33333 9.33334C9.64275 9.33334 9.9395 9.21042 10.1583 8.99163C10.3771 8.77283 10.5 8.47609 10.5 8.16667V7H17.5V8.16667C17.5 8.47609 17.6229 8.77283 17.8417 8.99163C18.0605 9.21042 18.3572 9.33334 18.6667 9.33334C18.9761 9.33334 19.2728 9.21042 19.4916 8.99163C19.7104 8.77283 19.8333 8.47609 19.8333 8.16667V7H21C21.3094 7 21.6062 7.12292 21.825 7.34171C22.0438 7.5605 22.1667 7.85725 22.1667 8.16667V12.8333Z" fill="#58647A"/>
</svg>
