<svg width="16" height="16" viewBox="0 0 16 16" fill="none" xmlns="http://www.w3.org/2000/svg">
<g clip-path="url(#clip0_339_4525)">
<path d="M8 1.75C11.4541 1.75 14.25 4.54534 14.25 8C14.25 11.4541 11.4547 14.25 8 14.25C4.54588 14.25 1.75 11.4547 1.75 8C1.75 4.54588 4.54534 1.75 8 1.75ZM8 0.25C3.71978 0.25 0.25 3.71978 0.25 8C0.25 12.2802 3.71978 15.75 8 15.75C12.2802 15.75 15.75 12.2802 15.75 8C15.75 3.71978 12.2802 0.25 8 0.25ZM8 5.5C6.61928 5.5 5.5 6.61928 5.5 8C5.5 9.38072 6.61928 10.5 8 10.5C9.38072 10.5 10.5 9.38072 10.5 8C10.5 6.61928 9.38072 5.5 8 5.5Z" fill="#0074BD"/>
</g>
<defs>
<clipPath id="clip0_339_4525">
<rect width="16" height="16" fill="white"/>
</clipPath>
</defs>
</svg>
