<svg width="28" height="24" viewBox="0 0 28 24" fill="none" xmlns="http://www.w3.org/2000/svg">
<g clip-path="url(#clip0_339_4003)">
<path d="M23.4062 1.92187C22.995 1.48125 22.995 0.768748 23.4062 0.33281C23.8175 -0.103127 24.4825 -0.107815 24.8894 0.33281L27.6894 3.33281C27.8863 3.54375 27.9956 3.82969 27.9956 4.12969C27.9956 4.42969 27.8863 4.71562 27.6894 4.92656L24.8894 7.92656C24.4781 8.36719 23.8131 8.36719 23.4062 7.92656C22.9994 7.48594 22.995 6.77344 23.4062 6.3375L24.4125 5.25937L16.8 5.25C16.2181 5.25 15.75 4.74844 15.75 4.125C15.75 3.50156 16.2181 3 16.8 3H24.4169L23.4062 1.92187ZM4.59375 17.6719L3.5875 18.75H11.2C11.7819 18.75 12.25 19.2516 12.25 19.875C12.25 20.4984 11.7819 21 11.2 21H3.58313L4.58938 22.0781C5.00063 22.5187 5.00063 23.2312 4.58938 23.6672C4.17812 24.1031 3.51312 24.1078 3.10625 23.6672L0.30625 20.6719C0.109375 20.4609 0 20.175 0 19.875C0 19.575 0.109375 19.2891 0.30625 19.0781L3.10625 16.0781C3.5175 15.6375 4.1825 15.6375 4.58938 16.0781C4.99625 16.5187 5.00063 17.2312 4.58938 17.6672L4.59375 17.6719ZM4.2 3H14.7831C14.6212 3.3375 14.525 3.71719 14.525 4.125C14.525 5.47031 15.5444 6.5625 16.8 6.5625H21.9362C21.7612 7.35937 21.9625 8.22656 22.54 8.85C23.4281 9.80156 24.8675 9.80156 25.7556 8.85L26.6 7.94531V18C26.6 19.6547 25.3444 21 23.8 21H13.2169C13.3787 20.6625 13.475 20.2828 13.475 19.875C13.475 18.5297 12.4556 17.4375 11.2 17.4375H6.06375C6.23875 16.6406 6.0375 15.7734 5.46 15.15C4.57188 14.1984 3.1325 14.1984 2.24437 15.15L1.4 16.0547V6C1.4 4.34531 2.65563 3 4.2 3ZM7 6H4.2V9C5.74437 9 7 7.65469 7 6ZM23.8 15C22.2556 15 21 16.3453 21 18H23.8V15ZM14 16.5C15.1139 16.5 16.1822 16.0259 16.9698 15.182C17.7575 14.3381 18.2 13.1935 18.2 12C18.2 10.8065 17.7575 9.66193 16.9698 8.81802C16.1822 7.9741 15.1139 7.5 14 7.5C12.8861 7.5 11.8178 7.9741 11.0302 8.81802C10.2425 9.66193 9.8 10.8065 9.8 12C9.8 13.1935 10.2425 14.3381 11.0302 15.182C11.8178 16.0259 12.8861 16.5 14 16.5Z" fill="#58647A"/>
</g>
<defs>
<clipPath id="clip0_339_4003">
<rect width="28" height="24" fill="white"/>
</clipPath>
</defs>
</svg>
