<svg width="24" height="24" viewBox="0 0 24 24" fill="none" xmlns="http://www.w3.org/2000/svg">
<g clip-path="url(#clip0_845_12318)">
<path d="M21.26 12.8179H17.4431V10.9095H21.26V12.8179ZM21.26 13.9084H17.4431V15.8169H21.26V13.9084ZM21.26 4.91151H17.4431V6.81994H21.26V4.91151ZM21.26 7.91048H17.4431V9.8189H21.26V7.91048ZM21.26 16.9074H17.4431V18.8159H21.26V16.9073V16.9074ZM23.8964 20.6698C23.7873 21.2369 23.1057 21.2505 22.6504 21.2696H14.1715V23.7232H12.4785L0 21.5422V2.46056L12.5521 0.276749H14.1715V2.44964H22.3587C22.8195 2.46872 23.3266 2.436 23.7273 2.71134C24.0082 3.11484 23.9809 3.62742 24 4.09087L23.9891 18.2842C23.9755 19.0776 24.0627 19.8873 23.8964 20.6698ZM9.99745 16.3921C9.24502 14.8654 8.47894 13.3495 7.72917 11.8228C8.47073 10.3369 9.20142 8.84564 9.92934 7.35431C9.31045 7.38431 8.69156 7.42247 8.07544 7.46611C7.61466 8.58661 7.07756 9.67715 6.7177 10.8359C6.38236 9.74259 5.93798 8.6902 5.53177 7.62422C4.93195 7.65694 4.33214 7.69237 3.73238 7.72781C4.36486 9.12375 5.03831 10.5005 5.65172 11.9046C4.92923 13.2677 4.25311 14.65 3.55242 16.0214C4.14947 16.0459 4.74656 16.0704 5.34361 16.0786C5.76895 14.9935 6.29784 13.9493 6.66863 12.8424C7.00125 14.0311 7.56558 15.1298 8.02908 16.2667C8.68612 16.3131 9.34041 16.354 9.99745 16.3921ZM22.6997 3.74447H14.1715V4.91151H16.3526V6.81994H14.1715V7.91048H16.3526V9.8189H14.1715V10.9095H16.3526V12.8179H14.1715V13.9084H16.3526V15.8169H14.1715V16.9074H16.3526V18.8159H14.1715V20.0767H22.6997V3.74447Z" fill="white"/>
</g>
<defs>
<clipPath id="clip0_845_12318">
<rect width="24" height="24" fill="white"/>
</clipPath>
</defs>
</svg>
