<svg width="28" height="28" viewBox="0 0 28 28" fill="none" xmlns="http://www.w3.org/2000/svg">
<path d="M6.71162 25.6725C6.01542 25.6725 5.34774 25.3959 4.85546 24.9037C4.36318 24.4114 4.08662 23.7437 4.08662 23.0475L4.08545 6.70834C4.08545 6.01214 4.36201 5.34446 4.85429 4.85218C5.34658 4.3599 6.01426 4.08334 6.71045 4.08334L7.58195 4.08217V3.20834C7.582 2.99672 7.65873 2.79229 7.79795 2.63291C7.93717 2.47353 8.12942 2.37 8.33912 2.3415L8.45812 2.33334C8.66956 2.33335 8.87385 2.40992 9.0332 2.5489C9.19255 2.68788 9.29619 2.87986 9.32495 3.08934L9.33312 3.20834L9.33195 4.08217H12.8331V3.20834C12.8332 2.99672 12.9099 2.79229 13.0491 2.63291C13.1883 2.47353 13.3806 2.37 13.5903 2.3415L13.7081 2.33334C13.9198 2.33306 14.1243 2.40951 14.2839 2.54851C14.4435 2.68752 14.5473 2.87966 14.5761 3.08934L14.5843 3.20834L14.5831 4.08217H18.0808V3.20834C18.0808 2.99672 18.1576 2.79229 18.2968 2.63291C18.436 2.47353 18.6283 2.37 18.8379 2.3415L18.9581 2.33334C19.1696 2.33335 19.3738 2.40992 19.5332 2.5489C19.6926 2.68788 19.7962 2.87986 19.8249 3.08934L19.8331 3.20834L19.8319 4.08217H20.7069C21.4031 4.08217 22.0708 4.35873 22.5631 4.85101C23.0554 5.3433 23.3319 6.01098 23.3319 6.70717V13.2253C22.7854 12.9662 22.188 12.8323 21.5831 12.8333L21.5819 6.70834C21.5819 6.59333 21.5593 6.47945 21.5152 6.37322C21.4712 6.26698 21.4066 6.17047 21.3253 6.08921C21.2439 6.00794 21.1473 5.94351 21.041 5.89961C20.9347 5.8557 20.8208 5.83318 20.7058 5.83334H6.69878C6.46875 5.8364 6.24917 5.92994 6.08759 6.09371C5.92601 6.25747 5.83543 6.47828 5.83545 6.70834L5.83662 23.0463C5.83662 23.5305 6.22862 23.9213 6.71162 23.9213H15.2283C15.3309 24.535 15.5666 25.1323 15.9458 25.6713L6.71162 25.6725ZM8.45812 18.6667H13.1224C13.3441 18.6667 13.5575 18.751 13.7195 18.9023C13.8815 19.0537 13.98 19.2609 13.9951 19.482C14.0103 19.7032 13.9408 19.9219 13.8009 20.0939C13.661 20.2658 13.4611 20.3783 13.2414 20.4085L13.1224 20.4167H8.45812C8.23642 20.4166 8.02302 20.3324 7.86103 20.181C7.69903 20.0297 7.60053 19.8225 7.58542 19.6013C7.57031 19.3801 7.63972 19.1615 7.77962 18.9895C7.91952 18.8175 8.11949 18.7051 8.33912 18.6748L8.45812 18.6667ZM8.45812 9.33334H18.9558C19.1775 9.3334 19.3909 9.41762 19.5529 9.56897C19.7149 9.72032 19.8134 9.92752 19.8285 10.1487C19.8436 10.3699 19.7742 10.5885 19.6343 10.7605C19.4944 10.9325 19.2944 11.045 19.0748 11.0752L18.9558 11.0833H8.45812C8.23642 11.0833 8.02302 10.9991 7.86103 10.8477C7.69903 10.6964 7.60053 10.4892 7.58542 10.268C7.57031 10.0468 7.63972 9.82813 7.77962 9.65615C7.91952 9.48418 8.11949 9.37172 8.33912 9.3415L8.45812 9.33334ZM21.5831 19.8333C22.3567 19.8333 23.0985 19.526 23.6455 18.9791C24.1925 18.4321 24.4998 17.6902 24.4998 16.9167C24.4998 16.1431 24.1925 15.4013 23.6455 14.8543C23.0985 14.3073 22.3567 14 21.5831 14C20.8096 14 20.0677 14.3073 19.5207 14.8543C18.9737 15.4013 18.6664 16.1431 18.6664 16.9167C18.6664 17.6902 18.9737 18.4321 19.5207 18.9791C20.0677 19.526 20.8096 19.8333 21.5831 19.8333ZM21.5831 26.8333C25.3328 26.8333 26.8331 25.0028 26.8331 23.1875V23.0673C26.8331 21.9252 25.9068 21 24.7646 21H18.4016C17.2583 21 16.3331 21.9252 16.3331 23.0673V23.1875C16.3331 25.0098 17.8334 26.8333 21.5831 26.8333ZM8.45812 14C8.22605 14 8.00349 14.0922 7.8394 14.2563C7.6753 14.4204 7.58312 14.6429 7.58312 14.875C7.58312 15.1071 7.6753 15.3296 7.8394 15.4937C8.00349 15.6578 8.22605 15.75 8.45812 15.75H15.4581C15.6902 15.75 15.9127 15.6578 16.0768 15.4937C16.2409 15.3296 16.3331 15.1071 16.3331 14.875C16.3331 14.6429 16.2409 14.4204 16.0768 14.2563C15.9127 14.0922 15.6902 14 15.4581 14H8.45812Z" fill="#58647A"/>
</svg>
