<svg width="28" height="28" viewBox="0 0 28 28" fill="none" xmlns="http://www.w3.org/2000/svg">
<path d="M18.9581 2.33333C19.1696 2.33334 19.3738 2.40991 19.5332 2.54889C19.6926 2.68787 19.7962 2.87985 19.8249 3.08933L19.8331 3.20833L19.8319 4.08217H20.7069C21.4031 4.08217 22.0708 4.35873 22.5631 4.85101C23.0554 5.34329 23.3319 6.01097 23.3319 6.70717V13.2253C22.459 12.8104 21.4671 12.7186 20.5328 12.9663C19.5985 13.214 18.7823 13.785 18.2295 14.5779C17.6767 15.3708 17.4231 16.3341 17.5138 17.2964C17.6044 18.2587 18.0336 19.1577 18.7248 19.8333H18.4004C17.9758 19.8333 17.5552 19.917 17.1629 20.0795C16.7705 20.242 16.414 20.4802 16.1137 20.7805C15.8134 21.0809 15.5751 21.4374 15.4126 21.8297C15.2501 22.2221 15.1664 22.6426 15.1664 23.0673V23.1875C15.1664 24.052 15.4173 24.9177 15.9458 25.6725H6.71162C6.01542 25.6725 5.34774 25.3959 4.85546 24.9037C4.36318 24.4114 4.08662 23.7437 4.08662 23.0475L4.08545 6.70833C4.08545 6.01214 4.36201 5.34446 4.85429 4.85218C5.34658 4.35989 6.01426 4.08333 6.71045 4.08333L7.58195 4.08217V3.20833C7.57968 2.98506 7.66285 2.76937 7.81443 2.60542C7.96601 2.44147 8.17454 2.34167 8.3973 2.32647C8.62007 2.31126 8.84022 2.38179 9.01268 2.52361C9.18514 2.66543 9.29685 2.86782 9.32495 3.08933L9.33312 3.20833L9.33195 4.08217H12.8331V3.20833C12.8308 2.98506 12.914 2.76937 13.0656 2.60542C13.2172 2.44147 13.4257 2.34167 13.6485 2.32647C13.8712 2.31126 14.0914 2.38179 14.2638 2.52361C14.4363 2.66543 14.548 2.86782 14.5761 3.08933L14.5843 3.20833L14.5831 4.08217H18.0808V3.20833C18.0808 2.97627 18.173 2.75371 18.3371 2.58961C18.5012 2.42552 18.7237 2.33333 18.9558 2.33333H18.9581ZM13.1224 18.6667H8.45812L8.33912 18.6748C8.12968 18.7036 7.93777 18.8073 7.79884 18.9667C7.65992 19.126 7.58338 19.3303 7.58338 19.5417C7.58338 19.7531 7.65992 19.9573 7.79884 20.1167C7.93777 20.276 8.12968 20.3797 8.33912 20.4085L8.45812 20.4167H13.1224L13.2414 20.4085C13.4509 20.3797 13.6428 20.276 13.7817 20.1167C13.9206 19.9573 13.9972 19.7531 13.9972 19.5417C13.9972 19.3303 13.9206 19.126 13.7817 18.9667C13.6428 18.8073 13.4509 18.7036 13.2414 18.6748L13.1224 18.6667ZM18.9558 9.33333H8.45812L8.33912 9.3415C8.12968 9.37031 7.93777 9.47398 7.79884 9.63333C7.65992 9.79267 7.58338 9.99693 7.58338 10.2083C7.58338 10.4197 7.65992 10.624 7.79884 10.7833C7.93777 10.9427 8.12968 11.0463 8.33912 11.0752L8.45812 11.0833H18.9558L19.0748 11.0752C19.2842 11.0463 19.4761 10.9427 19.6151 10.7833C19.754 10.624 19.8305 10.4197 19.8305 10.2083C19.8305 9.99693 19.754 9.79267 19.6151 9.63333C19.4761 9.47398 19.2842 9.37031 19.0748 9.3415L18.9558 9.33333ZM7.58312 14.875C7.58312 15.358 7.97512 15.75 8.45812 15.75H15.4581C15.6902 15.75 15.9127 15.6578 16.0768 15.4937C16.2409 15.3296 16.3331 15.1071 16.3331 14.875C16.3331 14.6429 16.2409 14.4204 16.0768 14.2563C15.9127 14.0922 15.6902 14 15.4581 14H8.45812C8.22605 14 8.00349 14.0922 7.8394 14.2563C7.6753 14.4204 7.58312 14.6429 7.58312 14.875ZM24.4998 16.9167C24.4998 17.6902 24.1925 18.4321 23.6455 18.9791C23.0985 19.526 22.3567 19.8333 21.5831 19.8333C20.8096 19.8333 20.0677 19.526 19.5207 18.9791C18.9737 18.4321 18.6664 17.6902 18.6664 16.9167C18.6664 16.1431 18.9737 15.4013 19.5207 14.8543C20.0677 14.3073 20.8096 14 21.5831 14C22.3567 14 23.0985 14.3073 23.6455 14.8543C24.1925 15.4013 24.4998 16.1431 24.4998 16.9167ZM26.8331 23.1875C26.8331 25.0028 25.3328 26.8333 21.5831 26.8333C17.8334 26.8333 16.3331 25.0098 16.3331 23.1875V23.0673C16.3331 21.924 17.2594 21 18.4016 21H24.7646C25.9079 21 26.8331 21.9252 26.8331 23.0673V23.1875Z" fill="#58647A"/>
</svg>
