<svg width="28" height="28" viewBox="0 0 28 28" fill="none" xmlns="http://www.w3.org/2000/svg">
<path d="M13.9998 2.33334C12.7622 2.33334 11.5752 2.825 10.7 3.70017C9.82484 4.57534 9.33317 5.76233 9.33317 7C9.33317 8.23768 9.82484 9.42466 10.7 10.2998C11.5752 11.175 12.7622 11.6667 13.9998 11.6667C15.2375 11.6667 16.4245 11.175 17.2997 10.2998C18.1748 9.42466 18.6665 8.23768 18.6665 7C18.6665 5.76233 18.1748 4.57534 17.2997 3.70017C16.4245 2.825 15.2375 2.33334 13.9998 2.33334ZM19.8332 14H8.1665C7.23825 14 6.34801 14.3688 5.69163 15.0251C5.03525 15.6815 4.6665 16.5717 4.6665 17.5C4.6665 20.104 5.7375 22.19 7.4945 23.6017C9.2235 24.99 11.5428 25.6667 13.9998 25.6667C16.4568 25.6667 18.7762 24.99 20.5052 23.6017C22.2598 22.19 23.3332 20.104 23.3332 17.5C23.3332 16.5717 22.9644 15.6815 22.308 15.0251C21.6517 14.3688 20.7614 14 19.8332 14Z" fill="#58647A"/>
</svg>
