<svg width="24" height="24" viewBox="0 0 24 24" fill="none" xmlns="http://www.w3.org/2000/svg">
<path d="M2.22022 2.22C2.0932 2.34698 2.01597 2.51534 2.00258 2.69445C1.98918 2.87356 2.04051 3.05153 2.14722 3.196L2.22022 3.28L6.25422 7.315C4.28725 8.69362 2.88311 10.735 2.29922 13.065C2.2542 13.2568 2.28646 13.4586 2.38903 13.6268C2.49159 13.795 2.65623 13.9161 2.84736 13.964C3.03848 14.0118 3.24075 13.9825 3.41044 13.8824C3.58013 13.7823 3.70362 13.6194 3.75422 13.429C4.27312 11.361 5.55112 9.56394 7.33422 8.395L9.14422 10.205C8.42122 10.9605 8.02281 11.9691 8.03434 13.0147C8.04588 14.0604 8.46643 15.0599 9.20592 15.7993C9.94542 16.5386 10.945 16.959 11.9907 16.9704C13.0363 16.9817 14.0449 16.5831 14.8002 15.86L20.7192 21.78C20.853 21.9142 21.0327 21.9927 21.2221 21.9999C21.4115 22.007 21.5965 21.9421 21.7401 21.8184C21.8836 21.6946 21.9749 21.5211 21.9957 21.3327C22.0166 21.1444 21.9653 20.9551 21.8522 20.803L21.7792 20.719L15.6662 14.605L15.6672 14.603L8.71722 7.657L8.71922 7.655L7.58622 6.525L3.28022 2.22C3.1396 2.07955 2.94897 2.00066 2.75022 2.00066C2.55147 2.00066 2.36085 2.07955 2.22022 2.22ZM12.0002 5.5C11.0002 5.5 10.0302 5.648 9.11122 5.925L10.3482 7.161C12.4878 6.73735 14.7083 7.15208 16.5507 8.31942C18.3931 9.48677 19.7165 11.3175 20.2472 13.433C20.299 13.6219 20.4227 13.7831 20.5918 13.882C20.7609 13.9809 20.962 14.0098 21.1521 13.9623C21.3421 13.9149 21.5061 13.795 21.6089 13.6283C21.7117 13.4615 21.7452 13.2611 21.7022 13.07C21.1599 10.9075 19.9108 8.98805 18.153 7.61657C16.3953 6.24508 14.2297 5.50013 12.0002 5.5ZM12.1952 9.01L15.9962 12.81C15.9471 11.8179 15.5308 10.8795 14.8283 10.1772C14.1258 9.47493 13.1873 9.0589 12.1952 9.01Z" fill="#58647A"/>
</svg>
