<svg width="24" height="24" viewBox="0 0 24 24" fill="none" xmlns="http://www.w3.org/2000/svg">
<path d="M2.3999 7.8C2.3999 7.00435 2.71597 6.24129 3.27858 5.67868C3.84119 5.11607 4.60425 4.8 5.3999 4.8H18.5999C19.3956 4.8 20.1586 5.11607 20.7212 5.67868C21.2838 6.24129 21.5999 7.00435 21.5999 7.8V16.2C21.5999 16.9956 21.2838 17.7587 20.7212 18.3213C20.1586 18.8839 19.3956 19.2 18.5999 19.2H5.3999C4.60425 19.2 3.84119 18.8839 3.27858 18.3213C2.71597 17.7587 2.3999 16.9956 2.3999 16.2V7.8ZM11.3999 7.2H5.3999C5.24077 7.2 5.08816 7.26321 4.97564 7.37574C4.86312 7.48826 4.7999 7.64087 4.7999 7.8C4.7999 7.95913 4.86312 8.11174 4.97564 8.22426C5.08816 8.33678 5.24077 8.4 5.3999 8.4H11.3999C11.559 8.4 11.7116 8.33678 11.8242 8.22426C11.9367 8.11174 11.9999 7.95913 11.9999 7.8C11.9999 7.64087 11.9367 7.48826 11.8242 7.37574C11.7116 7.26321 11.559 7.2 11.3999 7.2ZM14.9999 9.6H5.3999C5.24077 9.6 5.08816 9.66321 4.97564 9.77573C4.86312 9.88826 4.7999 10.0409 4.7999 10.2C4.7999 10.3591 4.86312 10.5117 4.97564 10.6243C5.08816 10.7368 5.24077 10.8 5.3999 10.8H14.9999C15.159 10.8 15.3116 10.7368 15.4242 10.6243C15.5367 10.5117 15.5999 10.3591 15.5999 10.2C15.5999 10.0409 15.5367 9.88826 15.4242 9.77573C15.3116 9.66321 15.159 9.6 14.9999 9.6ZM5.9999 13.2C5.68164 13.2 5.37642 13.3264 5.15137 13.5515C4.92633 13.7765 4.7999 14.0817 4.7999 14.4V15.6C4.7999 15.9183 4.92633 16.2235 5.15137 16.4485C5.37642 16.6736 5.68164 16.8 5.9999 16.8H10.7999C11.1182 16.8 11.4234 16.6736 11.6484 16.4485C11.8735 16.2235 11.9999 15.9183 11.9999 15.6V14.4C11.9999 14.0817 11.8735 13.7765 11.6484 13.5515C11.4234 13.3264 11.1182 13.2 10.7999 13.2H5.9999Z" fill="#58647A"/>
</svg>
