<svg width="24" height="24" viewBox="0 0 24 24" fill="none" xmlns="http://www.w3.org/2000/svg">
<path d="M6.89998 3.59961H17.1C17.9752 3.59961 18.8146 3.94729 19.4334 4.56616C20.0523 5.18503 20.4 6.02439 20.4 6.89961V10.8032C19.9908 10.8224 19.584 10.9136 19.2 11.078V6.89961C19.2 6.34265 18.9787 5.80851 18.5849 5.41469C18.1911 5.02086 17.6569 4.79961 17.1 4.79961H6.89998C6.34302 4.79961 5.80888 5.02086 5.41505 5.41469C5.02122 5.80851 4.79998 6.34265 4.79998 6.89961V17.0996C4.79998 18.2588 5.74078 19.1996 6.89998 19.1996H11.37C11.3512 19.2612 11.334 19.3232 11.3184 19.3856L11.064 20.3996H6.89998C6.02476 20.3996 5.18539 20.0519 4.56652 19.4331C3.94765 18.8142 3.59998 17.9748 3.59998 17.0996V6.89961C3.59998 6.02439 3.94765 5.18503 4.56652 4.56616C5.18539 3.94729 6.02476 3.59961 6.89998 3.59961ZM11.4 15.5996H14.3316L13.1316 16.7996H11.4C11.2408 16.7996 11.0882 16.7364 10.9757 16.6239C10.8632 16.5114 10.8 16.3587 10.8 16.1996C10.8 16.0405 10.8632 15.8879 10.9757 15.7753C11.0882 15.6628 11.2408 15.5996 11.4 15.5996ZM8.99998 8.69961C8.99998 8.9383 8.90515 9.16722 8.73637 9.33601C8.56759 9.50479 8.33867 9.59961 8.09998 9.59961C7.86128 9.59961 7.63236 9.50479 7.46358 9.33601C7.2948 9.16722 7.19998 8.9383 7.19998 8.69961C7.19998 8.46091 7.2948 8.232 7.46358 8.06321C7.63236 7.89443 7.86128 7.79961 8.09998 7.79961C8.33867 7.79961 8.56759 7.89443 8.73637 8.06321C8.90515 8.232 8.99998 8.46091 8.99998 8.69961ZM8.09998 13.1996C8.33867 13.1996 8.56759 13.1048 8.73637 12.936C8.90515 12.7672 8.99998 12.5383 8.99998 12.2996C8.99998 12.0609 8.90515 11.832 8.73637 11.6632C8.56759 11.4944 8.33867 11.3996 8.09998 11.3996C7.86128 11.3996 7.63236 11.4944 7.46358 11.6632C7.2948 11.832 7.19998 12.0609 7.19998 12.2996C7.19998 12.5383 7.2948 12.7672 7.46358 12.936C7.63236 13.1048 7.86128 13.1996 8.09998 13.1996ZM8.09998 16.7996C8.33867 16.7996 8.56759 16.7048 8.73637 16.536C8.90515 16.3672 8.99998 16.1383 8.99998 15.8996C8.99998 15.6609 8.90515 15.432 8.73637 15.2632C8.56759 15.0944 8.33867 14.9996 8.09998 14.9996C7.86128 14.9996 7.63236 15.0944 7.46358 15.2632C7.2948 15.432 7.19998 15.6609 7.19998 15.8996C7.19998 16.1383 7.2948 16.3672 7.46358 16.536C7.63236 16.7048 7.86128 16.7996 8.09998 16.7996ZM11.4 8.39961C11.2408 8.39961 11.0882 8.46282 10.9757 8.57535C10.8632 8.68787 10.8 8.84048 10.8 8.99961C10.8 9.15874 10.8632 9.31135 10.9757 9.42387C11.0882 9.5364 11.2408 9.59961 11.4 9.59961H16.2C16.3591 9.59961 16.5117 9.5364 16.6242 9.42387C16.7368 9.31135 16.8 9.15874 16.8 8.99961C16.8 8.84048 16.7368 8.68787 16.6242 8.57535C16.5117 8.46282 16.3591 8.39961 16.2 8.39961H11.4ZM11.4 11.9996C11.2408 11.9996 11.0882 12.0628 10.9757 12.1753C10.8632 12.2879 10.8 12.4405 10.8 12.5996C10.8 12.7587 10.8632 12.9114 10.9757 13.0239C11.0882 13.1364 11.2408 13.1996 11.4 13.1996H16.2C16.3591 13.1996 16.5117 13.1364 16.6242 13.0239C16.7368 12.9114 16.8 12.7587 16.8 12.5996C16.8 12.4405 16.7368 12.2879 16.6242 12.1753C16.5117 12.0628 16.3591 11.9996 16.2 11.9996H11.4ZM13.176 18.452L18.972 12.656C19.1805 12.4477 19.4279 12.2825 19.7003 12.1698C19.9726 12.0571 20.2645 11.9991 20.5592 11.9993C20.854 11.9994 21.1458 12.0575 21.418 12.1704C21.6903 12.2833 21.9376 12.4487 22.146 12.6572C22.3543 12.8657 22.5195 13.1132 22.6322 13.3855C22.7449 13.6579 22.8028 13.9497 22.8027 14.2445C22.8026 14.5392 22.7445 14.831 22.6316 15.1033C22.5187 15.3755 22.3533 15.6229 22.1448 15.8312L16.3488 21.626C16.0111 21.9638 15.5881 22.2035 15.1248 22.3196L13.3272 22.7684C13.1484 22.813 12.9612 22.8105 12.7837 22.7613C12.6062 22.7121 12.4444 22.6178 12.3141 22.4876C12.1838 22.3575 12.0893 22.1958 12.04 22.0183C11.9906 21.8408 11.988 21.6536 12.0324 21.4748L12.4824 19.6772C12.5975 19.2135 12.8373 18.7902 13.176 18.4532V18.452Z" fill="white"/>
</svg>
