<svg width="24" height="24" viewBox="0 0 24 24" fill="none" xmlns="http://www.w3.org/2000/svg">
<path d="M5.9999 5.4C5.9999 4.92261 6.18954 4.46477 6.52711 4.12721C6.86468 3.78964 7.32251 3.6 7.7999 3.6H16.1999C16.6773 3.6 17.1351 3.78964 17.4727 4.12721C17.8103 4.46477 17.9999 4.92261 17.9999 5.4V6H18.5999C19.3956 6 20.1586 6.31607 20.7212 6.87868C21.2838 7.44129 21.5999 8.20435 21.5999 9V15C21.5999 15.4774 21.4103 15.9352 21.0727 16.2728C20.7351 16.6104 20.2773 16.8 19.7999 16.8H17.9999V18.6C17.9999 19.0774 17.8103 19.5352 17.4727 19.8728C17.1351 20.2104 16.6773 20.4 16.1999 20.4H7.7999C7.32251 20.4 6.86468 20.2104 6.52711 19.8728C6.18954 19.5352 5.9999 19.0774 5.9999 18.6V16.8H4.1999C3.72251 16.8 3.26468 16.6104 2.92711 16.2728C2.58954 15.9352 2.3999 15.4774 2.3999 15V9C2.3999 8.20435 2.71597 7.44129 3.27858 6.87868C3.84119 6.31607 4.60425 6 5.3999 6H5.9999V5.4ZM16.7999 5.4C16.7999 5.24087 16.7367 5.08826 16.6242 4.97573C16.5116 4.86321 16.359 4.8 16.1999 4.8H7.7999C7.64077 4.8 7.48816 4.86321 7.37564 4.97573C7.26312 5.08826 7.1999 5.24087 7.1999 5.4V6H16.7999V5.4ZM7.1999 13.8V18.6C7.1999 18.7591 7.26312 18.9117 7.37564 19.0243C7.48816 19.1368 7.64077 19.2 7.7999 19.2H16.1999C16.359 19.2 16.5116 19.1368 16.6242 19.0243C16.7367 18.9117 16.7999 18.7591 16.7999 18.6V13.8C16.7999 13.6409 16.7367 13.4883 16.6242 13.3757C16.5116 13.2632 16.359 13.2 16.1999 13.2H7.7999C7.64077 13.2 7.48816 13.2632 7.37564 13.3757C7.26312 13.4883 7.1999 13.6409 7.1999 13.8Z" fill="#58647A"/>
</svg>
