<svg width="28" height="28" viewBox="0 0 28 28" fill="none" xmlns="http://www.w3.org/2000/svg">
<path fill-rule="evenodd" clip-rule="evenodd" d="M3.5 7C3.5 6.07174 3.86875 5.1815 4.52513 4.52513C5.1815 3.86875 6.07174 3.5 7 3.5H9.625C10.5533 3.5 11.4435 3.86875 12.0999 4.52513C12.7563 5.1815 13.125 6.07174 13.125 7V9.625C13.125 10.5533 12.7563 11.4435 12.0999 12.0999C11.4435 12.7563 10.5533 13.125 9.625 13.125H7C6.07174 13.125 5.1815 12.7563 4.52513 12.0999C3.86875 11.4435 3.5 10.5533 3.5 9.625V7ZM14.875 7C14.875 6.07174 15.2437 5.1815 15.9001 4.52513C16.5565 3.86875 17.4467 3.5 18.375 3.5H21C21.9283 3.5 22.8185 3.86875 23.4749 4.52513C24.1313 5.1815 24.5 6.07174 24.5 7V9.625C24.5 10.5533 24.1313 11.4435 23.4749 12.0999C22.8185 12.7563 21.9283 13.125 21 13.125H18.375C17.4467 13.125 16.5565 12.7563 15.9001 12.0999C15.2437 11.4435 14.875 10.5533 14.875 9.625V7ZM3.5 18.375C3.5 17.4467 3.86875 16.5565 4.52513 15.9001C5.1815 15.2437 6.07174 14.875 7 14.875H9.625C10.5533 14.875 11.4435 15.2437 12.0999 15.9001C12.7563 16.5565 13.125 17.4467 13.125 18.375V21C13.125 21.9283 12.7563 22.8185 12.0999 23.4749C11.4435 24.1313 10.5533 24.5 9.625 24.5H7C6.07174 24.5 5.1815 24.1313 4.52513 23.4749C3.86875 22.8185 3.5 21.9283 3.5 21V18.375ZM14.875 18.375C14.875 17.4467 15.2437 16.5565 15.9001 15.9001C16.5565 15.2437 17.4467 14.875 18.375 14.875H21C21.9283 14.875 22.8185 15.2437 23.4749 15.9001C24.1313 16.5565 24.5 17.4467 24.5 18.375V21C24.5 21.9283 24.1313 22.8185 23.4749 23.4749C22.8185 24.1313 21.9283 24.5 21 24.5H18.375C17.4467 24.5 16.5565 24.1313 15.9001 23.4749C15.2437 22.8185 14.875 21.9283 14.875 21V18.375Z" fill="#58647A"/>
</svg>
