<svg width="24" height="24" viewBox="0 0 24 24" fill="none" xmlns="http://www.w3.org/2000/svg">
<path fill-rule="evenodd" clip-rule="evenodd" d="M5.0999 2.4C4.38382 2.4 3.69706 2.68446 3.19071 3.19081C2.68437 3.69716 2.3999 4.38392 2.3999 5.1V18.9C2.3999 19.6161 2.68437 20.3028 3.19071 20.8092C3.69706 21.3155 4.38382 21.6 5.0999 21.6H18.8999C19.616 21.6 20.3027 21.3155 20.8091 20.8092C21.3154 20.3028 21.5999 19.6161 21.5999 18.9V5.1C21.5999 4.38392 21.3154 3.69716 20.8091 3.19081C20.3027 2.68446 19.616 2.4 18.8999 2.4H5.0999ZM9.9359 9.936C10.0949 9.76539 10.1814 9.53974 10.1773 9.30657C10.1732 9.07341 10.0787 8.85095 9.91385 8.68606C9.74895 8.52116 9.52649 8.42671 9.29333 8.42259C9.06017 8.41848 8.83451 8.50503 8.6639 8.664L5.9639 11.364C5.79536 11.5328 5.70069 11.7615 5.70069 12C5.70069 12.2385 5.79536 12.4673 5.9639 12.636L8.6639 15.336C8.83451 15.495 9.06017 15.5815 9.29333 15.5774C9.52649 15.5733 9.74895 15.4788 9.91385 15.3139C10.0787 15.1491 10.1732 14.9266 10.1773 14.6934C10.1814 14.4603 10.0949 14.2346 9.9359 14.064L7.8719 12L9.9359 9.936ZM15.3359 8.664C15.2535 8.57558 15.1541 8.50465 15.0437 8.45546C14.9333 8.40627 14.8142 8.37982 14.6933 8.37769C14.5725 8.37556 14.4525 8.39779 14.3404 8.44305C14.2283 8.48832 14.1265 8.55569 14.0411 8.64116C13.9556 8.72662 13.8882 8.82842 13.843 8.94048C13.7977 9.05255 13.7755 9.17259 13.7776 9.29343C13.7797 9.41427 13.8062 9.53345 13.8554 9.64385C13.9046 9.75425 13.9755 9.85361 14.0639 9.936L16.1279 12L14.0639 14.064C13.9755 14.1464 13.9046 14.2458 13.8554 14.3562C13.8062 14.4666 13.7797 14.5857 13.7776 14.7066C13.7755 14.8274 13.7977 14.9475 13.843 15.0595C13.8882 15.1716 13.9556 15.2734 14.0411 15.3588C14.1265 15.4443 14.2283 15.5117 14.3404 15.5569C14.4525 15.6022 14.5725 15.6244 14.6933 15.6223C14.8142 15.6202 14.9333 15.5937 15.0437 15.5445C15.1541 15.4953 15.2535 15.4244 15.3359 15.336L18.0359 12.636C18.2044 12.4673 18.2991 12.2385 18.2991 12C18.2991 11.7615 18.2044 11.5328 18.0359 11.364L15.3359 8.664Z" fill="#58647A"/>
</svg>
