<svg width="14" height="14" viewBox="0 0 14 14" fill="none" xmlns="http://www.w3.org/2000/svg">
<path d="M11.6667 2.33301H2.33332C1.69166 2.33301 1.17249 2.85801 1.17249 3.49967L1.16666 10.4997C1.16666 11.1413 1.69166 11.6663 2.33332 11.6663H11.6667C12.3083 11.6663 12.8333 11.1413 12.8333 10.4997V3.49967C12.8333 2.85801 12.3083 2.33301 11.6667 2.33301ZM11.4333 4.81217L7.30916 7.39051C7.12249 7.50717 6.87749 7.50717 6.69082 7.39051L2.56666 4.81217C2.50816 4.77934 2.45694 4.73498 2.41609 4.68177C2.37524 4.62857 2.34561 4.56763 2.32899 4.50264C2.31237 4.43765 2.30912 4.36997 2.31941 4.30369C2.32971 4.2374 2.35335 4.1739 2.3889 4.11702C2.42446 4.06013 2.47118 4.01106 2.52625 3.97276C2.58131 3.93445 2.64358 3.90772 2.70928 3.89418C2.77498 3.88064 2.84274 3.88057 2.90846 3.89398C2.97419 3.90738 3.03651 3.93399 3.09166 3.97217L6.99999 6.41634L10.9083 3.97217C10.9635 3.93399 11.0258 3.90738 11.0915 3.89398C11.1572 3.88057 11.225 3.88064 11.2907 3.89418C11.3564 3.90772 11.4187 3.93445 11.4737 3.97276C11.5288 4.01106 11.5755 4.06013 11.6111 4.11702C11.6466 4.1739 11.6703 4.2374 11.6806 4.30369C11.6909 4.36997 11.6876 4.43765 11.671 4.50264C11.6544 4.56763 11.6247 4.62857 11.5839 4.68177C11.543 4.73498 11.4918 4.77934 11.4333 4.81217Z" fill="#58647A"/>
</svg>
