<svg width="28" height="28" viewBox="0 0 28 28" fill="none" xmlns="http://www.w3.org/2000/svg">
<path d="M14.0002 2.33333C7.56016 2.33333 2.3335 7.56 2.3335 14C2.3335 20.44 7.56016 25.6667 14.0002 25.6667C20.4402 25.6667 25.6668 20.44 25.6668 14C25.6668 7.56 20.4402 2.33333 14.0002 2.33333ZM14.0002 7C16.2518 7 18.0835 8.83167 18.0835 11.0833C18.0835 13.335 16.2518 15.1667 14.0002 15.1667C11.7485 15.1667 9.91683 13.335 9.91683 11.0833C9.91683 8.83167 11.7485 7 14.0002 7ZM14.0002 23.3333C11.6318 23.3333 8.83183 22.3767 6.83683 19.9733C8.88037 18.37 11.4027 17.4986 14.0002 17.4986C16.5976 17.4986 19.12 18.37 21.1635 19.9733C19.1685 22.3767 16.3685 23.3333 14.0002 23.3333Z" fill="#58647A"/>
</svg>
