<svg width="28" height="28" viewBox="0 0 28 28" fill="none" xmlns="http://www.w3.org/2000/svg">
<mask id="mask0_339_4008" style="mask-type:luminance" maskUnits="userSpaceOnUse" x="1" y="3" width="26" height="22">
<path d="M23.9168 7H11.0835C10.117 7 9.3335 7.7835 9.3335 8.75V15.75C9.3335 16.7165 10.117 17.5 11.0835 17.5H23.9168C24.8833 17.5 25.6668 16.7165 25.6668 15.75V8.75C25.6668 7.7835 24.8833 7 23.9168 7Z" fill="white" stroke="white" stroke-linejoin="round"/>
<path d="M14 10.5V14M21 10.5V14" stroke="black" stroke-linecap="round"/>
<path d="M21.0002 7V3.5H14.0002V7M25.6668 21H7.00016C6.69074 21 6.394 20.8771 6.1752 20.6583C5.95641 20.4395 5.8335 20.1428 5.8335 19.8333V6.41667C5.8335 6.10725 5.71058 5.8105 5.49179 5.59171C5.27299 5.37292 4.97625 5.25 4.66683 5.25H2.3335" stroke="white" stroke-linecap="round" stroke-linejoin="round"/>
<path d="M11.0835 24.5C10.6194 24.5 10.1742 24.3156 9.84606 23.9874C9.51787 23.6592 9.3335 23.2141 9.3335 22.75V21H12.8335V22.75C12.8335 23.2141 12.6491 23.6592 12.3209 23.9874C11.9927 24.3156 11.5476 24.5 11.0835 24.5ZM21.5835 24.5C21.1194 24.5 20.6742 24.3156 20.3461 23.9874C20.0179 23.6592 19.8335 23.2141 19.8335 22.75V21H23.3335V22.75C23.3335 23.2141 23.1491 23.6592 22.8209 23.9874C22.4927 24.3156 22.0476 24.5 21.5835 24.5Z" fill="white" stroke="white" stroke-linecap="round" stroke-linejoin="round"/>
</mask>
<g mask="url(#mask0_339_4008)">
<path d="M0 0H28V28H0V0Z" fill="#58647A"/>
</g>
</svg>
