<svg width="28" height="28" viewBox="0 0 28 28" fill="none" xmlns="http://www.w3.org/2000/svg">
<path fill-rule="evenodd" clip-rule="evenodd" d="M12.6 4.25833C13.0039 3.95541 13.4951 3.79166 14 3.79166C14.5049 3.79166 14.9961 3.95541 15.4 4.25833L23.5667 10.3833C23.8565 10.6007 24.0917 10.8825 24.2537 11.2065C24.4157 11.5305 24.5 11.8878 24.5 12.25V22.1667C24.5 22.7855 24.2542 23.379 23.8166 23.8166C23.379 24.2542 22.7855 24.5 22.1667 24.5H5.83333C5.21449 24.5 4.621 24.2542 4.18342 23.8166C3.74583 23.379 3.5 22.7855 3.5 22.1667V12.25C3.5 11.8878 3.58434 11.5305 3.74634 11.2065C3.90833 10.8825 4.14354 10.6007 4.43333 10.3833L12.6 4.25833ZM15.1667 11.6667C15.1667 11.3572 15.0437 11.0605 14.825 10.8417C14.6062 10.6229 14.3094 10.5 14 10.5C13.6906 10.5 13.3938 10.6229 13.175 10.8417C12.9562 11.0605 12.8333 11.3572 12.8333 11.6667V18.6667C12.8333 18.9761 12.9562 19.2728 13.175 19.4916C13.3938 19.7104 13.6906 19.8333 14 19.8333C14.3094 19.8333 14.6062 19.7104 14.825 19.4916C15.0437 19.2728 15.1667 18.9761 15.1667 18.6667V11.6667ZM10.5 15.1667C10.5 14.8572 10.3771 14.5605 10.1583 14.3417C9.9395 14.1229 9.64275 14 9.33333 14C9.02391 14 8.72717 14.1229 8.50838 14.3417C8.28958 14.5605 8.16667 14.8572 8.16667 15.1667V18.6667C8.16667 18.9761 8.28958 19.2728 8.50838 19.4916C8.72717 19.7104 9.02391 19.8333 9.33333 19.8333C9.64275 19.8333 9.9395 19.7104 10.1583 19.4916C10.3771 19.2728 10.5 18.9761 10.5 18.6667V15.1667ZM19.8333 17.5C19.8333 17.1906 19.7104 16.8938 19.4916 16.675C19.2728 16.4562 18.9761 16.3333 18.6667 16.3333C18.3572 16.3333 18.0605 16.4562 17.8417 16.675C17.6229 16.8938 17.5 17.1906 17.5 17.5V18.6667C17.5 18.9761 17.6229 19.2728 17.8417 19.4916C18.0605 19.7104 18.3572 19.8333 18.6667 19.8333C18.9761 19.8333 19.2728 19.7104 19.4916 19.4916C19.7104 19.2728 19.8333 18.9761 19.8333 18.6667V17.5Z" fill="#58647A"/>
</svg>
