<svg width="28" height="28" viewBox="0 0 28 28" fill="none" xmlns="http://www.w3.org/2000/svg">
<path fill-rule="evenodd" clip-rule="evenodd" d="M7 2.33334C6.07174 2.33334 5.1815 2.70208 4.52513 3.35846C3.86875 4.01484 3.5 4.90508 3.5 5.83334V22.1667C3.5 23.0949 3.86875 23.9852 4.52513 24.6415C5.1815 25.2979 6.07174 25.6667 7 25.6667H14C14.9283 25.6667 15.8185 25.2979 16.4749 24.6415C17.1313 23.9852 17.5 23.0949 17.5 22.1667V5.83334C17.5 4.90508 17.1313 4.01484 16.4749 3.35846C15.8185 2.70208 14.9283 2.33334 14 2.33334H7ZM19.0085 8.5085C19.2273 8.28979 19.524 8.16692 19.8333 8.16692C20.1427 8.16692 20.4394 8.28979 20.6582 8.5085L25.3248 13.1752C25.5436 13.394 25.6664 13.6906 25.6664 14C25.6664 14.3094 25.5436 14.6061 25.3248 14.8248L20.6582 19.4915C20.4381 19.704 20.1434 19.8216 19.8375 19.819C19.5316 19.8163 19.239 19.6936 19.0227 19.4773C18.8064 19.261 18.6837 18.9684 18.681 18.6625C18.6784 18.3566 18.796 18.0619 19.0085 17.8418L21.6837 15.1667H11.6667C11.3572 15.1667 11.0605 15.0438 10.8417 14.825C10.6229 14.6062 10.5 14.3094 10.5 14C10.5 13.6906 10.6229 13.3938 10.8417 13.175C11.0605 12.9563 11.3572 12.8333 11.6667 12.8333H21.6837L19.0085 10.1582C18.7898 9.93939 18.6669 9.64269 18.6669 9.33334C18.6669 9.02398 18.7898 8.72728 19.0085 8.5085Z" fill="#58647A"/>
</svg>
