<svg width="28" height="28" viewBox="0 0 28 28" fill="none" xmlns="http://www.w3.org/2000/svg">
<path d="M9.33317 15.1667V18.6667M13.9998 11.6667V18.6667M18.6665 17.5V18.6667M23.3332 22.1667V12.25C23.3332 12.0689 23.291 11.8903 23.21 11.7283C23.129 11.5663 23.0114 11.4253 22.8665 11.3167L14.6998 5.19167C14.4979 5.04021 14.2523 4.95834 13.9998 4.95834C13.7474 4.95834 13.5018 5.04021 13.2998 5.19167L5.13317 11.3167C4.98828 11.4253 4.87067 11.5663 4.78967 11.7283C4.70867 11.8903 4.6665 12.0689 4.6665 12.25V22.1667C4.6665 22.4761 4.78942 22.7728 5.00821 22.9916C5.22701 23.2104 5.52375 23.3333 5.83317 23.3333H22.1665C22.4759 23.3333 22.7727 23.2104 22.9915 22.9916C23.2103 22.7728 23.3332 22.4761 23.3332 22.1667Z" stroke="#58647A" stroke-width="2" stroke-linecap="round" stroke-linejoin="round"/>
</svg>
