<svg width="28" height="28" viewBox="0 0 28 28" fill="none" xmlns="http://www.w3.org/2000/svg">
<path d="M8.1665 25.6667C7.52484 25.6667 6.97534 25.438 6.518 24.9807C6.06067 24.5233 5.83239 23.9742 5.83317 23.3333C5.83317 22.6917 6.06184 22.1422 6.51917 21.6848C6.9765 21.2275 7.52562 20.9992 8.1665 21C8.80817 21 9.35767 21.2287 9.815 21.686C10.2723 22.1433 10.5006 22.6924 10.4998 23.3333C10.4998 23.975 10.2712 24.5245 9.81384 24.9818C9.3565 25.4392 8.80739 25.6674 8.1665 25.6667ZM19.8332 25.6667C19.1915 25.6667 18.642 25.438 18.1847 24.9807C17.7273 24.5233 17.4991 23.9742 17.4998 23.3333C17.4998 22.6917 17.7285 22.1422 18.1858 21.6848C18.6432 21.2275 19.1923 20.9992 19.8332 21C20.4748 21 21.0243 21.2287 21.4817 21.686C21.939 22.1433 22.1673 22.6924 22.1665 23.3333C22.1665 23.975 21.9378 24.5245 21.4805 24.9818C21.0232 25.4392 20.4741 25.6674 19.8332 25.6667ZM8.1665 19.8333C7.2915 19.8333 6.63039 19.4491 6.18317 18.6807C5.73595 17.9122 5.7165 17.1492 6.12484 16.3917L7.69984 13.5333L3.49984 4.66667H2.304C1.97345 4.66667 1.70123 4.55467 1.48734 4.33067C1.27345 4.10667 1.1665 3.82978 1.1665 3.5C1.1665 3.16944 1.2785 2.89217 1.5025 2.66817C1.7265 2.44417 2.00339 2.33255 2.33317 2.33333H4.229C4.44289 2.33333 4.64706 2.39167 4.8415 2.50833C5.03595 2.625 5.18178 2.79028 5.279 3.00417L6.0665 4.66667H23.2748C23.7998 4.66667 24.1596 4.86111 24.354 5.25C24.5485 5.63889 24.5387 6.04722 24.3248 6.475L20.1832 13.9417C19.9693 14.3306 19.6873 14.6319 19.3373 14.8458C18.9873 15.0597 18.5887 15.1667 18.1415 15.1667H9.44984L8.1665 17.5H21.029C21.3596 17.5 21.6318 17.612 21.8457 17.836C22.0596 18.06 22.1665 18.3369 22.1665 18.6667C22.1665 18.9972 22.0545 19.2745 21.8305 19.4985C21.6065 19.7225 21.3296 19.8341 20.9998 19.8333H8.1665Z" fill="#58647A"/>
</svg>
