<svg width="28" height="28" viewBox="0 0 28 28" fill="none" xmlns="http://www.w3.org/2000/svg">
<path d="M8.1665 25.6667C7.52484 25.6667 6.97534 25.438 6.518 24.9807C6.06067 24.5233 5.83239 23.9742 5.83317 23.3333C5.83317 22.6917 6.06184 22.1422 6.51917 21.6848C6.9765 21.2275 7.52562 20.9992 8.1665 21C8.80817 21 9.35767 21.2287 9.815 21.686C10.2723 22.1433 10.5006 22.6924 10.4998 23.3333C10.4998 23.975 10.2712 24.5245 9.81384 24.9818C9.3565 25.4392 8.80739 25.6674 8.1665 25.6667ZM19.8332 25.6667C19.1915 25.6667 18.642 25.438 18.1847 24.9807C17.7273 24.5233 17.4991 23.9742 17.4998 23.3333C17.4998 22.6917 17.7285 22.1422 18.1858 21.6848C18.6432 21.2275 19.1923 20.9992 19.8332 21C20.4748 21 21.0243 21.2287 21.4817 21.686C21.939 22.1433 22.1673 22.6924 22.1665 23.3333C22.1665 23.975 21.9378 24.5245 21.4805 24.9818C21.0232 25.4392 20.4741 25.6674 19.8332 25.6667ZM7.17484 7L9.97484 12.8333H18.1415L21.3498 7H7.17484ZM4.229 19.8333L7.69984 13.5333L3.49984 4.66667H1.1665V2.33334H4.95817L6.0665 4.66667H25.3165L19.5123 15.1667H9.44984L8.1665 17.5H22.1665V19.8333H4.229Z" fill="#58647A"/>
</svg>
