<svg width="28" height="28" viewBox="0 0 28 28" fill="none" xmlns="http://www.w3.org/2000/svg">
<path d="M21.0876 20.4167L19.4251 22.1083C19.3084 22.225 19.2501 22.3611 19.2501 22.5167C19.2501 22.6722 19.3084 22.8083 19.4251 22.925C19.5417 23.0417 19.6778 23.1 19.8334 23.1C19.989 23.1 20.1251 23.0417 20.2417 22.925L22.5167 20.65C22.7501 20.4167 22.8667 20.1444 22.8667 19.8333C22.8667 19.5222 22.7501 19.25 22.5167 19.0167L20.2417 16.7417C20.1251 16.625 19.989 16.5667 19.8334 16.5667C19.6778 16.5667 19.5417 16.625 19.4251 16.7417C19.3084 16.8583 19.2501 16.9944 19.2501 17.15C19.2501 17.3056 19.3084 17.4417 19.4251 17.5583L21.1167 19.25H16.9167C16.7612 19.25 16.6251 19.3083 16.5084 19.425C16.3917 19.5417 16.3334 19.6778 16.3334 19.8333C16.3334 19.9889 16.3917 20.125 16.5084 20.2417C16.6251 20.3583 16.7612 20.4167 16.9167 20.4167H21.0876ZM19.8334 25.6667C18.2195 25.6667 16.8436 25.0977 15.7057 23.9598C14.5678 22.8219 13.9993 21.4464 14.0001 19.8333C14.0001 18.2194 14.569 16.8436 15.7069 15.7057C16.8448 14.5678 18.2203 13.9992 19.8334 14C21.4473 14 22.8232 14.5689 23.9611 15.7068C25.099 16.8447 25.6675 18.2202 25.6667 19.8333C25.6667 21.4472 25.0978 22.8231 23.9599 23.961C22.822 25.0989 21.4465 25.6674 19.8334 25.6667ZM14.1167 25.6667H11.8126C11.5209 25.6667 11.2681 25.5694 11.0542 25.375C10.8403 25.1806 10.714 24.9375 10.6751 24.6458L10.3251 21.9333C10.0723 21.8361 9.8339 21.7194 9.6099 21.5833C9.3859 21.4472 9.16735 21.3014 8.95423 21.1458L6.41673 22.1958C6.14451 22.3125 5.87229 22.3273 5.60007 22.2402C5.32785 22.1531 5.11396 21.9827 4.9584 21.7292L2.80007 17.9667C2.64451 17.7139 2.5959 17.4417 2.65423 17.15C2.71257 16.8583 2.8584 16.625 3.09173 16.45L5.27923 14.7875C5.25979 14.6514 5.25007 14.5199 5.25007 14.3932V13.6068C5.25007 13.4801 5.25979 13.3486 5.27923 13.2125L3.09173 11.55C2.8584 11.375 2.71257 11.1417 2.65423 10.85C2.5959 10.5583 2.64451 10.2861 2.80007 10.0333L4.9584 6.27084C5.11396 6.01806 5.32785 5.84772 5.60007 5.75984C5.87229 5.67195 6.14451 5.68672 6.41673 5.80417L8.95423 6.85417C9.16812 6.69861 9.38707 6.55278 9.61107 6.41667C9.83507 6.28056 10.0731 6.16389 10.3251 6.06667L10.6751 3.35417C10.714 3.0625 10.8403 2.81945 11.0542 2.625C11.2681 2.43056 11.5209 2.33334 11.8126 2.33334H16.1876C16.4792 2.33334 16.732 2.43056 16.9459 2.625C17.1598 2.81945 17.2862 3.0625 17.3251 3.35417L17.6751 6.06667C17.9278 6.16389 18.1662 6.28056 18.3902 6.41667C18.6142 6.55278 18.8328 6.69861 19.0459 6.85417L21.5834 5.80417C21.8556 5.6875 22.1278 5.67272 22.4001 5.75984C22.6723 5.84695 22.8862 6.01728 23.0417 6.27084L25.2001 10.0333C25.3556 10.2861 25.4042 10.5583 25.3459 10.85C25.2876 11.1417 25.1417 11.375 24.9084 11.55L23.5667 12.5708C22.9834 12.2792 22.3806 12.0556 21.7584 11.9C21.1362 11.7444 20.4945 11.6667 19.8334 11.6667C19.4445 11.6667 19.0704 11.7009 18.7111 11.7693C18.3517 11.8378 17.987 11.9202 17.6167 12.0167C17.2473 11.375 16.7468 10.8644 16.1152 10.4848C15.4837 10.1053 14.7981 9.91589 14.0584 9.91667C12.9306 9.91667 11.9681 10.3153 11.1709 11.1125C10.3737 11.9097 9.97507 12.8722 9.97507 14C9.97507 14.7389 10.1551 15.4194 10.5152 16.0417C10.8753 16.6639 11.3661 17.1597 11.9876 17.5292C11.8709 17.9181 11.7885 18.3217 11.7402 18.7402C11.692 19.1586 11.6675 19.5716 11.6667 19.9792C11.6862 21.0681 11.9051 22.1037 12.3236 23.086C12.742 24.0683 13.3397 24.9286 14.1167 25.6667Z" fill="#58647A"/>
</svg>
