<svg width="28" height="28" viewBox="0 0 28 28" fill="none" xmlns="http://www.w3.org/2000/svg">
<path d="M19.6002 12.8333H8.42941L8.10857 15.1667H19.8919L19.6002 12.8333ZM4.66691 23.3333L6.09607 12.8333H3.50024C3.11135 12.8333 2.80491 12.6778 2.58091 12.3667C2.35691 12.0556 2.29391 11.7153 2.39191 11.3458L4.05441 5.5125C4.13218 5.25972 4.2683 5.05555 4.46274 4.9C4.65718 4.74444 4.89052 4.66666 5.16274 4.66666H22.8377C23.11 4.66666 23.3433 4.74444 23.5377 4.9C23.7322 5.05555 23.8683 5.25972 23.9461 5.5125L25.6086 11.3458C25.7058 11.7153 25.6428 12.0556 25.4196 12.3667C25.1964 12.6778 24.8899 12.8333 24.5002 12.8333H21.9336L23.3336 23.3333H21.0002L20.2127 17.5H7.78774L7.00024 23.3333H4.66691Z" fill="#58647A"/>
</svg>
