<svg width="14" height="14" viewBox="0 0 14 14" fill="none" xmlns="http://www.w3.org/2000/svg">
<path d="M9.54334 8.16699C9.59001 7.78199 9.62501 7.39699 9.62501 7.00033C9.62501 6.60366 9.59001 6.21866 9.54334 5.83366H11.515C11.6083 6.20699 11.6667 6.59783 11.6667 7.00033C11.6667 7.40283 11.6083 7.79366 11.515 8.16699M8.51084 11.4103C8.86084 10.7628 9.12917 10.0628 9.31584 9.33366H11.0367C10.4715 10.3068 9.57491 11.044 8.51084 11.4103ZM8.36501 8.16699H5.63501C5.57667 7.78199 5.54167 7.39699 5.54167 7.00033C5.54167 6.60366 5.57667 6.21283 5.63501 5.83366H8.36501C8.41751 6.21283 8.45834 6.60366 8.45834 7.00033C8.45834 7.39699 8.41751 7.78199 8.36501 8.16699ZM7.00001 11.6437C6.51584 10.9437 6.12501 10.1678 5.88584 9.33366H8.11417C7.87501 10.1678 7.48417 10.9437 7.00001 11.6437ZM4.66667 4.66699H2.96334C3.52267 3.6912 4.41864 2.95286 5.48334 2.59033C5.13334 3.23783 4.87084 3.93783 4.66667 4.66699ZM2.96334 9.33366H4.66667C4.87084 10.0628 5.13334 10.7628 5.48334 11.4103C4.42087 11.0438 3.52617 10.3065 2.96334 9.33366ZM2.48501 8.16699C2.39167 7.79366 2.33334 7.40283 2.33334 7.00033C2.33334 6.59783 2.39167 6.20699 2.48501 5.83366H4.45667C4.41001 6.21866 4.37501 6.60366 4.37501 7.00033C4.37501 7.39699 4.41001 7.78199 4.45667 8.16699M7.00001 2.35116C7.48417 3.05116 7.87501 3.83283 8.11417 4.66699H5.88584C6.12501 3.83283 6.51584 3.05116 7.00001 2.35116ZM11.0367 4.66699H9.31584C9.13327 3.94451 8.86292 3.2471 8.51084 2.59033C9.58417 2.95783 10.4767 3.69866 11.0367 4.66699ZM7.00001 1.16699C3.77417 1.16699 1.16667 3.79199 1.16667 7.00033C1.16667 8.54742 1.78125 10.0312 2.87522 11.1251C3.41689 11.6668 4.05995 12.0965 4.76769 12.3896C5.47542 12.6828 6.23396 12.8337 7.00001 12.8337C8.5471 12.8337 10.0308 12.2191 11.1248 11.1251C12.2188 10.0312 12.8333 8.54742 12.8333 7.00033C12.8333 6.23428 12.6825 5.47574 12.3893 4.76801C12.0962 4.06027 11.6665 3.41721 11.1248 2.87554C10.5831 2.33386 9.94006 1.90418 9.23233 1.61103C8.52459 1.31788 7.76605 1.16699 7.00001 1.16699Z" fill="#58647A"/>
</svg>
