<svg width="28" height="28" viewBox="0 0 28 28" fill="none" xmlns="http://www.w3.org/2000/svg">
<g clip-path="url(#clip0_339_3999)">
<path fill-rule="evenodd" clip-rule="evenodd" d="M19.8332 2.33334C20.7614 2.33334 21.6517 2.70208 22.308 3.35846C22.9644 4.01484 23.3332 4.90508 23.3332 5.83334V24.5C23.333 24.7197 23.2708 24.935 23.1538 25.1209C23.0367 25.3069 22.8695 25.456 22.6714 25.5511C22.4733 25.6461 22.2523 25.6833 22.034 25.6584C21.8157 25.6334 21.6089 25.5473 21.4373 25.41L19.2498 23.66L17.0623 25.41C16.8382 25.5895 16.5558 25.6801 16.2691 25.6644C15.9823 25.6487 15.7115 25.5278 15.5083 25.3248L13.9998 23.8163L12.4913 25.3248C12.2883 25.528 12.0176 25.6491 11.7308 25.665C11.4441 25.6809 11.1616 25.5906 10.9373 25.4112L8.74984 23.66L6.56234 25.41C6.3908 25.5473 6.18397 25.6334 5.96566 25.6584C5.74734 25.6833 5.52642 25.6461 5.32832 25.5511C5.13022 25.456 4.963 25.3069 4.84592 25.1209C4.72883 24.935 4.66664 24.7197 4.6665 24.5V5.83334C4.6665 4.90508 5.03525 4.01484 5.69163 3.35846C6.34801 2.70208 7.23825 2.33334 8.1665 2.33334H19.8332ZM13.9998 14H10.4998C10.1904 14 9.89367 14.1229 9.67488 14.3417C9.45609 14.5605 9.33317 14.8572 9.33317 15.1667C9.33317 15.4761 9.45609 15.7728 9.67488 15.9916C9.89367 16.2104 10.1904 16.3333 10.4998 16.3333H13.9998C14.3093 16.3333 14.606 16.2104 14.8248 15.9916C15.0436 15.7728 15.1665 15.4761 15.1665 15.1667C15.1665 14.8572 15.0436 14.5605 14.8248 14.3417C14.606 14.1229 14.3093 14 13.9998 14ZM17.4998 9.33334H10.4998C10.2025 9.33367 9.91647 9.44753 9.70024 9.65166C9.48402 9.85579 9.3539 10.1348 9.33647 10.4316C9.31904 10.7285 9.41562 11.0208 9.60648 11.2488C9.79733 11.4768 10.0681 11.6234 10.3633 11.6585L10.4998 11.6667H17.4998C17.7972 11.6663 18.0832 11.5525 18.2994 11.3483C18.5157 11.1442 18.6458 10.8652 18.6632 10.5684C18.6806 10.2715 18.5841 9.97923 18.3932 9.7512C18.2023 9.52317 17.9316 9.37662 17.6363 9.3415L17.4998 9.33334Z" fill="#58647A"/>
</g>
<defs>
<clipPath id="clip0_339_3999">
<rect width="28" height="28" fill="white"/>
</clipPath>
</defs>
</svg>
