<svg width="28" height="28" viewBox="0 0 28 28" fill="none" xmlns="http://www.w3.org/2000/svg">
<g clip-path="url(#clip0_339_3998)">
<path fill-rule="evenodd" clip-rule="evenodd" d="M4.6665 5.83334C4.6665 4.90508 5.03525 4.01484 5.69163 3.35846C6.34801 2.70208 7.23825 2.33334 8.1665 2.33334H19.8332C20.7614 2.33334 21.6517 2.70208 22.308 3.35846C22.9644 4.01484 23.3332 4.90508 23.3332 5.83334V24.5C23.333 24.7197 23.2708 24.935 23.1538 25.1209C23.0367 25.3069 22.8695 25.456 22.6714 25.5511C22.4733 25.6461 22.2523 25.6833 22.034 25.6584C21.8157 25.6334 21.6089 25.5473 21.4373 25.41L19.2498 23.66L17.0623 25.41C16.8382 25.5895 16.5558 25.6801 16.2691 25.6644C15.9823 25.6487 15.7115 25.5278 15.5083 25.3248L13.9998 23.8163L12.4913 25.3248C12.2883 25.528 12.0176 25.6491 11.7308 25.665C11.4441 25.6809 11.1616 25.5906 10.9373 25.4112L8.74984 23.66L6.56234 25.41C6.3908 25.5473 6.18397 25.6334 5.96566 25.6584C5.74734 25.6833 5.52642 25.6461 5.32832 25.5511C5.13022 25.456 4.963 25.3069 4.84592 25.1209C4.72883 24.935 4.66664 24.7197 4.6665 24.5V5.83334ZM8.1665 4.66667C7.85708 4.66667 7.56034 4.78959 7.34155 5.00838C7.12275 5.22717 6.99984 5.52392 6.99984 5.83334V22.0733L8.02067 21.2567C8.22759 21.091 8.48476 21.0007 8.74984 21.0007C9.01491 21.0007 9.27208 21.091 9.479 21.2567L11.579 22.9367L13.175 21.3418C13.3938 21.1231 13.6905 21.0003 13.9998 21.0003C14.3092 21.0003 14.6059 21.1231 14.8247 21.3418L16.4195 22.9367L18.5207 21.2567C18.7276 21.091 18.9848 21.0007 19.2498 21.0007C19.5149 21.0007 19.7721 21.091 19.979 21.2567L20.9998 22.0733V5.83334C20.9998 5.52392 20.8769 5.22717 20.6581 5.00838C20.4393 4.78959 20.1426 4.66667 19.8332 4.66667H8.1665ZM9.33317 10.5C9.33317 10.1906 9.45609 9.89384 9.67488 9.67504C9.89367 9.45625 10.1904 9.33334 10.4998 9.33334H17.4998C17.8093 9.33334 18.106 9.45625 18.3248 9.67504C18.5436 9.89384 18.6665 10.1906 18.6665 10.5C18.6665 10.8094 18.5436 11.1062 18.3248 11.325C18.106 11.5438 17.8093 11.6667 17.4998 11.6667H10.4998C10.1904 11.6667 9.89367 11.5438 9.67488 11.325C9.45609 11.1062 9.33317 10.8094 9.33317 10.5ZM10.4998 14C10.1904 14 9.89367 14.1229 9.67488 14.3417C9.45609 14.5605 9.33317 14.8572 9.33317 15.1667C9.33317 15.4761 9.45609 15.7728 9.67488 15.9916C9.89367 16.2104 10.1904 16.3333 10.4998 16.3333H13.9998C14.3093 16.3333 14.606 16.2104 14.8248 15.9916C15.0436 15.7728 15.1665 15.4761 15.1665 15.1667C15.1665 14.8572 15.0436 14.5605 14.8248 14.3417C14.606 14.1229 14.3093 14 13.9998 14H10.4998Z" fill="#58647A"/>
</g>
<defs>
<clipPath id="clip0_339_3998">
<rect width="28" height="28" fill="white"/>
</clipPath>
</defs>
</svg>
