<svg width="30" height="26" viewBox="0 0 30 26" fill="none" xmlns="http://www.w3.org/2000/svg">
<path d="M29.0625 21.125C29.0625 21.3405 28.9637 21.5472 28.7879 21.6995C28.6121 21.8519 28.3736 21.9375 28.125 21.9375H1.875C1.62636 21.9375 1.3879 21.8519 1.21209 21.6995C1.03627 21.5472 0.9375 21.3405 0.9375 21.125C0.9375 20.9095 1.03627 20.7028 1.21209 20.5505C1.3879 20.3981 1.62636 20.3125 1.875 20.3125H28.125C28.3736 20.3125 28.6121 20.3981 28.7879 20.5505C28.9637 20.7028 29.0625 20.9095 29.0625 21.125ZM1.91016 9.97141C1.8544 9.80102 1.8644 9.6195 1.93866 9.45449C2.01291 9.28949 2.14734 9.15003 2.32148 9.05734L14.509 2.55734C14.6567 2.47865 14.8266 2.43699 15 2.43699C15.1734 2.43699 15.3433 2.47865 15.491 2.55734L27.6785 9.05734C27.8527 9.14991 27.9872 9.28927 28.0616 9.45421C28.136 9.61915 28.1462 9.80064 28.0906 9.97105C28.035 10.1415 27.9167 10.2915 27.7537 10.3982C27.5906 10.505 27.3918 10.5627 27.1875 10.5625H24.375V17.0625H26.25C26.4986 17.0625 26.7371 17.1481 26.9129 17.3005C27.0887 17.4528 27.1875 17.6595 27.1875 17.875C27.1875 18.0905 27.0887 18.2972 26.9129 18.4495C26.7371 18.6019 26.4986 18.6875 26.25 18.6875H3.75C3.50136 18.6875 3.2629 18.6019 3.08709 18.4495C2.91127 18.2972 2.8125 18.0905 2.8125 17.875C2.8125 17.6595 2.91127 17.4528 3.08709 17.3005C3.2629 17.1481 3.50136 17.0625 3.75 17.0625H5.625V10.5625H2.8125C2.60835 10.5626 2.40975 10.5049 2.24688 10.3982C2.08402 10.2915 1.96579 10.1416 1.91016 9.97141ZM16.875 16.25C16.875 16.4655 16.9738 16.6722 17.1496 16.8245C17.3254 16.9769 17.5639 17.0625 17.8125 17.0625C18.0611 17.0625 18.2996 16.9769 18.4754 16.8245C18.6512 16.6722 18.75 16.4655 18.75 16.25V11.375C18.75 11.1595 18.6512 10.9528 18.4754 10.8005C18.2996 10.6481 18.0611 10.5625 17.8125 10.5625C17.5639 10.5625 17.3254 10.6481 17.1496 10.8005C16.9738 10.9528 16.875 11.1595 16.875 11.375V16.25ZM11.25 16.25C11.25 16.4655 11.3488 16.6722 11.5246 16.8245C11.7004 16.9769 11.9389 17.0625 12.1875 17.0625C12.4361 17.0625 12.6746 16.9769 12.8504 16.8245C13.0262 16.6722 13.125 16.4655 13.125 16.25V11.375C13.125 11.1595 13.0262 10.9528 12.8504 10.8005C12.6746 10.6481 12.4361 10.5625 12.1875 10.5625C11.9389 10.5625 11.7004 10.6481 11.5246 10.8005C11.3488 10.9528 11.25 11.1595 11.25 11.375V16.25Z" fill="#58647A"/>
</svg>
