<svg width="28" height="28" viewBox="0 0 28 28" fill="none" xmlns="http://www.w3.org/2000/svg">
<path opacity="0.2" d="M20.125 14V21H7.875V14H20.125Z" fill="#58647A"/>
<path d="M26.25 20.125H25.375V6.33281L26.4327 6.10531C26.5474 6.08378 26.6568 6.03949 26.7542 5.97505C26.8516 5.91061 26.9351 5.82731 26.9998 5.73008C27.0645 5.63286 27.1091 5.52366 27.1309 5.40892C27.1528 5.29419 27.1514 5.17625 27.127 5.06204C27.1025 4.94784 27.0554 4.83969 26.9885 4.74397C26.9216 4.64825 26.8362 4.56689 26.7373 4.5047C26.6385 4.4425 26.5282 4.40073 26.4129 4.38183C26.2977 4.36294 26.1798 4.36731 26.0662 4.39469L1.56625 9.64469C1.35518 9.69024 1.16841 9.81221 1.04186 9.98717C0.915303 10.1621 0.857907 10.3777 0.880709 10.5924C0.903511 10.8071 1.0049 11.0058 1.16537 11.1503C1.32585 11.2948 1.53407 11.3748 1.75 11.375C1.81213 11.3749 1.87408 11.3683 1.93484 11.3553L2.625 11.2077V20.125H1.75C1.51794 20.125 1.29538 20.2172 1.13128 20.3813C0.967187 20.5454 0.875 20.7679 0.875 21C0.875 21.2321 0.967187 21.4546 1.13128 21.6187C1.29538 21.7828 1.51794 21.875 1.75 21.875H26.25C26.4821 21.875 26.7046 21.7828 26.8687 21.6187C27.0328 21.4546 27.125 21.2321 27.125 21C27.125 20.7679 27.0328 20.5454 26.8687 20.3813C26.7046 20.2172 26.4821 20.125 26.25 20.125ZM4.375 10.8281L23.625 6.70797V20.125H21V14C21 13.7679 20.9078 13.5454 20.7437 13.3813C20.5796 13.2172 20.3571 13.125 20.125 13.125H7.875C7.64294 13.125 7.42038 13.2172 7.25628 13.3813C7.09219 13.5454 7 13.7679 7 14V20.125H4.375V10.8281ZM19.25 16.625H8.75V14.875H19.25V16.625ZM8.75 18.375H19.25V20.125H8.75V18.375Z" fill="#58647A"/>
</svg>
