<svg width="14" height="14" viewBox="0 0 14 14" fill="none" xmlns="http://www.w3.org/2000/svg">
<path d="M10.7123 10.1293L7 13.8416L3.28767 10.1293C2.55345 9.39505 2.05344 8.45959 1.85087 7.44119C1.64831 6.42279 1.75228 5.3672 2.14964 4.40789C2.547 3.44858 3.21991 2.62865 4.08327 2.05177C4.94662 1.4749 5.96165 1.16699 7 1.16699C8.03835 1.16699 9.05338 1.4749 9.91674 2.05177C10.7801 2.62865 11.453 3.44858 11.8504 4.40789C12.2477 5.3672 12.3517 6.42279 12.1491 7.44119C11.9466 8.45959 11.4466 9.39505 10.7123 10.1293ZM7 8.75028C7.61884 8.75028 8.21233 8.50445 8.64992 8.06686C9.0875 7.62928 9.33334 7.03578 9.33334 6.41695C9.33334 5.79811 9.0875 5.20462 8.64992 4.76703C8.21233 4.32945 7.61884 4.08361 7 4.08361C6.38116 4.08361 5.78767 4.32945 5.35009 4.76703C4.9125 5.20462 4.66667 5.79811 4.66667 6.41695C4.66667 7.03578 4.9125 7.62928 5.35009 8.06686C5.78767 8.50445 6.38116 8.75028 7 8.75028ZM7 7.58361C6.69058 7.58361 6.39384 7.4607 6.17505 7.2419C5.95625 7.02311 5.83334 6.72637 5.83334 6.41695C5.83334 6.10753 5.95625 5.81078 6.17505 5.59199C6.39384 5.3732 6.69058 5.25028 7 5.25028C7.30942 5.25028 7.60617 5.3732 7.82496 5.59199C8.04375 5.81078 8.16667 6.10753 8.16667 6.41695C8.16667 6.72637 8.04375 7.02311 7.82496 7.2419C7.60617 7.4607 7.30942 7.58361 7 7.58361Z" fill="#58647A"/>
</svg>
