<svg width="28" height="28" viewBox="0 0 28 28" fill="none" xmlns="http://www.w3.org/2000/svg">
<path fill-rule="evenodd" clip-rule="evenodd" d="M2.3335 1.45834C2.10143 1.45834 1.87887 1.55052 1.71478 1.71462C1.55068 1.87871 1.4585 2.10127 1.4585 2.33334C1.4585 2.5654 1.55068 2.78796 1.71478 2.95205C1.87887 3.11615 2.10143 3.20834 2.3335 3.20834H4.66683V14.3232C4.66683 15.8865 4.66683 16.6682 4.9795 17.3577C5.29216 18.0472 5.88016 18.5617 7.05733 19.5918L9.39066 21.6335C11.5875 23.555 12.6853 24.5152 14.0002 24.5152C15.315 24.5152 16.414 23.555 18.6097 21.6335L20.943 19.5918C22.119 18.5617 22.7082 18.0472 23.0197 17.3577C23.3335 16.6693 23.3335 15.8877 23.3335 14.3243V3.20834H25.6668C25.8989 3.20834 26.1215 3.11615 26.2855 2.95205C26.4496 2.78796 26.5418 2.5654 26.5418 2.33334C26.5418 2.10127 26.4496 1.87871 26.2855 1.71462C26.1215 1.55052 25.8989 1.45834 25.6668 1.45834H2.3335ZM9.91683 14.2917C9.68476 14.2917 9.4622 14.3839 9.29811 14.548C9.13402 14.712 9.04183 14.9346 9.04183 15.1667C9.04183 15.3987 9.13402 15.6213 9.29811 15.7854C9.4622 15.9495 9.68476 16.0417 9.91683 16.0417H18.0835C18.3156 16.0417 18.5381 15.9495 18.7022 15.7854C18.8663 15.6213 18.9585 15.3987 18.9585 15.1667C18.9585 14.9346 18.8663 14.712 18.7022 14.548C18.5381 14.3839 18.3156 14.2917 18.0835 14.2917H9.91683ZM9.04183 9.33334C9.04183 9.10127 9.13402 8.87871 9.29811 8.71462C9.4622 8.55052 9.68476 8.45834 9.91683 8.45834H18.0835C18.3156 8.45834 18.5381 8.55052 18.7022 8.71462C18.8663 8.87871 18.9585 9.10127 18.9585 9.33334C18.9585 9.5654 18.8663 9.78796 18.7022 9.95205C18.5381 10.1161 18.3156 10.2083 18.0835 10.2083H9.91683C9.68476 10.2083 9.4622 10.1161 9.29811 9.95205C9.13402 9.78796 9.04183 9.5654 9.04183 9.33334Z" fill="#58647A"/>
</svg>
