<svg width="28" height="28" viewBox="0 0 28 28" fill="none" xmlns="http://www.w3.org/2000/svg">
<path d="M14 17.5C15.933 17.5 17.5 15.933 17.5 14C17.5 12.067 15.933 10.5 14 10.5C12.067 10.5 10.5 12.067 10.5 14C10.5 15.933 12.067 17.5 14 17.5Z" stroke="#58647A" stroke-width="1.5"/>
<path d="M16.0592 2.51067C15.631 2.33334 15.0874 2.33334 14 2.33334C12.9127 2.33334 12.369 2.33334 11.9409 2.51067C11.6576 2.62793 11.4002 2.79988 11.1834 3.01668C10.9666 3.23348 10.7946 3.49088 10.6774 3.77417C10.57 4.03434 10.5269 4.33884 10.5105 4.781C10.5033 5.10066 10.4149 5.41322 10.2537 5.68933C10.0924 5.96545 9.86368 6.19606 9.58887 6.3595C9.30992 6.51589 8.99579 6.59879 8.67599 6.60042C8.3562 6.60205 8.04124 6.52236 7.7607 6.36884C7.3687 6.16117 7.0852 6.04684 6.80404 6.0095C6.19074 5.92885 5.57052 6.09503 5.0797 6.4715C4.71337 6.755 4.44037 7.22517 3.8967 8.16667C3.35304 9.10817 3.08004 9.57834 3.02054 10.0392C2.98045 10.343 3.00061 10.6518 3.07988 10.9479C3.15915 11.2439 3.29598 11.5215 3.48254 11.7647C3.6552 11.9887 3.8967 12.1765 4.2712 12.4122C4.82304 12.7587 5.1777 13.349 5.1777 14C5.1777 14.651 4.82304 15.2413 4.2712 15.5867C3.8967 15.8235 3.65404 16.0113 3.48254 16.2353C3.29598 16.4785 3.15915 16.7561 3.07988 17.0521C3.00061 17.3482 2.98045 17.657 3.02054 17.9608C3.0812 18.4205 3.35304 18.8918 3.89554 19.8333C4.44037 20.7748 4.7122 21.245 5.0797 21.5285C5.32288 21.7151 5.60043 21.8519 5.89649 21.9312C6.19256 22.0104 6.50134 22.0306 6.8052 21.9905C7.0852 21.9532 7.3687 21.8388 7.7607 21.6312C8.04124 21.4776 8.3562 21.398 8.67599 21.3996C8.99579 21.4012 9.30992 21.4841 9.58887 21.6405C10.1524 21.9672 10.4872 22.568 10.5105 23.219C10.5269 23.6623 10.5689 23.9657 10.6774 24.2258C10.7946 24.5091 10.9666 24.7665 11.1834 24.9833C11.4002 25.2001 11.6576 25.3721 11.9409 25.4893C12.369 25.6667 12.9127 25.6667 14 25.6667C15.0874 25.6667 15.631 25.6667 16.0592 25.4893C16.3425 25.3721 16.5999 25.2001 16.8167 24.9833C17.0335 24.7665 17.2054 24.5091 17.3227 24.2258C17.43 23.9657 17.4732 23.6623 17.4895 23.219C17.5129 22.568 17.8477 21.966 18.4112 21.6405C18.6902 21.4841 19.0043 21.4012 19.3241 21.3996C19.6439 21.398 19.9588 21.4776 20.2394 21.6312C20.6314 21.8388 20.9149 21.9532 21.1949 21.9905C21.4987 22.0306 21.8075 22.0104 22.1036 21.9312C22.3996 21.8519 22.6772 21.7151 22.9204 21.5285C23.2879 21.2462 23.5597 20.7748 24.1034 19.8333C24.647 18.8918 24.92 18.4217 24.9795 17.9608C25.0196 17.657 24.9995 17.3482 24.9202 17.0521C24.8409 16.7561 24.7041 16.4785 24.5175 16.2353C24.3449 16.0113 24.1034 15.8235 23.7289 15.5878C23.4556 15.4217 23.229 15.1888 23.0704 14.9111C22.9118 14.6333 22.8265 14.3198 22.8224 14C22.8224 13.349 23.177 12.7587 23.7289 12.4133C24.1034 12.1765 24.346 11.9887 24.5175 11.7647C24.7041 11.5215 24.8409 11.2439 24.9202 10.9479C24.9995 10.6518 25.0196 10.343 24.9795 10.0392C24.9189 9.5795 24.647 9.10817 24.1045 8.16667C23.5597 7.22517 23.2879 6.755 22.9204 6.4715C22.6772 6.28494 22.3996 6.14812 22.1036 6.06885C21.8075 5.98958 21.4987 5.96941 21.1949 6.0095C20.9149 6.04684 20.6314 6.16117 20.2382 6.36884C19.9578 6.52215 19.6431 6.60173 19.3235 6.6001C19.0039 6.59846 18.69 6.51568 18.4112 6.3595C18.1364 6.19606 17.9076 5.96545 17.7464 5.68933C17.5852 5.41322 17.4968 5.10066 17.4895 4.781C17.4732 4.33767 17.4312 4.03434 17.3227 3.77417C17.2054 3.49088 17.0335 3.23348 16.8167 3.01668C16.5999 2.79988 16.3425 2.62793 16.0592 2.51067Z" stroke="#58647A" stroke-width="1.5"/>
</svg>
