<svg width="28" height="28" viewBox="0 0 28 28" fill="none" xmlns="http://www.w3.org/2000/svg">
<path d="M11.1583 10.185L11.7591 12.3585C12.325 14.406 12.6073 15.4303 13.4391 15.8958C14.271 16.3625 15.3268 16.0872 17.4385 15.5388L19.6785 14.9555C21.7901 14.4072 22.846 14.133 23.3266 13.3268C23.8073 12.5195 23.525 11.4952 22.958 9.44767L22.3583 7.27534C21.7925 5.22667 21.509 4.20234 20.6783 3.73684C19.8453 3.27017 18.7895 3.5455 16.6778 4.095L14.4378 4.676C12.3261 5.22434 11.2703 5.49967 10.7908 6.307C10.3101 7.11317 10.5925 8.1375 11.1583 10.185Z" fill="#58647A"/>
<path d="M2.65672 8.60772C2.68746 8.49691 2.73973 8.39325 2.81056 8.30267C2.88139 8.21208 2.96937 8.13634 3.06949 8.07978C3.16961 8.02322 3.27989 7.98695 3.39404 7.97304C3.50818 7.95913 3.62395 7.96786 3.73472 7.99872L5.72155 8.54938C6.24812 8.69239 6.72865 8.96938 7.11631 9.35336C7.50396 9.73734 7.78553 10.2152 7.93355 10.7404L10.4431 19.824L10.6274 20.461C11.3659 20.7375 12.0006 21.2544 12.4031 21.9404L12.7647 21.8284L23.1131 19.1392C23.2243 19.1103 23.3401 19.1035 23.454 19.1193C23.5678 19.1351 23.6774 19.1732 23.7766 19.2314C23.8757 19.2896 23.9624 19.3667 24.0317 19.4584C24.101 19.55 24.1516 19.6545 24.1806 19.7657C24.2095 19.8769 24.2163 19.9928 24.2005 20.1066C24.1846 20.2205 24.1466 20.3301 24.0884 20.4292C24.0302 20.5283 23.9531 20.615 23.8614 20.6844C23.7697 20.7537 23.6653 20.8043 23.5541 20.8332L13.2431 23.5119L12.8604 23.6309C12.8522 25.1126 11.8291 26.467 10.2821 26.8695C8.42589 27.3525 6.51839 26.2839 6.02139 24.4849C5.52439 22.6847 6.62572 20.8344 8.48072 20.3525C8.57212 20.329 8.66435 20.3088 8.75722 20.2919L6.24655 11.2059C6.17897 10.9724 6.05212 10.7605 5.87834 10.5906C5.70457 10.4207 5.48979 10.2987 5.25489 10.2364L3.26689 9.68455C3.1561 9.65393 3.05244 9.60178 2.96181 9.53109C2.87119 9.46039 2.79538 9.37254 2.73872 9.27254C2.68206 9.17254 2.64565 9.06236 2.63158 8.94829C2.61751 8.83421 2.62605 8.71849 2.65672 8.60772Z" fill="#58647A"/>
</svg>
