<svg width="28" height="28" viewBox="0 0 28 28" fill="none" xmlns="http://www.w3.org/2000/svg">
<path fill-rule="evenodd" clip-rule="evenodd" d="M16.6587 2.51067C16.227 2.33334 15.6787 2.33334 14.5832 2.33334C13.4877 2.33334 12.9394 2.33334 12.5077 2.51067C11.9331 2.74658 11.4757 3.20106 11.236 3.77417C11.1264 4.03434 11.0844 4.33884 11.0669 4.781C11.0591 5.10137 10.9697 5.41447 10.8072 5.69068C10.6447 5.96688 10.4145 6.19708 10.1382 6.3595C9.85675 6.51596 9.54035 6.59884 9.21833 6.60047C8.89631 6.6021 8.57908 6.52243 8.29605 6.36884C7.90171 6.16117 7.61588 6.04684 7.33355 6.0095C6.71586 5.9284 6.09113 6.09443 5.59521 6.4715C5.22421 6.75384 4.95005 7.22517 4.40288 8.16667C3.85455 9.10817 3.58155 9.57834 3.51971 10.0392C3.43805 10.6528 3.60605 11.2735 3.98638 11.7647C4.15905 11.9887 4.40288 12.1765 4.77971 12.4122C5.33621 12.7587 5.69321 13.349 5.69321 14C5.69321 14.651 5.33621 15.2413 4.78088 15.5867C4.40288 15.8235 4.15905 16.0113 3.98521 16.2353C3.79748 16.4779 3.65968 16.7553 3.57978 17.0515C3.49988 17.3477 3.47946 17.6567 3.51971 17.9608C3.58155 18.4205 3.85455 18.8918 4.40288 19.8333C4.95121 20.7748 5.22421 21.245 5.59521 21.5285C6.08988 21.9053 6.71521 22.071 7.33355 21.9905C7.61588 21.9532 7.90171 21.8388 8.29605 21.6312C8.57923 21.4774 8.89667 21.3976 9.21891 21.3992C9.54116 21.4008 9.85777 21.4838 10.1394 21.6405C10.7064 21.9672 11.0424 22.568 11.0669 23.219C11.0844 23.6623 11.1264 23.9657 11.236 24.2258C11.474 24.7975 11.9314 25.2525 12.5077 25.4893C12.9394 25.6667 13.4877 25.6667 14.5832 25.6667C15.6787 25.6667 16.227 25.6667 16.6587 25.4893C17.2334 25.2534 17.6908 24.7989 17.9304 24.2258C18.04 23.9657 18.082 23.6623 18.0995 23.219C18.1229 22.568 18.46 21.966 19.0282 21.6405C19.3097 21.484 19.6261 21.4012 19.9481 21.3995C20.2701 21.3979 20.5873 21.4776 20.8704 21.6312C21.2647 21.8388 21.5505 21.9532 21.8329 21.9905C22.4512 22.0722 23.0765 21.9053 23.5712 21.5285C23.9422 21.2462 24.2164 20.7748 24.7635 19.8333C25.3119 18.8918 25.5849 18.4217 25.6467 17.9608C25.6868 17.6567 25.6662 17.3475 25.5861 17.0514C25.506 16.7552 25.368 16.4778 25.18 16.2353C25.0074 16.0113 24.7635 15.8235 24.3867 15.5878C23.8302 15.2413 23.4732 14.651 23.4732 14C23.4732 13.349 23.8302 12.7587 24.3855 12.4133C24.7635 12.1765 25.0074 11.9887 25.1812 11.7647C25.3689 11.5221 25.5067 11.2447 25.5866 10.9485C25.6665 10.6523 25.687 10.3433 25.6467 10.0392C25.5849 9.5795 25.3119 9.10817 24.7635 8.16667C24.2152 7.22517 23.9422 6.755 23.5712 6.4715C23.0753 6.09443 22.4506 5.9284 21.8329 6.0095C21.5505 6.04684 21.2647 6.16117 20.8704 6.36884C20.5872 6.52264 20.2698 6.60242 19.9475 6.60079C19.6253 6.59916 19.3087 6.51616 19.027 6.3595C18.751 6.19694 18.521 5.96668 18.3587 5.69048C18.1964 5.41428 18.1072 5.10126 18.0995 4.781C18.082 4.33767 18.04 4.03434 17.9304 3.77417C17.8118 3.49036 17.6384 3.2327 17.4202 3.0159C17.2021 2.79911 16.9433 2.62743 16.6587 2.51067ZM14.5832 17.5C16.5315 17.5 18.11 15.9332 18.11 14C18.11 12.0668 16.5304 10.5 14.5832 10.5C12.6349 10.5 11.0564 12.0668 11.0564 14C11.0564 15.9332 12.636 17.5 14.5832 17.5Z" fill="#58647A"/>
</svg>
