<svg width="18" height="18" viewBox="0 0 18 18" fill="none" xmlns="http://www.w3.org/2000/svg">
<path d="M6.75 11.25L11.25 6.75" stroke="#4BA158" stroke-width="2" stroke-linecap="round" stroke-linejoin="round"/>
<path d="M7.125 7.5C7.33211 7.5 7.5 7.33211 7.5 7.125C7.5 6.91789 7.33211 6.75 7.125 6.75C6.91789 6.75 6.75 6.91789 6.75 7.125C6.75 7.33211 6.91789 7.5 7.125 7.5Z" fill="#4BA158" stroke="#4BA158" stroke-width="2" stroke-linecap="round" stroke-linejoin="round"/>
<path d="M10.875 11.25C11.0821 11.25 11.25 11.0821 11.25 10.875C11.25 10.6679 11.0821 10.5 10.875 10.5C10.6679 10.5 10.5 10.6679 10.5 10.875C10.5 11.0821 10.6679 11.25 10.875 11.25Z" fill="#4BA158" stroke="#4BA158" stroke-width="2" stroke-linecap="round" stroke-linejoin="round"/>
<path d="M3.74986 5.39937C3.74986 4.96176 3.9237 4.54208 4.23313 4.23264C4.54257 3.92321 4.96225 3.74937 5.39986 3.74937H6.14986C6.58553 3.74912 7.00343 3.57657 7.31236 3.26937L7.83736 2.74437C7.99069 2.59017 8.173 2.4678 8.37379 2.3843C8.57458 2.3008 8.7899 2.25781 9.00736 2.25781C9.22482 2.25781 9.44013 2.3008 9.64093 2.3843C9.84172 2.4678 10.024 2.59017 10.1774 2.74437L10.7024 3.26937C11.0113 3.57657 11.4292 3.74912 11.8649 3.74937H12.6149C13.0525 3.74937 13.4721 3.92321 13.7816 4.23264C14.091 4.54208 14.2649 4.96176 14.2649 5.39937V6.14937C14.2651 6.58504 14.4377 7.00294 14.7449 7.31187L15.2699 7.83687C15.4241 7.9902 15.5464 8.17251 15.6299 8.3733C15.7134 8.57409 15.7564 8.78941 15.7564 9.00687C15.7564 9.22433 15.7134 9.43965 15.6299 9.64044C15.5464 9.84123 15.4241 10.0235 15.2699 10.1769L14.7449 10.7019C14.4377 11.0108 14.2651 11.4287 14.2649 11.8644V12.6144C14.2649 13.052 14.091 13.4717 13.7816 13.7811C13.4721 14.0905 13.0525 14.2644 12.6149 14.2644H11.8649C11.4292 14.2646 11.0113 14.4372 10.7024 14.7444L10.1774 15.2694C10.024 15.4236 9.84172 15.5459 9.64093 15.6294C9.44013 15.7129 9.22482 15.7559 9.00736 15.7559C8.7899 15.7559 8.57458 15.7129 8.37379 15.6294C8.173 15.5459 7.99069 15.4236 7.83736 15.2694L7.31236 14.7444C7.00343 14.4372 6.58553 14.2646 6.14986 14.2644H5.39986C4.96225 14.2644 4.54257 14.0905 4.23313 13.7811C3.9237 13.4717 3.74986 13.052 3.74986 12.6144V11.8644C3.74961 11.4287 3.57706 11.0108 3.26986 10.7019L2.74486 10.1769C2.59066 10.0235 2.46829 9.84123 2.38479 9.64044C2.30129 9.43965 2.2583 9.22433 2.2583 9.00687C2.2583 8.78941 2.30129 8.57409 2.38479 8.3733C2.46829 8.17251 2.59066 7.9902 2.74486 7.83687L3.26986 7.31187C3.57706 7.00294 3.74961 6.58504 3.74986 6.14937V5.39937Z" stroke="#4BA158" stroke-width="2" stroke-linecap="round" stroke-linejoin="round"/>
</svg>
