<svg width="28" height="28" viewBox="0 0 28 28" fill="none" xmlns="http://www.w3.org/2000/svg">
<circle cx="14" cy="14" r="13.5" fill="white" stroke="#B0D4EB"/>
<path d="M12.3969 10.003C12.3318 9.93739 12.2544 9.88531 12.1691 9.84978C12.0838 9.81424 11.9923 9.79594 11.8999 9.79594C11.8075 9.79594 11.716 9.81424 11.6307 9.84978C11.5454 9.88531 11.4679 9.93739 11.4029 10.003L7.90286 13.503C7.83725 13.5681 7.78517 13.6455 7.74964 13.7308C7.7141 13.8161 7.6958 13.9076 7.6958 14C7.6958 14.0924 7.7141 14.1839 7.74964 14.2692C7.78517 14.3545 7.83725 14.4319 7.90286 14.497L11.4029 17.997C11.4679 18.0626 11.5454 18.1147 11.6307 18.1502C11.716 18.1858 11.8075 18.2041 11.8999 18.2041C11.9923 18.2041 12.0838 18.1858 12.1691 18.1502C12.2544 18.1147 12.3318 18.0626 12.3969 17.997C12.4625 17.9319 12.5145 17.8545 12.5501 17.7692C12.5856 17.6839 12.6039 17.5924 12.6039 17.5C12.6039 17.4076 12.5856 17.3161 12.5501 17.2308C12.5145 17.1455 12.4625 17.0681 12.3969 17.003L9.38686 14L12.3969 10.997C12.4625 10.9319 12.5145 10.8545 12.5501 10.7692C12.5856 10.6839 12.6039 10.5924 12.6039 10.5C12.6039 10.4076 12.5856 10.3161 12.5501 10.2308C12.5145 10.1455 12.4625 10.0681 12.3969 10.003ZM20.0969 13.503L16.5969 10.003C16.5316 9.93773 16.4541 9.88596 16.3688 9.85064C16.2836 9.81532 16.1922 9.79714 16.0999 9.79714C15.9134 9.79714 15.7347 9.87119 15.6029 10.003C15.5376 10.0683 15.4858 10.1457 15.4505 10.231C15.4152 10.3163 15.397 10.4077 15.397 10.5C15.397 10.6864 15.471 10.8652 15.6029 10.997L18.6129 14L15.6029 17.003C15.5373 17.0681 15.4852 17.1455 15.4496 17.2308C15.4141 17.3161 15.3958 17.4076 15.3958 17.5C15.3958 17.5924 15.4141 17.6839 15.4496 17.7692C15.4852 17.8545 15.5373 17.9319 15.6029 17.997C15.6679 18.0626 15.7454 18.1147 15.8307 18.1502C15.916 18.1858 16.0075 18.2041 16.0999 18.2041C16.1923 18.2041 16.2838 18.1858 16.3691 18.1502C16.4544 18.1147 16.5318 18.0626 16.5969 17.997L20.0969 14.497C20.1625 14.4319 20.2145 14.3545 20.2501 14.2692C20.2856 14.1839 20.3039 14.0924 20.3039 14C20.3039 13.9076 20.2856 13.8161 20.2501 13.7308C20.2145 13.6455 20.1625 13.5681 20.0969 13.503Z" fill="#004671"/>
</svg>
