<svg width="12" height="12" viewBox="0 0 12 12" fill="none" xmlns="http://www.w3.org/2000/svg">
<g clip-path="url(#clip0_845_11714)">
<path d="M11.3533 8.80224L10.188 7.63691C9.9771 7.42612 9.71294 7.27652 9.42369 7.20408C9.13444 7.13163 8.83096 7.13905 8.5456 7.22555C8.26024 7.31205 8.0037 7.47438 7.80336 7.69523C7.60301 7.91608 7.46637 8.18716 7.408 8.47958C5.48633 8.12024 3.61733 6.25891 3.501 4.59524C3.82769 4.53515 4.12835 4.37703 4.363 4.14191C4.67195 3.83292 4.84551 3.41386 4.84551 2.97691C4.84551 2.53996 4.67195 2.1209 4.363 1.81191L3.198 0.646577C2.88901 0.337626 2.46995 0.164062 2.033 0.164062C1.59605 0.164062 1.17699 0.337626 0.867999 0.646577C-2.62733 4.14191 7.858 14.6272 11.3533 11.1319C11.6621 10.8229 11.8355 10.4039 11.8355 9.96708C11.8355 9.53023 11.6621 9.11126 11.3533 8.80224Z" fill="#58647A"/>
</g>
<defs>
<clipPath id="clip0_845_11714">
<rect width="12" height="12" fill="white"/>
</clipPath>
</defs>
</svg>
