<svg width="24" height="24" viewBox="0 0 24 24" fill="none" xmlns="http://www.w3.org/2000/svg">
<path d="M18 10.0002C18 9.73497 17.8946 9.48062 17.7071 9.29308C17.5196 9.10554 17.2652 9.00019 17 9.00019H5.40999L7.70999 6.71019C7.89829 6.52188 8.00408 6.26649 8.00408 6.00019C8.00408 5.73388 7.89829 5.47849 7.70999 5.29019C7.52168 5.10188 7.26629 4.99609 6.99999 4.99609C6.73369 4.99609 6.47829 5.10188 6.28999 5.29019L2.28999 9.29019C2.15123 9.43081 2.05723 9.60938 2.01986 9.80337C1.98248 9.99736 2.00341 10.1981 2.07999 10.3802C2.15501 10.5628 2.2824 10.7191 2.44613 10.8295C2.60985 10.9398 2.80256 10.9992 2.99999 11.0002H17C17.2652 11.0002 17.5196 10.8948 17.7071 10.7073C17.8946 10.5198 18 10.2654 18 10.0002ZM21.92 13.6202C21.845 13.4376 21.7176 13.2812 21.5538 13.1709C21.3901 13.0606 21.1974 13.0012 21 13.0002H6.99999C6.73477 13.0002 6.48042 13.1055 6.29288 13.2931C6.10534 13.4806 5.99999 13.735 5.99999 14.0002C5.99999 14.2654 6.10534 14.5198 6.29288 14.7073C6.48042 14.8948 6.73477 15.0002 6.99999 15.0002H18.59L16.29 17.2902C16.1963 17.3831 16.1219 17.4937 16.0711 17.6156C16.0203 17.7375 15.9942 17.8682 15.9942 18.0002C15.9942 18.1322 16.0203 18.2629 16.0711 18.3848C16.1219 18.5066 16.1963 18.6172 16.29 18.7102C16.383 18.8039 16.4936 18.8783 16.6154 18.9291C16.7373 18.9798 16.868 19.006 17 19.006C17.132 19.006 17.2627 18.9798 17.3846 18.9291C17.5064 18.8783 17.617 18.8039 17.71 18.7102L21.71 14.7102C21.8487 14.5696 21.9427 14.391 21.9801 14.197C22.0175 14.003 21.9966 13.8023 21.92 13.6202Z" fill="white"/>
</svg>
