<svg width="8" height="5" viewBox="0 0 8 5" fill="none" xmlns="http://www.w3.org/2000/svg">
<path d="M7.52669 0.206682C7.46502 0.144879 7.39176 0.0958475 7.31111 0.0623932C7.23046 0.0289389 7.14401 0.0117187 7.05669 0.0117188C6.96938 0.0117187 6.88293 0.0289389 6.80228 0.0623932C6.72163 0.0958475 6.64837 0.144879 6.58669 0.206682L4.00003 2.79335L1.41336 0.206682C1.28871 0.0820298 1.11964 0.012001 0.94336 0.012001C0.767076 0.012001 0.598011 0.0820298 0.473359 0.206682C0.348707 0.331333 0.278679 0.500397 0.278679 0.676682C0.278679 0.852966 0.348707 1.02203 0.473359 1.14668L3.53336 4.20668C3.59504 4.26848 3.66829 4.31752 3.74894 4.35097C3.82959 4.38442 3.91605 4.40164 4.00336 4.40164C4.09067 4.40164 4.17713 4.38442 4.25778 4.35097C4.33842 4.31752 4.41168 4.26848 4.47336 4.20668L7.53336 1.14668C7.78669 0.893348 7.78669 0.466682 7.52669 0.206682Z" fill="#58647A"/>
</svg>
