<?xml version="1.0"?>
<svg xmlns="http://www.w3.org/2000/svg" viewBox="0 0 64 64" width="512" height="512"><g id="shopping_&#xB7;_online_&#xB7;_bag_&#xB7;_payment_&#xB7;_ecommerce" data-name="shopping &#xB7; online &#xB7; bag &#xB7; payment &#xB7; ecommerce"><path d="M21,14a4.937,4.937,0,0,0-2.5.7A4.937,4.937,0,0,0,16,14a5.006,5.006,0,0,0-5,5v1H7a1,1,0,0,0-1,1V37a5.006,5.006,0,0,0,5,5H28a4,4,0,0,0,4-4V21a1,1,0,0,0-1-1H28a1,1,0,0,0,0,2h1.722A1.994,1.994,0,0,1,26,21V19A5.006,5.006,0,0,0,21,14Zm3,5v1H21V19a4.967,4.967,0,0,0-.9-2.847A2.943,2.943,0,0,1,21,16,3,3,0,0,1,24,19Zm-5.5-1.652A2.974,2.974,0,0,1,19,19v1H18V19A2.974,2.974,0,0,1,18.5,17.348ZM13,19a3,3,0,0,1,3-3,2.943,2.943,0,0,1,.9.153A4.967,4.967,0,0,0,16,19v1H13ZM8,37V22h3v2a1,1,0,0,0,0,2h2a1,1,0,0,0,0-2V22h6v2a1,1,0,0,0,0,2h2a1,1,0,0,0,0-2V22h3V38a3.959,3.959,0,0,0,.556,2H11A3,3,0,0,1,8,37ZM28,25a3.959,3.959,0,0,0,2-.556V38a2,2,0,0,1-4,0V24.444A3.959,3.959,0,0,0,28,25Z"/><path d="M61,42H53a1,1,0,0,0-1,1v1H50.27a2.97,2.97,0,0,1-1.66-.5L37.62,36.18a1.01,1.01,0,0,0-1.26.11l-.5.49a4.01,4.01,0,0,0,.47,6.12L37.88,44H25a3,3,0,0,0,0,6h5.18A3,3,0,0,0,30,51a2.974,2.974,0,0,0,.78,2,2.954,2.954,0,0,0,0,4A2.974,2.974,0,0,0,30,59a3.009,3.009,0,0,0,3,3H45.91a5.1,5.1,0,0,0,2.66-.84l.97-.66a3,3,0,0,1,1.67-.5H52v1a1,1,0,0,0,1,1h8a1,1,0,0,0,1-1V43A1,1,0,0,0,61,42ZM52,58h-.79a5.016,5.016,0,0,0-2.78.84l-.97.65a2.989,2.989,0,0,1-1.58.51H33a1,1,0,0,1,0-2h2a1,1,0,0,0,0-2H33a1,1,0,0,1,0-2h2a1,1,0,0,0,0-2H33a1,1,0,0,1,0-2h2a1,1,0,0,0,0-2H25a1,1,0,0,1,0-2H41a1,1,0,0,0,.58-1.81L37.5,41.27a2.015,2.015,0,0,1-.32-2.98L47.5,45.16a4.983,4.983,0,0,0,2.77.84H52Zm8,2H54V44h6Z"/><path d="M57,58a1,1,0,0,0,1-1V56a1,1,0,0,0-2,0v1A1,1,0,0,0,57,58Z"/><path d="M55,2H5A3.009,3.009,0,0,0,2,5V51a3.009,3.009,0,0,0,3,3H28a1,1,0,0,0,0-2H5a1,1,0,0,1-1-1V12H56V40a1,1,0,0,0,2,0V5A3.009,3.009,0,0,0,55,2Zm1,8H4V5A1,1,0,0,1,5,4H55a1,1,0,0,1,1,1Z"/><path d="M18,6H17a1,1,0,0,0,0,2h1a1,1,0,0,0,0-2Z"/><path d="M13,6H12a1,1,0,0,0,0,2h1a1,1,0,0,0,0-2Z"/><path d="M8,6H7A1,1,0,0,0,7,8H8A1,1,0,0,0,8,6Z"/><path d="M52,17a1,1,0,0,0-1-1H37a1,1,0,0,0-1,1v7a1,1,0,0,0,1,1H51a1,1,0,0,0,1-1Zm-2,6H38V18H50Z"/><path d="M51,27H37a1,1,0,0,0,0,2H51a1,1,0,0,0,0-2Z"/><path d="M51,31H41a1,1,0,0,0,0,2H51a1,1,0,0,0,0-2Z"/><path d="M51,35H45a1,1,0,0,0,0,2h6a1,1,0,0,0,0-2Z"/></g></svg>
