<svg id="Layer_1" data-name="Layer 1" xmlns="http://www.w3.org/2000/svg" viewBox="0 0 484.46 358"><defs><style>.cls-1{stroke:#000;stroke-miterlimit:10;stroke-width:11px;}</style></defs><path class="cls-1" d="M104.92,229.48C74.64,229.48,50,205.07,50,175.07s24.64-54.42,54.92-54.42,54.93,24.41,54.93,54.42S135.21,229.48,104.92,229.48Zm0-93.56c-21.86,0-39.65,17.56-39.65,39.15s17.79,39.14,39.65,39.14,39.65-17.56,39.65-39.14S126.79,135.92,104.92,135.92Z" transform="translate(-5.77 -58.5)"/><path class="cls-1" d="M127,386.16H31.23a19.92,19.92,0,0,1-20-19.84v-25c0-51.13,42-92.74,93.65-92.74a93.49,93.49,0,0,1,55.9,18.33,7.64,7.64,0,1,1-9.07,12.29,78.38,78.38,0,0,0-46.83-15.34c-43.22,0-78.38,34.75-78.38,77.46v25a4.63,4.63,0,0,0,4.69,4.56H127a7.64,7.64,0,0,1,0,15.28Z" transform="translate(-5.77 -58.5)"/><path class="cls-1" d="M464.77,380.38H369a7.64,7.64,0,0,1,0-15.28h95.79a4.62,4.62,0,0,0,4.69-4.55v-25c0-42.72-35.16-77.47-78.38-77.47a79.09,79.09,0,0,0-49.62,17.51,7.64,7.64,0,0,1-9.61-11.88,94.42,94.42,0,0,1,59.23-20.9c51.64,0,93.65,41.6,93.65,92.74v25A19.92,19.92,0,0,1,464.77,380.38Z" transform="translate(-5.77 -58.5)"/><path class="cls-1" d="M391.08,223.71c-30.29,0-54.93-24.41-54.93-54.42s24.64-54.42,54.93-54.42S446,139.29,446,169.29,421.36,223.71,391.08,223.71Zm0-93.56c-21.87,0-39.65,17.56-39.65,39.14s17.78,39.15,39.65,39.15,39.65-17.56,39.65-39.15S412.94,130.15,391.08,130.15Z" transform="translate(-5.77 -58.5)"/><path class="cls-1" d="M351.64,411H144.36a24.91,24.91,0,0,1-25-24.78V351.08c0-70.21,57.7-127.33,128.62-127.33s128.62,57.12,128.62,127.33v35.14A24.91,24.91,0,0,1,351.64,411ZM248,239c-62.5,0-113.34,50.27-113.34,112.06v35.13a9.61,9.61,0,0,0,9.7,9.51H351.64a9.61,9.61,0,0,0,9.7-9.51V351.09C361.34,289.3,310.5,239,248,239Z" transform="translate(-5.77 -58.5)"/><path class="cls-1" d="M245.35,203.83c-38.92,0-70.58-31.36-70.58-69.92S206.43,64,245.35,64s70.58,31.36,70.58,69.91S284.26,203.83,245.35,203.83Zm0-124.56c-30.5,0-55.31,24.52-55.31,54.64s24.81,54.65,55.31,54.65,55.3-24.51,55.3-54.65S275.84,79.27,245.35,79.27Z" transform="translate(-5.77 -58.5)"/></svg>