<svg id="Layer_1" data-name="Layer 1" xmlns="http://www.w3.org/2000/svg" viewBox="0 0 508.06 315.27"><defs><style>.cls-1{stroke:#000;stroke-miterlimit:10;stroke-width:10px;}</style></defs><path class="cls-1" d="M256.37,242.35a69.5,69.5,0,1,0-69.49-69.49h0a69.57,69.57,0,0,0,69.49,69.49Zm0-121a51.5,51.5,0,1,1-51.49,51.49A51.49,51.49,0,0,1,256.37,121.36ZM406.91,279.93a55.82,55.82,0,1,0-55.82-55.82A55.82,55.82,0,0,0,406.91,279.93Zm0-93.64a37.82,37.82,0,1,1-37.82,37.82h0a37.87,37.87,0,0,1,37.82-37.81ZM105.59,279.93a55.82,55.82,0,1,0-55.82-55.82A55.82,55.82,0,0,0,105.59,279.93Zm0-93.64a37.82,37.82,0,1,1-37.82,37.82h0a37.87,37.87,0,0,1,37.82-37.81ZM504.47,346c-1.84-16.2-8.38-32-17.94-43.3-11.37-13.46-26.33-20-42.15-18.43a9.07,9.07,0,0,0-5,2.15c-11.15,9.66-21.73,14.13-32.36,13.71-.24,0-.48,0-.73,0-10.65.43-21.21-4.06-32.36-13.71a9.07,9.07,0,0,0-5-2.15,46.08,46.08,0,0,0-5.76-.21,85.29,85.29,0,0,0-5.93-8c-14.12-16.71-32.65-24.84-52.2-22.88a8.93,8.93,0,0,0-5,2.15c-14.73,12.75-29.4,18.91-43.64,18.35h-.72c-14.23.55-28.92-5.6-43.64-18.35a8.93,8.93,0,0,0-5-2.15c-19.54-2-38.08,6.17-52.2,22.88a86.87,86.87,0,0,0-5.94,8,45.63,45.63,0,0,0-5.85.2,9,9,0,0,0-5,2.15c-11.15,9.65-21.71,14.12-32.36,13.71q-.36,0-.72,0c-10.66.4-21.22-4.06-32.37-13.71a8.93,8.93,0,0,0-5-2.15c-15.82-1.59-30.78,5-42.15,18.43C15.89,314,9.36,329.83,7.51,346c-3.84,33.8,12.6,58.93,40.9,62.53a8.72,8.72,0,0,0,1.14.07H161.12a8.57,8.57,0,0,0,1.13-.07,50.05,50.05,0,0,0,9.91-2.3,62.08,62.08,0,0,0,10.69,2.3,8.47,8.47,0,0,0,1.13.07H328.11a8.47,8.47,0,0,0,1.13-.07,62.31,62.31,0,0,0,10.63-2.28,49.72,49.72,0,0,0,9.88,2.28,8.51,8.51,0,0,0,1.14.07H462.43a8.72,8.72,0,0,0,1.14-.07C491.87,405,508.31,379.83,504.47,346ZM66.9,390.64V356.35a9,9,0,0,0-18,0v34.07c-20.39-3.7-25.55-24.1-23.48-42.35,2.64-23.22,17.29-46,37.65-46h.17c13.7,11.16,27.87,16.55,42.11,16.09,10.61.34,21.17-2.57,31.52-8.68a110.54,110.54,0,0,0-4.58,21.2c-2.11,18.55.82,36.18,8.25,49.66a57.55,57.55,0,0,0,7.24,10.3Zm260.62,0h-1.17V343.71a9,9,0,1,0-18,0v46.93H203.75V343.71a9,9,0,0,0-18,0v46.93h-1.16c-29.74-4.12-37.29-32.57-34.41-57.93,3.54-31.18,23.47-61.76,51.25-61.76l1.18,0c17.45,14.41,35.42,21.39,53.44,20.77,18.06.63,36-6.36,53.45-20.77,28.4-.91,48.84,30.12,52.43,61.74,2.87,25.36-4.68,53.81-34.42,57.93Zm135.59-.22V356.35a9,9,0,0,0-18,0v34.29H364.32a57.7,57.7,0,0,0,7.24-10.3c7.42-13.48,10.35-31.11,8.25-49.66a111.49,111.49,0,0,0-4.56-21.13c10.32,6.07,20.84,9,31.41,8.62,14.24.46,28.4-4.94,42.11-16.09h.16c20.36,0,35,22.78,37.65,46,2.08,18.25-3.09,38.65-23.48,42.35Z" transform="translate(-1.96 -98.36)"/></svg>