<svg id="Capa_1" enable-background="new 0 0 605.644 605.644" height="512" viewBox="0 0 605.644 605.644" width="512" xmlns="http://www.w3.org/2000/svg"><g><g id="Page-1_60_"><g id="_x30_61---Financial-Advice-Studies"><path id="Shape_239_" d="m575.361 121.129h-10.094v-10.094c0-16.724-13.558-30.282-30.282-30.282h-20.188v-20.189c-.033-33.435-27.129-60.531-60.564-60.564h-302.822c-33.435.033-60.531 27.129-60.564 60.564v20.188h-20.189c-16.724 0-30.282 13.558-30.282 30.282v10.094h-10.094c-16.724.001-30.282 13.559-30.282 30.283v393.668c0 16.724 13.558 30.282 30.282 30.282h211.975c0 16.724 13.558 30.282 30.282 30.282h60.564c16.724 0 30.282-13.558 30.282-30.282h211.975c16.724 0 30.282-13.558 30.282-30.282v-393.668c.002-16.724-13.556-30.282-30.281-30.282zm-514.797 371.623c3.233 1.195 6.648 1.824 10.094 1.857h201.882c11.15 0 20.188 9.039 20.188 20.188v5.673c-6.101-3.663-13.073-5.622-20.188-5.673h-201.882c-5.575 0-10.094-4.519-10.094-10.094zm252.352 22.045c0-11.15 9.039-20.188 20.188-20.188h201.881c3.446-.033 6.861-.662 10.094-1.857v11.951c0 5.575-4.519 10.094-10.094 10.094h-201.881c-7.116.051-14.087 2.01-20.188 5.673zm201.881-222.069v-191.787h20.188c5.575 0 10.094 4.519 10.094 10.094v353.292c0 5.575-4.519 10.094-10.094 10.094h-201.881c-7.116.051-14.087 2.01-20.188 5.673v-126.802h141.317c33.435-.033 60.531-27.129 60.564-60.564zm-403.762-232.164c0-22.299 18.077-40.376 40.376-40.376h302.822c22.299 0 40.376 18.077 40.376 40.376v232.163c0 22.299-18.077 40.376-40.376 40.376h-151.411c-2.531 0-4.971.951-6.834 2.665l-94.178 86.617c-1.721 1.625-4.257 2.045-6.41 1.06-2.233-.93-3.667-3.134-3.614-5.552v-74.696c0-5.575-4.519-10.094-10.094-10.094h-30.282c-22.299 0-40.376-18.077-40.376-40.376v-232.163zm-50.471 50.471c0-5.575 4.519-10.094 10.094-10.094h20.188v191.787c.033 33.435 27.129 60.531 60.564 60.564h20.188v64.602c-.086 10.441 6.101 19.915 15.696 24.034 3.343 1.486 6.96 2.256 10.619 2.261 6.523-.014 12.799-2.499 17.564-6.955l77.25-71.042v113.901c-6.101-3.663-13.073-5.622-20.188-5.673h-201.881c-5.575 0-10.094-4.519-10.094-10.094zm524.891 434.044c0 5.575-4.519 10.094-10.094 10.094h-222.069c-5.575 0-10.094 4.519-10.094 10.094v10.094c0 5.575-4.519 10.094-10.094 10.094h-60.564c-5.575 0-10.094-4.519-10.094-10.094v-10.094c0-5.575-4.519-10.094-10.094-10.094h-222.07c-5.575 0-10.094-4.519-10.094-10.094v-393.668c0-5.575 4.519-10.094 10.094-10.094h10.094v363.386c0 16.724 13.558 30.282 30.282 30.282h201.882c11.15 0 20.188 9.039 20.188 20.188 0 5.575 4.519 10.094 10.094 10.094s10.094-4.519 10.094-10.094c0-11.15 9.039-20.188 20.188-20.188h201.881c16.724 0 30.282-13.558 30.282-30.282v-363.386h10.094c5.575 0 10.094 4.519 10.094 10.094z"/><path id="Shape_238_" d="m181.693 211.975c0-5.575-4.519-10.094-10.094-10.094s-10.094 4.519-10.094 10.094c.03 23.974 16.893 44.632 40.376 49.461v1.009c0 5.575 4.519 10.094 10.094 10.094s10.094-4.519 10.094-10.094v-1.009c23.522-4.776 40.427-25.458 40.427-49.461s-16.904-44.684-40.427-49.461v-59.716c12.056 4.262 20.135 15.638 20.188 28.425 0 5.575 4.519 10.094 10.094 10.094s10.094-4.519 10.094-10.094c-.03-23.974-16.893-44.632-40.376-49.461v-1.009c0-5.575-4.519-10.094-10.094-10.094s-10.094 4.519-10.094 10.094v1.009c-23.522 4.776-40.427 25.458-40.427 49.461s16.904 44.684 40.427 49.461v59.727c-12.059-4.264-20.139-15.645-20.188-28.436zm60.564 0c-.053 12.787-8.132 24.163-20.188 28.425v-56.85c12.056 4.263 20.135 15.638 20.188 28.425zm-60.564-80.752c.053-12.787 8.132-24.163 20.188-28.425v56.85c-12.056-4.263-20.135-15.638-20.188-28.425z"/><path id="Shape_237_" d="m302.822 111.035h141.317c5.575 0 10.094-4.519 10.094-10.094s-4.519-10.094-10.094-10.094h-141.317c-5.575 0-10.094 4.519-10.094 10.094 0 5.574 4.519 10.094 10.094 10.094z"/><path id="Shape_236_" d="m302.822 181.693h141.317c5.575 0 10.094-4.519 10.094-10.094s-4.519-10.094-10.094-10.094h-141.317c-5.575 0-10.094 4.519-10.094 10.094s4.519 10.094 10.094 10.094z"/><path id="Shape_235_" d="m444.139 232.163h-60.564c-5.575 0-10.094 4.519-10.094 10.094s4.519 10.094 10.094 10.094h60.564c5.575 0 10.094-4.519 10.094-10.094 0-5.574-4.52-10.094-10.094-10.094z"/><path id="Shape_234_" d="m302.822 252.351h40.376c5.575 0 10.094-4.519 10.094-10.094s-4.519-10.094-10.094-10.094h-40.376c-5.575 0-10.094 4.519-10.094 10.094s4.519 10.094 10.094 10.094z"/></g></g></g></svg>