<?xml version="1.0" encoding="UTF-8" standalone="no"?>
<!-- Created with Inkscape (http://www.inkscape.org/) -->

<svg
   version="1.1"
   id="svg2481"
   xml:space="preserve"
   width="682.66669"
   height="682.66669"
   viewBox="0 0 682.66669 682.66669"
   xmlns="http://www.w3.org/2000/svg"
   xmlns:svg="http://www.w3.org/2000/svg"><defs
     id="defs2485"><clipPath
       clipPathUnits="userSpaceOnUse"
       id="clipPath2495"><path
         d="M 0,512 H 512 V 0 H 0 Z"
         id="path2493" /></clipPath></defs><g
     id="g2487"
     transform="matrix(1.3333333,0,0,-1.3333333,0,682.66667)"><g
       id="g2489"><g
         id="g2491"
         clip-path="url(#clipPath2495)"><g
           id="g2497"
           transform="translate(315,437)"><path
             d="M 0,0 H 60 C 60,33.137 33.137,60 0,60 Z"
             style="fill:none;stroke:#000000;stroke-width:30;stroke-linecap:round;stroke-linejoin:round;stroke-miterlimit:10;stroke-dasharray:none;stroke-opacity:1"
             id="path2499" /></g><g
           id="g2501"
           transform="translate(275,256)"><path
             d="m 0,0 h -160 v 10 c 0,44.183 35.817,80 80,80 44.183,0 80,-35.817 80,-80 z"
             style="fill:none;stroke:#000000;stroke-width:30;stroke-linecap:round;stroke-linejoin:round;stroke-miterlimit:10;stroke-dasharray:none;stroke-opacity:1"
             id="path2503" /></g><g
           id="g2505"
           transform="translate(240,391)"><path
             d="m 0,0 c 0,-24.853 -20.147,-45 -45,-45 -24.853,0 -45,20.147 -45,45 0,24.853 20.147,45 45,45 C -20.147,45 0,24.853 0,0 Z"
             style="fill:none;stroke:#000000;stroke-width:30;stroke-linecap:round;stroke-linejoin:round;stroke-miterlimit:10;stroke-dasharray:none;stroke-opacity:1"
             id="path2507" /></g><g
           id="g2509"
           transform="translate(75,196)"><path
             d="M 0,0 H 20"
             style="fill:none;stroke:#000000;stroke-width:30;stroke-linecap:round;stroke-linejoin:round;stroke-miterlimit:10;stroke-dasharray:none;stroke-opacity:1"
             id="path2511" /></g><g
           id="g2513"
           transform="translate(155,196)"><path
             d="M 0,0 H 80"
             style="fill:none;stroke:#000000;stroke-width:30;stroke-linecap:round;stroke-linejoin:round;stroke-miterlimit:10;stroke-dasharray:none;stroke-opacity:1"
             id="path2515" /></g><g
           id="g2517"
           transform="translate(75,136)"><path
             d="M 0,0 H 20"
             style="fill:none;stroke:#000000;stroke-width:30;stroke-linecap:round;stroke-linejoin:round;stroke-miterlimit:10;stroke-dasharray:none;stroke-opacity:1"
             id="path2519" /></g><g
           id="g2521"
           transform="translate(155,136)"><path
             d="M 0,0 H 80"
             style="fill:none;stroke:#000000;stroke-width:30;stroke-linecap:round;stroke-linejoin:round;stroke-miterlimit:10;stroke-dasharray:none;stroke-opacity:1"
             id="path2523" /></g><g
           id="g2525"
           transform="translate(75,76)"><path
             d="M 0,0 H 20"
             style="fill:none;stroke:#000000;stroke-width:30;stroke-linecap:round;stroke-linejoin:round;stroke-miterlimit:10;stroke-dasharray:none;stroke-opacity:1"
             id="path2527" /></g><g
           id="g2529"
           transform="translate(155,76)"><path
             d="M 0,0 H 100"
             style="fill:none;stroke:#000000;stroke-width:30;stroke-linecap:round;stroke-linejoin:round;stroke-miterlimit:10;stroke-dasharray:none;stroke-opacity:1"
             id="path2531" /></g><g
           id="g2533"
           transform="translate(497,156)"><path
             d="m 0,0 c 0,-55.229 -44.771,-100 -100,-100 -55.229,0 -100,44.771 -100,100 0,55.229 44.771,100 100,100 C -44.771,100 0,55.229 0,0 Z"
             style="fill:none;stroke:#000000;stroke-width:30;stroke-linecap:round;stroke-linejoin:round;stroke-miterlimit:10;stroke-dasharray:none;stroke-opacity:1"
             id="path2535" /></g><g
           id="g2537"
           transform="translate(368.7158,127.7158)"><path
             d="M 0,0 56.568,56.568"
             style="fill:none;stroke:#000000;stroke-width:30;stroke-linecap:round;stroke-linejoin:round;stroke-miterlimit:10;stroke-dasharray:none;stroke-opacity:1"
             id="path2539" /></g><g
           id="g2541"
           transform="translate(425.2842,127.7158)"><path
             d="M 0,0 -56.568,56.568"
             style="fill:none;stroke:#000000;stroke-width:30;stroke-linecap:round;stroke-linejoin:round;stroke-miterlimit:10;stroke-dasharray:none;stroke-opacity:1"
             id="path2543" /></g><g
           id="g2545"
           transform="translate(375,253.5664)"><path
             d="m 0,0 v 183.434 c 0,33.136 -26.863,60 -60,60 h -300 v -482 H 0 v 43.433"
             style="fill:none;stroke:#000000;stroke-width:30;stroke-linecap:round;stroke-linejoin:round;stroke-miterlimit:10;stroke-dasharray:none;stroke-opacity:1"
             id="path2547" /></g></g></g></g></svg>
