<svg id="OBJECT" height="512" viewBox="0 0 32 32" width="512" xmlns="http://www.w3.org/2000/svg"><path d="m6 13h8v2h-8z"/><path d="m6 17.5h12v2h-12z"/><path d="m24 17a6.63 6.63 0 0 0 -1 .08v-8.08a1 1 0 0 0 -.29-.71l-7-7a1 1 0 0 0 -.71-.29h-13a1 1 0 0 0 -1 1v26a1 1 0 0 0 1 1h17.11a7 7 0 1 0 4.89-12zm-8-12.59 3.59 3.59h-3.59zm-13-1.41h11v6a1 1 0 0 0 1 1h6v7.69a7 7 0 0 0 -3.71 4.31h-11.29v2h11a6.88 6.88 0 0 0 .69 3h-14.69zm21 26a5 5 0 1 1 5-5 5 5 0 0 1 -5 5z"/><path d="m23.49 23.84-1.49-1.48-1.41 1.41 2.19 2.23a1 1 0 0 0 .71.29 1 1 0 0 0 .7-.29l3.22-3.21-1.41-1.45z"/></svg>