<svg id="icons" enable-background="new 0 0 64 64" height="512" viewBox="0 0 64 64" width="512" xmlns="http://www.w3.org/2000/svg"><g><g><path d="m26 25.999h-9.988c-.553 0-1-.448-1-1v-7c0-.552.447-1 1-1h9.988c.553 0 1 .448 1 1v7c0 .552-.447 1-1 1zm-8.988-2h7.988v-5h-7.988z"/></g><g><path d="m31.006 32.999h-9.988c-.553 0-1-.448-1-1v-7.002c0-.552.447-1 1-1h9.988c.553 0 1 .448 1 1v7.002c0 .552-.447 1-1 1zm-8.988-2h7.988v-5.002h-7.988z"/></g><g><path d="m20.996 32.999h-9.988c-.553 0-1-.448-1-1v-7.002c0-.552.447-1 1-1h9.988c.553 0 1 .448 1 1v7.002c0 .552-.447 1-1 1zm-8.988-2h7.988v-5.002h-7.988z"/></g><g><path d="m36.012 39.998h-9.988c-.553 0-1-.447-1-1v-7.001c0-.552.447-1 1-1h9.988c.553 0 1 .448 1 1v7.001c0 .553-.448 1-1 1zm-8.989-2h7.988v-5.001h-7.988z"/></g><g><path d="m26.002 39.998h-9.988c-.553 0-1-.447-1-1v-7.001c0-.552.447-1 1-1h9.988c.553 0 1 .448 1 1v7.001c0 .553-.447 1-1 1zm-8.988-2h7.988v-5.001h-7.988z"/></g><g><path d="m15.992 39.998h-9.988c-.553 0-1-.447-1-1v-7.001c0-.552.447-1 1-1h9.988c.553 0 1 .448 1 1v7.001c0 .553-.447 1-1 1zm-8.988-2h7.988v-5.001h-7.988z"/></g><g><path d="m41.018 46.998h-9.988c-.553 0-1-.447-1-1v-7.002c0-.553.447-1 1-1h9.988c.553 0 1 .447 1 1v7.002c0 .553-.448 1-1 1zm-8.989-2h7.988v-5.002h-7.988z"/></g><g><path d="m63 47.002h-22c-.553 0-1-.447-1-1v-7.002c0-.553.447-1 1-1h22c.553 0 1 .447 1 1v7.002c0 .553-.447 1-1 1zm-21-2h20v-5.002h-20z"/></g><g><path d="m58 40h-22c-.553 0-1-.447-1-1v-7.001c0-.552.447-1 1-1h22c.553 0 1 .448 1 1v7.001c0 .553-.447 1-1 1zm-21-2h20v-5.001h-20z"/></g><g><path d="m53 33h-22c-.553 0-1-.448-1-1v-7.002c0-.552.447-1 1-1h22c.553 0 1 .448 1 1v7.002c0 .552-.447 1-1 1zm-21-2h20v-5.002h-20z"/></g><g><path d="m48 25.999h-22c-.553 0-1-.448-1-1v-7c0-.552.447-1 1-1h22c.553 0 1 .448 1 1v7c0 .552-.447 1-1 1zm-21-2h20v-5h-20z"/></g><g><path d="m31.008 46.998h-9.988c-.553 0-1-.447-1-1v-7.002c0-.553.447-1 1-1h9.988c.553 0 1 .447 1 1v7.002c0 .553-.447 1-1 1zm-8.988-2h7.988v-5.002h-7.988z"/></g><g><path d="m20.998 46.998h-9.988c-.553 0-1-.447-1-1v-7.002c0-.553.447-1 1-1h9.988c.553 0 1 .447 1 1v7.002c0 .553-.447 1-1 1zm-8.988-2h7.988v-5.002h-7.988z"/></g><g><path d="m10.988 46.998h-9.988c-.553 0-1-.447-1-1v-7.002c0-.553.447-1 1-1h9.988c.553 0 1 .447 1 1v7.002c0 .553-.447 1-1 1zm-8.988-2h7.988v-5.002h-7.988z"/></g><g><path d="m48 44.002h-6.875c-.553 0-1-.447-1-1s.447-1 1-1h6.875c.553 0 1 .447 1 1s-.447 1-1 1z"/></g><g><path d="m58 36h-8c-.553 0-1-.447-1-1s.447-1 1-1h8c.553 0 1 .447 1 1s-.447 1-1 1z"/></g><g><path d="m37.99 29.988h-6.875c-.553 0-1-.448-1-1s.447-1 1-1h6.875c.553 0 1 .448 1 1s-.447 1-1 1z"/></g><g><path d="m47.99 21.989h-8c-.553 0-1-.448-1-1s.447-1 1-1h8c.553 0 1 .448 1 1s-.447 1-1 1z"/></g></g></svg>