<svg id="Catalog" enable-background="new 0 0 450 450" height="512" viewBox="0 0 450 450" width="512" xmlns="http://www.w3.org/2000/svg"><g><path d="m87 295.6h-8c-35 0-64-28-64-63.1v-154.4c0-35 29-63.1 64.1-63.1h155.7c35.1 0 64.1 28.1 64.1 63.1v5.6c44.9 0 71.6 23.9 71.6 70.6 35.5 0 64.5 27.6 64.5 63.1v153.9c0 35.1-28.5 63.6-63.6 63.6h-157.2c-34.6 0-63.1-28.5-63.1-63.6v-7.5c-36.5-3.3-64.1-23.9-64.1-62.7zm259.6-141.2v-7.5c0-22-18.2-39.3-39.8-39.3h-156.2c-22 0-40.2 17.3-40.2 39.3v154.3c0 25.3 17.3 36.5 40.7 38.8v-122.5c0-34.6 28.5-63.1 63.1-63.1zm24.8 23.4h-157.2c-21.5 0-39.3 17.8-39.3 39.8v153.9c0 22 17.8 39.8 39.3 39.8h157.1c22 0 39.8-17.8 39.8-39.8v-154c0-22-17.7-39.7-39.7-39.7zm-96.4-94v-5.6c0-22-18.2-39.3-40.2-39.3h-155.7c-22 0-40.2 17.3-40.2 39.3v154.3c0 22 18.2 39.3 40.2 39.3h8v-124.9c0-35.1 29-63.1 63.6-63.1z"/></g></svg>