<svg height="512" viewBox="0 0 32 32" width="512" xmlns="http://www.w3.org/2000/svg"><g id="_x31_4"><path d="m27 24c-.5527344 0-1 .4472656-1 1v3h-20v-17h20v4c0 .5527344.4472656 1 1 1s1-.4472656 1-1v-4h1c.4580078 0 .8574219-.3115234.9697266-.7558594s-.0917969-.9072266-.4960938-1.125l-13-7c-.2949219-.1582031-.6523438-.1582031-.9472656 0l-13 7c-.4042969.2177734-.6083984.6806641-.4960938 1.125s.5117188.7558594.9697266.7558594h1v18c0 .5527344.4472656 1 1 1h22c.5527344 0 1-.4472656 1-1v-4c0-.5527344-.4472656-1-1-1zm-11-19.8642578 9.0332031 4.8642578h-18.0664062z"/><path d="m14.4472656 12.1054688c-.28125-.140625-.6132813-.140625-.8945313 0l-6 3c-.3388671.1699218-.5527343.515625-.5527343.8945312v7c0 .3789063.2138672.7246094.5527344.8945313l6 3c.140625.0703125.2939453.1054687.4472656.1054687s.3066406-.0351563.4472656-.1054688l6-3c.3388672-.1699218.5527344-.5156249.5527344-.8945312v-7c0-.3789063-.2138672-.7246094-.5527344-.8945313zm-.4472656 2.0126953 3.7636719 1.8818359-3.7636719 1.8818359-3.7636719-1.8818359zm-5 3.5 4 2v4.7636719l-4-2zm6 6.7636718v-4.7636719l4-2v4.7636719z"/><path d="m29 19h-3.5859375l.2929688-.2929688c.390625-.390625.390625-1.0234375 0-1.4140625s-1.0234375-.390625-1.4140625 0l-2 2c-.390625.390625-.390625 1.0234375 0 1.4140625l2 2c.1953125.1953126.4511718.2929688.7070312.2929688s.5117188-.0976563.7070313-.2929688c.390625-.390625.390625-1.0234375 0-1.4140625l-.2929688-.2929687h3.5859375c.5527344 0 1-.4472656 1-1s-.4472656-1-1-1z"/></g></svg>