<?xml version="1.0" encoding="UTF-8"?>
<svg xmlns="http://www.w3.org/2000/svg" id="Layer_1" data-name="Layer 1" viewBox="0 0 48 48" width="512" height="512"><path d="M26,36H6a2.00229,2.00229,0,0,1-2-2V8A2.00229,2.00229,0,0,1,6,6H37a2.00229,2.00229,0,0,1,2,2V26.52a1,1,0,1,1-2,0V8H6V34H26a1,1,0,0,1,0,2Z"/><path d="M12,11a.99974.99974,0,0,1-1-1V4a1,1,0,0,1,2,0v6A.99974.99974,0,0,1,12,11Z"/><path d="M18,11a.99974.99974,0,0,1-1-1V4a1,1,0,0,1,2,0v6A.99974.99974,0,0,1,18,11Z"/><path d="M24,11a.99974.99974,0,0,1-1-1V4a1,1,0,0,1,2,0v6A.99974.99974,0,0,1,24,11Z"/><path d="M30,11a.99974.99974,0,0,1-1-1V4a1,1,0,0,1,2,0v6A.99974.99974,0,0,1,30,11Z"/><path d="M38,16H5a1,1,0,0,1,0-2H38a1,1,0,0,1,0,2Z"/><path d="M26.94043,32H10a.99974.99974,0,0,1-1-1V19a.99974.99974,0,0,1,1-1H33a.99974.99974,0,0,1,1,1v7.22021a1,1,0,0,1-2,0V20H11V30H26.94043a1,1,0,0,1,0,2Z"/><path d="M25,32H17a.99974.99974,0,0,1-1-1V19a.99974.99974,0,0,1,1-1h8a.99974.99974,0,0,1,1,1V31A.99974.99974,0,0,1,25,32Zm-7-2h6V20H18Z"/><path d="M33,26H10a1,1,0,0,1,0-2H33a1,1,0,0,1,0,2Z"/><path d="M35,36a3.0625,3.0625,0,1,1,3.0625-3.0625,1,1,0,0,1-2,0A1.0625,1.0625,0,1,0,35,34a1,1,0,0,1,0,2Z"/><path d="M35,40.125a3.06621,3.06621,0,0,1-3.0625-3.0625,1,1,0,0,1,2,0A1.0625,1.0625,0,1,0,35,36a1,1,0,0,1,0-2,3.0625,3.0625,0,0,1,0,6.125Z"/><path d="M35,31.875a.99974.99974,0,0,1-1-1V29.5a1,1,0,0,1,2,0v1.375A.99974.99974,0,0,1,35,31.875Z"/><path d="M35,41.5a.99974.99974,0,0,1-1-1V39.125a1,1,0,0,1,2,0V40.5A.99974.99974,0,0,1,35,41.5Z"/><path d="M35,45A10,10,0,1,1,45,35,10.01146,10.01146,0,0,1,35,45Zm0-18a8,8,0,1,0,8,8A8.00917,8.00917,0,0,0,35,27Z"/></svg>
