<svg id="Capa_1" enable-background="new 0 0 512 512" height="512" viewBox="0 0 512 512" width="512" xmlns="http://www.w3.org/2000/svg"><path d="m494.925 105.815c-.184-.405-.394-.793-.628-1.167-1.226-2.156-2.737-4.167-4.525-5.976l-89.161-90.206c-2.258-2.285-4.892-4.151-7.753-5.548-.047-.026-.095-.047-.142-.072-.065-.031-.129-.063-.194-.093-.265-.133-.536-.254-.814-.363-3.566-1.552-7.441-2.39-11.367-2.39h-156.832c-15.715 0-28.5 12.785-28.5 28.5v76.929h-152.511c-15.715 0-28.5 12.784-28.5 28.499v349.572c0 15.715 12.785 28.5 28.5 28.5h243.948c15.715 0 28.5-12.785 28.5-28.5v-76.929h154.555c15.715 0 28.5-12.784 28.5-28.499v-259.366c0-4.552-1.069-8.943-3.076-12.891zm-32.02-5.874h-56.342c-4.687 0-8.5-3.813-8.5-8.5v-57.101zm-247.896 39.828 64.841 65.602h-56.341c-4.687 0-8.5-3.813-8.5-8.5zm79.938 343.731c0 4.687-3.813 8.5-8.5 8.5h-243.949c-4.687 0-8.5-3.813-8.5-8.5v-349.572c0-4.687 3.813-8.499 8.5-8.499h152.511v71.441c0 15.715 12.785 28.5 28.5 28.5h71.438v34.857h-32.042c-5.523 0-10 4.478-10 10s4.477 10 10 10h32.042zm174.555-96.929h-154.555v-106.343h67.979l-23.01 22.914c-3.914 3.897-3.927 10.229-.03 14.143 1.954 1.962 4.52 2.943 7.086 2.943 2.552 0 5.105-.971 7.056-2.914l40-39.833c1.879-1.871 2.938-4.413 2.944-7.065 0-.032-.004-.064-.005-.097 0-.031.005-.06.005-.091 0-3.279-1.586-6.181-4.024-8.004l-38.89-39.052c-3.897-3.913-10.229-3.927-14.142-.029s-3.927 10.229-.03 14.143l22.848 22.943h-67.787v-36.093c0-7.55-2.923-14.665-8.23-20.034l-89.161-90.206c-.802-.812-1.656-1.564-2.546-2.268v-83.128c0-4.687 3.813-8.5 8.5-8.5h154.555v71.441c0 15.715 12.785 28.5 28.5 28.5h71.438v258.131c-.002 4.687-3.815 8.499-8.501 8.499z"/><path d="m79.248 280h131.647c5.523 0 10-4.478 10-10s-4.477-10-10-10h-131.647c-5.523 0-10 4.478-10 10s4.477 10 10 10z"/><path d="m79.248 333h109.723c5.523 0 10-4.478 10-10s-4.477-10-10-10h-109.723c-5.523 0-10 4.478-10 10s4.477 10 10 10z"/><circle cx="238.738" cy="323" r="10.005"/><path d="m238.971 366.667h-159.723c-5.523 0-10 4.478-10 10s4.477 10 10 10h159.723c5.523 0 10-4.478 10-10s-4.477-10-10-10z"/><path d="m238.971 420h-159.723c-5.523 0-10 4.478-10 10s4.477 10 10 10h159.723c5.523 0 10-4.478 10-10s-4.477-10-10-10z"/></svg>