<?xml version="1.0" encoding="UTF-8"?>
<svg xmlns="http://www.w3.org/2000/svg" xmlns:xlink="http://www.w3.org/1999/xlink" version="1.1" id="Capa_1" x="0px" y="0px" viewBox="0 0 512 512" style="enable-background:new 0 0 512 512;" xml:space="preserve" width="512" height="512">
<g id="XMLID_357_">
	<path style="fill:none;stroke:#000000;stroke-width:20;stroke-linecap:round;stroke-linejoin:round;stroke-miterlimit:10;" d="&#10;&#9;&#9;M472,502H40c-16.569,0-30-13.431-30-30V270.939c0-16.569,13.431-30,30-30h432c16.568,0,30,13.431,30,30V472&#10;&#9;&#9;C502,488.569,488.568,502,472,502z"/>
	<path style="fill:none;stroke:#000000;stroke-width:20;stroke-linecap:round;stroke-linejoin:round;stroke-miterlimit:10;" d="&#10;&#9;&#9;M300.175,287.606c-6.063-3.789-13.374-6.002-21.243-6.002c-20.983,0-37.994,15.734-37.994,35.143&#10;&#9;&#9;c0,19.409,17.011,35.143,37.994,35.143c20.984,0,32.799-15.734,32.799-35.143h-22.732"/>
	
		<line id="XMLID_358_" style="fill:none;stroke:#000000;stroke-width:20;stroke-linecap:round;stroke-linejoin:round;stroke-miterlimit:10;" x1="110.408" y1="281.102" x2="110.408" y2="351.388"/>
	
		<line id="XMLID_359_" style="fill:none;stroke:#000000;stroke-width:20;stroke-linecap:round;stroke-linejoin:round;stroke-miterlimit:10;" x1="160.612" y1="281.102" x2="160.612" y2="351.388"/>
	
		<line id="XMLID_360_" style="fill:none;stroke:#000000;stroke-width:20;stroke-linecap:round;stroke-linejoin:round;stroke-miterlimit:10;" x1="110.408" y1="315.04" x2="160.612" y2="315.04"/>
	
		<line id="XMLID_361_" style="fill:none;stroke:#000000;stroke-width:20;stroke-linecap:round;stroke-linejoin:round;stroke-miterlimit:10;" x1="351.388" y1="281.102" x2="351.388" y2="351.388"/>
	
		<line id="XMLID_362_" style="fill:none;stroke:#000000;stroke-width:20;stroke-linecap:round;stroke-linejoin:round;stroke-miterlimit:10;" x1="401.592" y1="281.102" x2="401.592" y2="351.388"/>
	
		<line id="XMLID_363_" style="fill:none;stroke:#000000;stroke-width:20;stroke-linecap:round;stroke-linejoin:round;stroke-miterlimit:10;" x1="351.388" y1="315.04" x2="401.592" y2="315.04"/>
	
		<line id="XMLID_364_" style="fill:none;stroke:#000000;stroke-width:20;stroke-linecap:round;stroke-linejoin:round;stroke-miterlimit:10;" x1="200.775" y1="281.102" x2="200.775" y2="351.388"/>
	
		<polyline id="XMLID_365_" style="fill:none;stroke:#000000;stroke-width:20;stroke-linecap:round;stroke-linejoin:round;stroke-miterlimit:10;" points="&#10;&#9;&#9;451.796,391.551 421.673,391.551 421.673,461.837 451.796,461.837 &#9;"/>
	
		<line id="XMLID_366_" style="fill:none;stroke:#000000;stroke-width:20;stroke-linecap:round;stroke-linejoin:round;stroke-miterlimit:10;" x1="449.574" y1="426.694" x2="421.673" y2="426.694"/>
	
		<path id="XMLID_367_" style="fill:none;stroke:#000000;stroke-width:20;stroke-linecap:round;stroke-linejoin:round;stroke-miterlimit:10;" d="&#10;&#9;&#9;M301.184,426.694c0,19.409-15.734,35.142-35.142,35.142c-19.409,0-35.143-15.734-35.143-35.142&#10;&#9;&#9;c0-19.409,15.734-35.143,35.143-35.143C285.449,391.551,301.184,407.285,301.184,426.694z"/>
	
		<line style="fill:none;stroke:#000000;stroke-width:20;stroke-linecap:round;stroke-linejoin:round;stroke-miterlimit:10;" x1="350.305" y1="428.291" x2="381.51" y2="461.837"/>
	
		<line style="fill:none;stroke:#000000;stroke-width:20;stroke-linecap:round;stroke-linejoin:round;stroke-miterlimit:10;" x1="341.347" y1="391.551" x2="341.347" y2="461.837"/>
	<path style="fill:none;stroke:#000000;stroke-width:20;stroke-linecap:round;stroke-linejoin:round;stroke-miterlimit:10;" d="&#10;&#9;&#9;M381.51,409.818c0,10.088-9.349,18.267-20.399,18.267c-5.48,0-19.603,0.08-19.603,0.08c-0.188-50.175-0.123-32.87-0.137-36.614&#10;&#9;&#9;c0,0,13.265,0,19.741,0C372.161,391.551,381.51,399.73,381.51,409.818z"/>
	
		<path id="XMLID_368_" style="fill:none;stroke:#000000;stroke-width:20;stroke-linecap:round;stroke-linejoin:round;stroke-miterlimit:10;" d="&#10;&#9;&#9;M98.324,398.776c-1.157-2.776-11.154-11.287-24.185-6.121c-11.807,4.681-13.697,19.861-5.004,26.302c0,0,8.531,4.325,17.993,8.291&#10;&#9;&#9;c22.776,9.547,12.965,34.589-5.371,34.589c-9.182,0-16.888-4.569-21.553-10.419"/>
	<path style="fill:none;stroke:#000000;stroke-width:20;stroke-linecap:round;stroke-linejoin:round;stroke-miterlimit:10;" d="&#10;&#9;&#9;M198.156,397.553c-5.899-3.789-13.01-6.002-20.665-6.002c-20.413,0-36.96,15.734-36.96,35.143c0,19.409,16.548,35.142,36.96,35.142&#10;&#9;&#9;c9.117,0,17.325-3.169,23.284-9.921"/>
	
		<line id="XMLID_369_" style="fill:none;stroke:#000000;stroke-width:20;stroke-linecap:round;stroke-linejoin:round;stroke-miterlimit:10;" x1="70.245" y1="321.265" x2="60.204" y2="321.265"/>
	
		<line id="XMLID_370_" style="fill:none;stroke:#000000;stroke-width:20;stroke-linecap:round;stroke-linejoin:round;stroke-miterlimit:10;" x1="451.796" y1="321.265" x2="441.755" y2="321.265"/>
	
		<polygon id="XMLID_371_" style="fill:none;stroke:#000000;stroke-width:20;stroke-linecap:round;stroke-linejoin:round;stroke-miterlimit:10;" points="&#10;&#9;&#9;256,10 293.233,86.02 376.49,98.211 316.245,157.384 330.467,240.939 256,201.49 181.533,240.939 195.755,157.384 135.51,98.211 &#10;&#9;&#9;218.767,86.02 &#9;"/>
	
		<polygon id="XMLID_372_" style="fill:none;stroke:#000000;stroke-width:20;stroke-linecap:round;stroke-linejoin:round;stroke-miterlimit:10;" points="&#10;&#9;&#9;449.177,99.531 465.5,132.858 502,138.203 475.588,164.145 481.823,200.775 449.177,183.481 416.53,200.775 422.765,164.145 &#10;&#9;&#9;396.353,138.203 432.853,132.858 &#9;"/>
	
		<polygon id="XMLID_373_" style="fill:none;stroke:#000000;stroke-width:20;stroke-linecap:round;stroke-linejoin:round;stroke-miterlimit:10;" points="&#10;&#9;&#9;62.823,99.531 79.147,132.858 115.647,138.203 89.235,164.145 95.47,200.775 62.823,183.481 30.177,200.775 36.412,164.145 &#10;&#9;&#9;10,138.203 46.5,132.858 &#9;"/>
</g>















</svg>
