<svg width="62" height="62" viewBox="0 0 62 62" fill="none" xmlns="http://www.w3.org/2000/svg">
<path d="M43.4 28.4167H18.6646L17.9542 33.5833H44.0458L43.4 28.4167ZM10.3333 51.6667L13.4979 28.4167H7.75001C6.8889 28.4167 6.21034 28.0722 5.71434 27.3833C5.21834 26.6945 5.07884 25.941 5.29584 25.1229L8.97709 12.2063C9.14931 11.6465 9.4507 11.1945 9.88126 10.85C10.3118 10.5056 10.8285 10.3333 11.4313 10.3333H50.5688C51.1715 10.3333 51.6882 10.5056 52.1188 10.85C52.5493 11.1945 52.8507 11.6465 53.0229 12.2063L56.7042 25.1229C56.9195 25.941 56.78 26.6945 56.2857 27.3833C55.7914 28.0722 55.1128 28.4167 54.25 28.4167H48.5667L51.6667 51.6667H46.5L44.7563 38.75H17.2438L15.5 51.6667H10.3333Z" fill="#004671"/>
</svg>
