<svg width="12" height="12" viewBox="0 0 12 12" fill="none" xmlns="http://www.w3.org/2000/svg">
<path fill-rule="evenodd" clip-rule="evenodd" d="M1.625 11C1.625 10.9005 1.66451 10.8052 1.73483 10.7348C1.80516 10.6645 1.90054 10.625 2 10.625H10C10.0995 10.625 10.1948 10.6645 10.2652 10.7348C10.3355 10.8052 10.375 10.9005 10.375 11C10.375 11.0995 10.3355 11.1948 10.2652 11.2652C10.1948 11.3355 10.0995 11.375 10 11.375H2C1.90054 11.375 1.80516 11.3355 1.73483 11.2652C1.66451 11.1948 1.625 11.0995 1.625 11Z" fill="#9BA3B1"/>
<path d="M5.75986 7.46449L8.71836 4.50599C8.2206 4.29821 7.76853 3.99462 7.38786 3.61249C7.00549 3.23172 6.70173 2.77947 6.49386 2.28149L3.53486 5.23999C3.30386 5.47099 3.18836 5.58599 3.08936 5.71349C2.97221 5.86363 2.87179 6.02608 2.78986 6.19799C2.72036 6.34349 2.66886 6.49849 2.56536 6.80799L2.02136 8.44149C1.99639 8.51622 1.99275 8.59643 2.01082 8.67311C2.0289 8.7498 2.06799 8.81994 2.1237 8.87565C2.17941 8.93136 2.24955 8.97045 2.32623 8.98853C2.40292 9.0066 2.48313 9.00295 2.55786 8.97799L4.19086 8.43399C4.50086 8.33049 4.65586 8.27899 4.80136 8.20899C4.97334 8.12739 5.13581 8.02712 5.28586 7.90999C5.41336 7.81049 5.52836 7.69499 5.75936 7.46449H5.75986ZM9.53936 3.68499C9.83435 3.38994 10 2.98978 9.99999 2.57256C9.99995 2.15534 9.83416 1.75523 9.53911 1.46024C9.24406 1.16525 8.8439 0.999556 8.42668 0.999603C8.00946 0.99965 7.60935 1.16544 7.31436 1.46049L6.95936 1.81549L6.97486 1.86049C7.10486 2.23499 7.35036 2.72649 7.81186 3.18799C8.19684 3.57515 8.66703 3.86692 9.18486 4.03999L9.53936 3.68499Z" fill="#9BA3B1"/>
</svg>
