<svg width="12" height="12" viewBox="0 0 12 12" fill="none" xmlns="http://www.w3.org/2000/svg">
<g clip-path="url(#clip0_363_3463)">
<path d="M6.00007 3.85713V2.57141M6.00007 3.85713C5.28864 3.85713 4.71436 3.85713 4.71436 4.71427C4.71436 5.99998 7.28578 5.99998 7.28578 7.2857C7.28578 8.14284 6.7115 8.14284 6.00007 8.14284M6.00007 3.85713C6.7115 3.85713 7.28578 4.18284 7.28578 4.71427M4.71436 7.2857C4.71436 7.92855 5.28864 8.14284 6.00007 8.14284M6.00007 8.14284V9.42855" stroke="#EB5624" stroke-linecap="round" stroke-linejoin="round"/>
<path d="M6.00014 11.5714C9.07716 11.5714 11.5716 9.077 11.5716 5.99999C11.5716 2.92297 9.07716 0.428558 6.00014 0.428558C2.92312 0.428558 0.428711 2.92297 0.428711 5.99999C0.428711 9.077 2.92312 11.5714 6.00014 11.5714Z" stroke="#EB5624" stroke-linecap="round" stroke-linejoin="round"/>
</g>
<defs>
<clipPath id="clip0_363_3463">
<rect width="12" height="12" fill="white"/>
</clipPath>
</defs>
</svg>
