<?xml version="1.0" encoding="UTF-8"?>
<svg xmlns="http://www.w3.org/2000/svg" viewBox="0 0 64 64" width="512" height="512"><g id="_11-Income" data-name="11-Income"><path d="M52,40V35a5.0083,5.0083,0,0,0-4-4.8989V27a4.9581,4.9581,0,0,0-4.2686-4.93,1,1,0,0,0-.2929,1.9785A2.9711,2.9711,0,0,1,46,27v3H7a3.0033,3.0033,0,0,1-3-3,2.9711,2.9711,0,0,1,2.5615-2.9517A1,1,0,0,0,6.2686,22.07,4.9581,4.9581,0,0,0,2,27V57a5.0059,5.0059,0,0,0,5,5H47a5.0059,5.0059,0,0,0,5-5V52a2.0023,2.0023,0,0,0,2-2V42A2.0023,2.0023,0,0,0,52,40ZM50,57a3.0033,3.0033,0,0,1-3,3H7a3.0033,3.0033,0,0,1-3-3V30.9744A4.9514,4.9514,0,0,0,7,32H47a3.0033,3.0033,0,0,1,3,3v5H44a6,6,0,0,0,0,12h6Zm2-7H44a4,4,0,0,1,0-8h8Zm9.7744-37.3667-9,11a1.001,1.001,0,0,1-1.5488,0l-9-11A1.0006,1.0006,0,0,1,43,11h4V3a1,1,0,0,1,2,0v9a1,1,0,0,1-1,1H45.11L52,21.4209,58.89,13H56a1,1,0,0,1-1-1V3a1,1,0,0,1,2,0v8h4a1.0006,1.0006,0,0,1,.7744,1.6333ZM24,8V3a1,1,0,0,1,2,0V8a1,1,0,0,1-2,0ZM14,10V5a1,1,0,0,1,2,0v5a1,1,0,0,1-2,0Zm20,0V5a1,1,0,0,1,2,0v5a1,1,0,0,1-2,0ZM23,24.5A1.5017,1.5017,0,0,0,24.5,26h1a1,1,0,0,1,0,2h-1a3.4922,3.4922,0,0,1-.5-6.9495V20a1,1,0,0,1,2,0v1h2a1,1,0,0,1,0,2H24.5A1.5017,1.5017,0,0,0,23,24.5ZM25,17A10.0114,10.0114,0,0,0,15,27a1,1,0,0,1-2,0,12,12,0,0,1,24,0,1,1,0,0,1-2,0A10.0114,10.0114,0,0,0,25,17ZM9,27a16,16,0,0,1,32,0,1,1,0,0,1-2,0,14,14,0,0,0-28,0,1,1,0,0,1-2,0Z"/></g></svg>
