<?xml version="1.0" encoding="UTF-8" standalone="no"?>
<!-- Created with Inkscape (http://www.inkscape.org/) -->

<svg
   version="1.1"
   id="svg852"
   xml:space="preserve"
   width="682.66669"
   height="682.66669"
   viewBox="0 0 682.66669 682.66669"
   xmlns="http://www.w3.org/2000/svg"
   xmlns:svg="http://www.w3.org/2000/svg"><defs
     id="defs856"><clipPath
       clipPathUnits="userSpaceOnUse"
       id="clipPath866"><path
         d="M 0,512 H 512 V 0 H 0 Z"
         id="path864" /></clipPath></defs><g
     id="g858"
     transform="matrix(1.3333333,0,0,-1.3333333,0,682.66667)"><g
       id="g860"><g
         id="g862"
         clip-path="url(#clipPath866)"><g
           id="g868"
           transform="translate(472.1616,305.2031)"><path
             d="M 0,0 V -215.876 H -432.323 V 1.333"
             style="fill:none;stroke:#000000;stroke-width:20;stroke-linecap:round;stroke-linejoin:round;stroke-miterlimit:10;stroke-dasharray:none;stroke-opacity:1"
             id="path870" /></g><g
           id="g872"
           transform="translate(210.7939,36.8218)"><path
             d="m 0,0 h -200.794 v 52.505 h 492 V 0 H 90.413"
             style="fill:none;stroke:#000000;stroke-width:20;stroke-linecap:round;stroke-linejoin:round;stroke-miterlimit:10;stroke-dasharray:none;stroke-opacity:1"
             id="path874" /></g><g
           id="g876"
           transform="translate(256.1836,36.8218)"><path
             d="M 0,0 V 0"
             style="fill:none;stroke:#000000;stroke-width:20;stroke-linecap:round;stroke-linejoin:round;stroke-miterlimit:10;stroke-dasharray:none;stroke-opacity:1"
             id="path878" /></g><g
           id="g880"
           transform="translate(120.2837,475.1782)"><path
             d="m 0,0 h -67.858 l -31.819,-79.591 h 78.464 z"
             style="fill:none;stroke:#000000;stroke-width:20;stroke-linecap:round;stroke-linejoin:round;stroke-miterlimit:10;stroke-dasharray:none;stroke-opacity:1"
             id="path882" /></g><g
           id="g884"
           transform="translate(20.6064,395.5869)"><path
             d="m 0,0 v -53.63 c 0,-21.667 17.565,-39.232 39.232,-39.232 v 0 c 21.667,0 39.232,17.565 39.232,39.232 V 0 Z"
             style="fill:none;stroke:#000000;stroke-width:20;stroke-linecap:round;stroke-linejoin:round;stroke-miterlimit:10;stroke-dasharray:none;stroke-opacity:1"
             id="path886" /></g><g
           id="g888"
           transform="translate(99.0708,395.5869)"><path
             d="m 0,0 v -53.63 c 0,-21.667 17.565,-39.232 39.232,-39.232 21.668,0 39.233,17.565 39.233,39.232 V 0 Z"
             style="fill:none;stroke:#000000;stroke-width:20;stroke-linecap:round;stroke-linejoin:round;stroke-miterlimit:10;stroke-dasharray:none;stroke-opacity:1"
             id="path890" /></g><g
           id="g892"
           transform="translate(188.1421,475.1782)"><path
             d="m 0,0 h -67.858 l -21.213,-79.591 h 78.465 z"
             style="fill:none;stroke:#000000;stroke-width:20;stroke-linecap:round;stroke-linejoin:round;stroke-miterlimit:10;stroke-dasharray:none;stroke-opacity:1"
             id="path894" /></g><g
           id="g896"
           transform="translate(256,475.1782)"><path
             d="M 0,0 H -67.858 L -78.464,-79.591 H 0 Z"
             style="fill:none;stroke:#000000;stroke-width:20;stroke-linecap:round;stroke-linejoin:round;stroke-miterlimit:10;stroke-dasharray:none;stroke-opacity:1"
             id="path898" /></g><g
           id="g900"
           transform="translate(177.5356,395.5869)"><path
             d="m 0,0 v -53.63 c 0,-21.667 17.564,-39.232 39.232,-39.232 21.667,0 39.232,17.565 39.232,39.232 V 0 Z"
             style="fill:none;stroke:#000000;stroke-width:20;stroke-linecap:round;stroke-linejoin:round;stroke-miterlimit:10;stroke-dasharray:none;stroke-opacity:1"
             id="path902" /></g><g
           id="g904"
           transform="translate(323.8584,475.1782)"><path
             d="M 0,0 H -67.858 V -79.591 H 10.606 Z"
             style="fill:none;stroke:#000000;stroke-width:20;stroke-linecap:round;stroke-linejoin:round;stroke-miterlimit:10;stroke-dasharray:none;stroke-opacity:1"
             id="path906" /></g><g
           id="g908"
           transform="translate(256,395.5869)"><path
             d="m 0,0 v -53.63 c 0,-21.667 17.565,-39.232 39.232,-39.232 21.668,0 39.233,17.565 39.233,39.232 V 0 Z"
             style="fill:none;stroke:#000000;stroke-width:20;stroke-linecap:round;stroke-linejoin:round;stroke-miterlimit:10;stroke-dasharray:none;stroke-opacity:1"
             id="path910" /></g><g
           id="g912"
           transform="translate(391.7163,475.1782)"><path
             d="m 0,0 h -67.858 l 10.607,-79.591 h 78.464 z"
             style="fill:none;stroke:#000000;stroke-width:20;stroke-linecap:round;stroke-linejoin:round;stroke-miterlimit:10;stroke-dasharray:none;stroke-opacity:1"
             id="path914" /></g><g
           id="g916"
           transform="translate(334.4648,395.5869)"><path
             d="m 0,0 v -53.63 c 0,-21.667 17.564,-39.232 39.232,-39.232 21.667,0 39.232,17.565 39.232,39.232 V 0 Z"
             style="fill:none;stroke:#000000;stroke-width:20;stroke-linecap:round;stroke-linejoin:round;stroke-miterlimit:10;stroke-dasharray:none;stroke-opacity:1"
             id="path918" /></g><g
           id="g920"
           transform="translate(459.5747,475.1782)"><path
             d="m 0,0 h -67.858 l 21.212,-79.591 h 78.465 z"
             style="fill:none;stroke:#000000;stroke-width:20;stroke-linecap:round;stroke-linejoin:round;stroke-miterlimit:10;stroke-dasharray:none;stroke-opacity:1"
             id="path922" /></g><g
           id="g924"
           transform="translate(412.9292,395.5869)"><path
             d="m 0,0 v -53.63 c 0,-21.667 17.565,-39.232 39.232,-39.232 v 0 c 21.667,0 39.232,17.565 39.232,39.232 V 0 Z"
             style="fill:none;stroke:#000000;stroke-width:20;stroke-linecap:round;stroke-linejoin:round;stroke-miterlimit:10;stroke-dasharray:none;stroke-opacity:1"
             id="path926" /></g><path
           d="M 211.262,89.327 H 87.801 v 165.532 h 123.461 z"
           style="fill:none;stroke:#000000;stroke-width:20;stroke-linecap:round;stroke-linejoin:round;stroke-miterlimit:10;stroke-dasharray:none;stroke-opacity:1"
           id="path928" /><path
           d="m 424.199,146.093 h -155.49 v 108.766 h 155.49 z"
           style="fill:none;stroke:#000000;stroke-width:20;stroke-linecap:round;stroke-linejoin:round;stroke-miterlimit:10;stroke-dasharray:none;stroke-opacity:1"
           id="path930" /><g
           id="g932"
           transform="translate(302.6216,185.0762)"><path
             d="M 0,0 39.825,39.825"
             style="fill:none;stroke:#000000;stroke-width:20;stroke-linecap:round;stroke-linejoin:round;stroke-miterlimit:10;stroke-dasharray:none;stroke-opacity:1"
             id="path934" /></g><g
           id="g936"
           transform="translate(323.1626,147.8452)"><path
             d="M 0,0 32.176,32.176"
             style="fill:none;stroke:#000000;stroke-width:20;stroke-linecap:round;stroke-linejoin:round;stroke-miterlimit:10;stroke-dasharray:none;stroke-opacity:1"
             id="path938" /></g></g></g></g></svg>
