<?xml version="1.0"?>
<svg xmlns="http://www.w3.org/2000/svg" id="Icons" viewBox="0 0 60 60" width="512" height="512"><path d="M56,0H30a4,4,0,0,0-4,4V5H21.485A6.884,6.884,0,0,0,16.6,6.992l-4.29,3.6A6.013,6.013,0,0,1,8.451,12H2a2,2,0,0,0-2,2v7.263a1.987,1.987,0,0,0,1.408,1.91l7.081,2.19A9.958,9.958,0,0,0,12,26H19a5.325,5.325,0,0,0,4.443-2.377l.2-.3a3.325,3.325,0,0,1,1.4-1.188l1.291-.587A3.976,3.976,0,0,0,30,24H56a4,4,0,0,0,4-4V4A4,4,0,0,0,56,0ZM2,14H7v8.81L2,21.263Zm22.206,6.318a5.323,5.323,0,0,0-2.233,1.9l-.2.3A3.336,3.336,0,0,1,19,24H12a8.11,8.11,0,0,1-2.864-.528L9,23.429V13.976a8.014,8.014,0,0,0,4.6-1.85L17.95,8.465A4.968,4.968,0,0,1,21.485,7H26v5.409l-3.113.532a1,1,0,1,0,.338,1.971l3.944-.675,5.027-.859a1.529,1.529,0,0,1,.907,2.9ZM58,20a2,2,0,0,1-2,2H30a1.982,1.982,0,0,1-1.854-1.275L33.931,18.1c.06-.028.111-.066.169-.1H43a1,1,0,0,0,0-2H35.808a3.515,3.515,0,0,0-3.959-4.592L28,12.067V4a2,2,0,0,1,2-2H56a2,2,0,0,1,2,2Z"/><path d="M53,14a2.981,2.981,0,0,0-2,.78,3,3,0,1,0,0,4.44A3,3,0,1,0,53,14Zm-4,4a1,1,0,1,1,1-1A1,1,0,0,1,49,18Zm4,0a1,1,0,1,1,1-1A1,1,0,0,1,53,18Z"/><path d="M25,30a1,1,0,0,0-1,1V49H22.07a2.046,2.046,0,0,0-1.94,1.337,2,2,0,0,0,.572,2.226l7.919,6.919a2.1,2.1,0,0,0,2.757,0l7.915-6.917a2,2,0,0,0,.577-2.229A2.046,2.046,0,0,0,37.93,49H36V28a1,1,0,0,0-2,0V49H33a1,1,0,0,0,0,2h2l2.981.057-7.92,6.922a.1.1,0,0,1-.123,0L22.07,51H29a1,1,0,0,0,0-2H26V31A1,1,0,0,0,25,30Z"/><path d="M35,4H32a2,2,0,0,0-2,2V8a2,2,0,0,0,2,2h3a2,2,0,0,0,2-2V6A2,2,0,0,0,35,4ZM32,8V6h3l0,2Z"/><path d="M43,29a1,1,0,0,0-1,1V41.586l-1.293-1.293a1,1,0,0,0-1.414,1.414l3,3a1,1,0,0,0,1.414,0l3-3a1,1,0,0,0-1.414-1.414L44,41.586V30A1,1,0,0,0,43,29Z"/><path d="M17,29a1,1,0,0,0-1,1V41.586l-1.293-1.293a1,1,0,0,0-1.414,1.414l3,3a1,1,0,0,0,1.414,0l3-3a1,1,0,0,0-1.414-1.414L18,41.586V30A1,1,0,0,0,17,29Z"/><path d="M30,29a1,1,0,0,0,1-1V27a1,1,0,0,0-2,0v1A1,1,0,0,0,30,29Z"/><path d="M29,43a1,1,0,0,0,2,0V32a1,1,0,0,0-2,0Z"/></svg>
